<svg width="24" height="24" viewBox="0 0 24 24" fill="none" xmlns="http://www.w3.org/2000/svg">
<path d="M13 11.4429V5C13.0013 4.718 12.9057 4.48067 12.713 4.288C12.5203 4.09534 12.2827 3.99934 12 4C11.7173 4.00067 11.48 4.09667 11.288 4.288C11.096 4.47934 11 4.71667 11 5L13 11.4429ZM13 11.4429L12.6464 11.7965L13 12.15H13.5V11.65M13 11.4429L13.5 11.65M13.5 11.65L14.875 10.275C15.075 10.075 15.3127 9.979 15.588 9.987C15.8633 9.995 16.1007 10.0993 16.3 10.3C16.4833 10.5 16.5793 10.7333 16.588 11C16.5967 11.2667 16.5007 11.5 16.3 11.7L12.7 15.3C12.6 15.4 12.4917 15.471 12.375 15.513C12.2583 15.555 12.1333 15.5757 12 15.575L13.5 11.65ZM18 17.5V18H17.5H6.5H6V17.5V16C6.00133 15.718 5.90567 15.4807 5.713 15.288C5.52033 15.0953 5.28267 14.9993 5 15C4.71733 15.0007 4.48 15.0967 4.288 15.288C4.096 15.4793 4 15.7167 4 16V18M18 17.5L4 18M18 17.5V16C18 15.7167 18.096 15.4793 18.288 15.288C18.48 15.0967 18.7173 15.0007 19 15C19.2827 14.9993 19.5203 15.0953 19.713 15.288C19.9057 15.4807 20.0013 15.718 20 16V18C20 18.55 19.8043 19.021 19.413 19.413C19.0217 19.805 18.5507 20.0007 18 20V17.5ZM4 18H4.5V17.9997C4.5 17.9996 4.5 17.9995 4.5 17.9994L4 18ZM12.0025 15.075H12C11.9191 15.075 11.851 15.0626 11.792 15.0417C11.7557 15.0289 11.7096 15.0029 11.6547 14.9476L11.6536 14.9465L8.05355 11.3464C7.94443 11.2373 7.90818 11.1349 7.91178 11.015C7.916 10.8742 7.96157 10.7573 8.06097 10.6462C8.1712 10.5389 8.28663 10.4919 8.42752 10.4878C8.56166 10.4839 8.66687 10.524 8.77145 10.6286L10.6464 12.5036L11.5 13.3571V12.15V5C11.5 4.84287 11.5477 4.73505 11.6409 4.64217C11.7351 4.54829 11.8441 4.50037 12.0012 4.5C12.1564 4.49964 12.2647 4.54681 12.3594 4.64156C12.4541 4.73625 12.5007 4.84384 12.5 4.99764V5V12.15V13.3571L13.3536 12.5036L15.2286 10.6286C15.3342 10.5229 15.4399 10.4829 15.5735 10.4868C15.7139 10.4909 15.8286 10.5379 15.9382 10.6453C16.0376 10.7566 16.0837 10.8744 16.0883 11.0162C16.0921 11.1351 16.0564 11.2369 15.947 11.3459L15.9464 11.3464L12.3464 14.9465C12.2912 15.0017 12.2439 15.0288 12.2056 15.0426C12.1481 15.0633 12.0817 15.0754 12.0025 15.075Z" fill="#FFD585" stroke="#FFD585"/>
</svg>
