<svg width="24" height="24" viewBox="0 0 24 24" fill="none" xmlns="http://www.w3.org/2000/svg">
<path d="M20.29 8.51703C20.7575 9.63254 20.9942 10.8183 20.9882 12.0401C20.9822 13.256 20.7414 14.4337 20.2679 15.5412L20.2679 15.5412C19.8125 16.6105 19.1605 17.5695 18.3319 18.3901L18.3318 18.3901C17.51 19.2069 16.5369 19.8556 15.4669 20.3001C14.3695 20.7555 13.2038 20.9883 12.002 20.9883H11.9599C10.5666 20.9815 9.19379 20.6518 7.9493 20.0252L7.94993 20.024H7.94403H4.88848C4.64651 20.024 4.41444 19.9279 4.24334 19.7568C4.07223 19.5857 3.97611 19.3536 3.97611 19.1116V16.058H3.97751L3.97485 16.0528C3.34827 14.8083 3.01864 13.4355 3.01183 12.0421C3.00581 10.8263 3.23854 9.64456 3.69999 8.53306C4.14538 7.45971 4.78938 6.49669 5.60997 5.66807L5.60998 5.66806C6.42507 4.84405 7.39268 4.18648 8.45888 3.73199L8.45889 3.73198C9.56633 3.2585 10.744 3.01774 11.9599 3.01172H12C13.2078 3.01172 14.3795 3.24646 15.4829 3.70991L15.4829 3.70992C16.5584 4.1598 17.5351 4.8162 18.3579 5.64198L18.3579 5.64198C19.1865 6.47261 19.8366 7.43964 20.29 8.51703ZM20.29 8.51703L20.3008 8.5125M20.29 8.51703C20.29 8.51704 20.29 8.51704 20.29 8.51705L20.3008 8.5125M20.3008 8.5125C20.7689 9.62946 21.0059 10.8167 20.9999 12.0402C20.9939 13.2576 20.7528 14.4368 20.2787 15.5458L15.4875 3.69911C16.5643 4.14958 17.5423 4.80684 18.3662 5.63371C19.1959 6.4654 19.8468 7.43371 20.3008 8.5125ZM11.9658 19.4849H11.9658H12C13.9919 19.4849 15.8631 18.7163 17.2736 17.3199L17.2736 17.3199C18.6901 15.9155 19.4768 14.0382 19.4889 12.0342C19.4929 11.0161 19.2977 10.0302 18.9074 9.1006C18.5311 8.2032 17.9879 7.39635 17.2977 6.70622C16.6056 6.01408 15.8008 5.47282 14.9034 5.09656C13.9839 4.71024 13.008 4.51507 12.002 4.51507L11.9679 4.51507L11.9678 4.51507C9.96184 4.52312 8.08455 5.30783 6.68013 6.72635C5.27371 8.14487 4.50711 10.0282 4.51516 12.0342C4.5212 13.2475 4.823 14.4527 5.39041 15.5171L5.39042 15.5171L5.47944 15.6833V18.5089V18.5206H5.49115H8.31675L8.4829 18.6097L8.48293 18.6097C9.54733 19.1771 10.7525 19.4789 11.9658 19.4849ZM11.3264 12.6736C11.1478 12.4949 11.0474 12.2526 11.0474 12C11.0474 11.7474 11.1478 11.5051 11.3264 11.3264C11.5051 11.1478 11.7474 11.0474 12 11.0474C12.2526 11.0474 12.4949 11.1478 12.6736 11.3264C12.8522 11.5051 12.9526 11.7474 12.9526 12C12.9526 12.2526 12.8522 12.4949 12.6736 12.6736C12.4949 12.8522 12.2526 12.9526 12 12.9526C11.7474 12.9526 11.5051 12.8522 11.3264 12.6736ZM15.3443 12.6736C15.1656 12.4949 15.0653 12.2526 15.0653 12C15.0653 11.7474 15.1656 11.5051 15.3443 11.3264C15.5229 11.1478 15.7652 11.0474 16.0178 11.0474C16.2704 11.0474 16.5127 11.1478 16.6914 11.3264C16.87 11.5051 16.9704 11.7474 16.9704 12C16.9704 12.2526 16.87 12.4949 16.6914 12.6736C16.5127 12.8522 16.2704 12.9526 16.0178 12.9526C15.7652 12.9526 15.5229 12.8522 15.3443 12.6736ZM7.30864 12.6736C7.13 12.4949 7.02964 12.2526 7.02964 12C7.02964 11.7474 7.13 11.5051 7.30864 11.3264C7.48728 11.1478 7.72956 11.0474 7.98219 11.0474C8.23483 11.0474 8.47711 11.1478 8.65575 11.3264C8.83439 11.5051 8.93475 11.7474 8.93475 12C8.93475 12.2526 8.83439 12.4949 8.65575 12.6736C8.47711 12.8522 8.23483 12.9526 7.98219 12.9526C7.72956 12.9526 7.48728 12.8522 7.30864 12.6736Z" fill="#FFD585" stroke="#FFD585" stroke-width="0.0234375"/>
</svg>
