<svg width="21" height="21" viewBox="0 0 21 21" fill="none" xmlns="http://www.w3.org/2000/svg">
<g id="Group">
<path id="Vector" d="M4.46116 2.94224C4.46116 3.4343 4.26569 3.90621 3.91774 4.25416C3.5698 4.6021 3.09789 4.79757 2.60583 4.79757C2.11377 4.79757 1.64186 4.6021 1.29392 4.25416C0.945975 3.90621 0.750504 3.4343 0.750504 2.94224C0.750504 2.45018 0.945975 1.97827 1.29392 1.63033C1.64186 1.28239 2.11377 1.08691 2.60583 1.08691C3.09789 1.08691 3.5698 1.28239 3.91774 1.63033C4.26569 1.97827 4.46116 2.45018 4.46116 2.94224ZM4.46116 17.7849C4.46116 18.2769 4.26569 18.7488 3.91774 19.0968C3.5698 19.4447 3.09789 19.6402 2.60583 19.6402C2.11377 19.6402 1.64186 19.4447 1.29392 19.0968C0.945975 18.7488 0.750504 18.2769 0.750504 17.7849C0.750504 17.2928 0.945975 16.8209 1.29392 16.4729C1.64186 16.125 2.11377 15.9295 2.60583 15.9295C3.09789 15.9295 3.5698 16.125 3.91774 16.4729C4.26569 16.8209 4.46116 17.2928 4.46116 17.7849ZM11.8825 17.7849C11.8825 18.2769 11.687 18.7488 11.3391 19.0968C10.9911 19.4447 10.5192 19.6402 10.0271 19.6402C9.53508 19.6402 9.06317 19.4447 8.71522 19.0968C8.36728 18.7488 8.17181 18.2769 8.17181 17.7849C8.17181 17.2928 8.36728 16.8209 8.71522 16.4729C9.06317 16.125 9.53508 15.9295 10.0271 15.9295C10.5192 15.9295 10.9911 16.125 11.3391 16.4729C11.687 16.8209 11.8825 17.2928 11.8825 17.7849ZM11.8825 2.94224C11.8825 3.4343 11.687 3.90621 11.3391 4.25416C10.9911 4.6021 10.5192 4.79757 10.0271 4.79757C9.53508 4.79757 9.06317 4.6021 8.71522 4.25416C8.36728 3.90621 8.17181 3.4343 8.17181 2.94224C8.17181 2.45018 8.36728 1.97827 8.71522 1.63033C9.06317 1.28239 9.53508 1.08691 10.0271 1.08691C10.5192 1.08691 10.9911 1.28239 11.3391 1.63033C11.687 1.97827 11.8825 2.45018 11.8825 2.94224ZM19.3038 2.94224C19.3038 3.4343 19.1083 3.90621 18.7604 4.25416C18.4124 4.6021 17.9405 4.79757 17.4484 4.79757C16.9564 4.79757 16.4845 4.6021 16.1365 4.25416C15.7886 3.90621 15.5931 3.4343 15.5931 2.94224C15.5931 2.45018 15.7886 1.97827 16.1365 1.63033C16.4845 1.28239 16.9564 1.08691 17.4484 1.08691C17.9405 1.08691 18.4124 1.28239 18.7604 1.63033C19.1083 1.97827 19.3038 2.45018 19.3038 2.94224Z" stroke="#7C7C7C" stroke-width="1.5"/>
<path id="Vector_2" d="M2.60583 4.79785V15.9298M10.0271 4.79785V15.9298M17.4485 4.79785V6.65318C17.4485 8.40275 17.4485 9.27661 16.9048 9.82022C16.3612 10.3638 15.4874 10.3638 13.7378 10.3638H2.60583" stroke="#7C7C7C" stroke-width="1.5" stroke-linecap="round"/>
<path id="Vector_3" d="M15.5931 13.1469V12.4512C15.4086 12.4512 15.2316 12.5245 15.1011 12.655C14.9707 12.7854 14.8974 12.9624 14.8974 13.1469H15.5931ZM14.8974 19.6406C14.8974 19.8251 14.9707 20.0021 15.1011 20.1325C15.2316 20.263 15.4086 20.3363 15.5931 20.3363C15.7776 20.3363 15.9546 20.263 16.0851 20.1325C16.2156 20.0021 16.2889 19.8251 16.2889 19.6406H14.8974ZM18.7101 20.0042C18.7578 20.0822 18.8205 20.15 18.8944 20.2037C18.9684 20.2575 19.0522 20.2961 19.1411 20.3175C19.23 20.3389 19.3222 20.3425 19.4125 20.3282C19.5028 20.314 19.5894 20.282 19.6674 20.2343C19.7454 20.1865 19.8132 20.1239 19.8669 20.0499C19.9207 19.976 19.9594 19.8921 19.9807 19.8032C20.0021 19.7143 20.0057 19.6221 19.9914 19.5318C19.9772 19.4415 19.9452 19.3549 19.8975 19.2769L18.7101 20.0042ZM15.5931 13.8427H17.7138V12.4512H15.5931V13.8427ZM16.2889 16.3937V13.1469H14.8974V16.3937H16.2889ZM18.608 14.7703C18.608 15.2963 18.1943 15.698 17.7138 15.698V17.0895C18.9893 17.0895 19.9995 16.0375 19.9995 14.7703H18.608ZM17.7138 13.8427C18.1943 13.8427 18.608 14.2443 18.608 14.7703H19.9995C19.9995 13.5031 18.9893 12.4512 17.7138 12.4512V13.8427ZM17.7138 15.698H17.3158V17.0895H17.7138V15.698ZM17.3158 15.698H15.5931V17.0895H17.3158V15.698ZM16.7221 16.7574L18.7101 20.0042L19.8975 19.2769L17.9095 16.0301L16.7221 16.7574ZM14.8974 16.3937V19.6406H16.2889V16.3937H14.8974Z" fill="#7C7C7C"/>
</g>
</svg>
