<svg width="24" height="24" viewBox="0 0 24 24" fill="none" xmlns="http://www.w3.org/2000/svg">
<g id="arrow_big_icon">
<path id="Vector" d="M5.24139 3.71011L19.2494 11.5901C19.3263 11.6337 19.3903 11.697 19.4349 11.7734C19.4794 11.8498 19.5029 11.9367 19.5029 12.0251C19.5029 12.1136 19.4794 12.2004 19.4349 12.2768C19.3903 12.3533 19.3263 12.4165 19.2494 12.4601L5.24139 20.3401C5.15159 20.3902 5.04851 20.4114 4.94622 20.4008C4.84392 20.3903 4.74738 20.3484 4.66975 20.2809C4.59212 20.2135 4.53718 20.1237 4.51242 20.0239C4.48766 19.9241 4.49429 19.819 4.5314 19.7231L7.4534 12.2061C7.49861 12.0897 7.49861 11.9605 7.4534 11.8441L4.5304 4.32711C4.49307 4.23107 4.48633 4.12585 4.51109 4.02583C4.53586 3.92582 4.59091 3.83589 4.66873 3.76836C4.74655 3.70083 4.84333 3.65899 4.94584 3.64856C5.04835 3.63814 5.15157 3.65963 5.24139 3.71011Z" stroke="#FFD585" stroke-width="1.5" stroke-linecap="round" stroke-linejoin="round"/>
</g>
</svg>
