<svg width="42" height="30" viewBox="0 0 42 30" fill="none" xmlns="http://www.w3.org/2000/svg">
<g id="Group">
<path id="Vector" d="M15.014 25C15.014 26.0609 14.5926 27.0783 13.8424 27.8284C13.0923 28.5786 12.0749 29 11.014 29C9.95313 29 8.93572 28.5786 8.18557 27.8284C7.43543 27.0783 7.014 26.0609 7.014 25C7.014 23.9391 7.43543 22.9217 8.18557 22.1716C8.93572 21.4214 9.95313 21 11.014 21C12.0749 21 13.0923 21.4214 13.8424 22.1716C14.5926 22.9217 15.014 23.9391 15.014 25ZM35.014 25C35.014 26.0609 34.5926 27.0783 33.8424 27.8284C33.0923 28.5786 32.0749 29 31.014 29C29.9531 29 28.9357 28.5786 28.1856 27.8284C27.4354 27.0783 27.014 26.0609 27.014 25C27.014 23.9391 27.4354 22.9217 28.1856 22.1716C28.9357 21.4214 29.9531 21 31.014 21C32.0749 21 33.0923 21.4214 33.8424 22.1716C34.5926 22.9217 35.014 23.9391 35.014 25Z" stroke="#FFD585" stroke-width="1.5" stroke-linecap="round" stroke-linejoin="round"/>
<path id="Vector_2" d="M1.014 11H33.014M1.014 11C1.014 12.56 0.974 17.08 1.022 21.52C1.094 22.96 1.334 24.16 7.018 25M1.014 11C1.446 7.52 3.324 3.4 4.284 1.84M15.014 11V1M26.994 25H15.004M1.044 1H21.48C21.48 1 22.56 1 23.52 1.096C25.318 1.264 26.828 2.08 28.34 4.12C29.94 6.28 31.168 9.016 32.8 10.48C35.51 12.912 40.666 12.16 40.954 17.32C41.026 19.96 41.026 22.84 40.906 23.32C40.712 24.734 39.622 24.964 38.266 25C37.09 25.032 35.672 24.944 34.982 25" stroke="#FFD585" stroke-width="1.5" stroke-linecap="round" stroke-linejoin="round"/>
</g>
</svg>
