<svg width="48" height="48" viewBox="0 0 48 48" fill="none" xmlns="http://www.w3.org/2000/svg">
<g id="form_icon">
<path id="Vector" d="M10.2857 21.4283C10.2857 20.2917 10.7372 19.2016 11.541 18.3978C12.3447 17.5941 13.4348 17.1426 14.5714 17.1426C15.7081 17.1426 16.7982 17.5941 17.6019 18.3978C18.4056 19.2016 18.8571 20.2917 18.8571 21.4283C18.8571 22.5649 18.4056 23.655 17.6019 24.4587C16.7982 25.2625 15.7081 25.714 14.5714 25.714C13.4348 25.714 12.3447 25.2625 11.541 24.4587C10.7372 23.655 10.2857 22.5649 10.2857 21.4283ZM14.5714 19.714C14.1168 19.714 13.6807 19.8946 13.3592 20.2161C13.0378 20.5376 12.8571 20.9736 12.8571 21.4283C12.8571 21.8829 13.0378 22.319 13.3592 22.6405C13.6807 22.962 14.1168 23.1426 14.5714 23.1426C15.0261 23.1426 15.4621 22.962 15.7836 22.6405C16.1051 22.319 16.2857 21.8829 16.2857 21.4283C16.2857 20.9736 16.1051 20.5376 15.7836 20.2161C15.4621 19.8946 15.0261 19.714 14.5714 19.714ZM14.5714 29.1426C13.4348 29.1426 12.3447 29.5941 11.541 30.3978C10.7372 31.2016 10.2857 32.2917 10.2857 33.4283C10.2857 34.5649 10.7372 35.655 11.541 36.4587C12.3447 37.2625 13.4348 37.714 14.5714 37.714C15.7081 37.714 16.7982 37.2625 17.6019 36.4587C18.4056 35.655 18.8571 34.5649 18.8571 33.4283C18.8571 32.2917 18.4056 31.2016 17.6019 30.3978C16.7982 29.5941 15.7081 29.1426 14.5714 29.1426ZM12.8571 33.4283C12.8571 32.9736 13.0378 32.5376 13.3592 32.2161C13.6807 31.8946 14.1168 31.714 14.5714 31.714C15.0261 31.714 15.4621 31.8946 15.7836 32.2161C16.1051 32.5376 16.2857 32.9736 16.2857 33.4283C16.2857 33.8829 16.1051 34.319 15.7836 34.6405C15.4621 34.962 15.0261 35.1426 14.5714 35.1426C14.1168 35.1426 13.6807 34.962 13.3592 34.6405C13.0378 34.319 12.8571 33.8829 12.8571 33.4283ZM22.2857 20.9997C22.2857 20.6587 22.4212 20.3317 22.6623 20.0906C22.9034 19.8495 23.2304 19.714 23.5714 19.714H36.4286C36.7696 19.714 37.0966 19.8495 37.3377 20.0906C37.5788 20.3317 37.7143 20.6587 37.7143 20.9997C37.7143 21.3407 37.5788 21.6677 37.3377 21.9089C37.0966 22.15 36.7696 22.2854 36.4286 22.2854H23.5714C23.2304 22.2854 22.9034 22.15 22.6623 21.9089C22.4212 21.6677 22.2857 21.3407 22.2857 20.9997ZM23.5714 31.714C23.2304 31.714 22.9034 31.8495 22.6623 32.0906C22.4212 32.3317 22.2857 32.6587 22.2857 32.9997C22.2857 33.3407 22.4212 33.6677 22.6623 33.9089C22.9034 34.15 23.2304 34.2854 23.5714 34.2854H36.4286C36.7696 34.2854 37.0966 34.15 37.3377 33.9089C37.5788 33.6677 37.7143 33.3407 37.7143 32.9997C37.7143 32.6587 37.5788 32.3317 37.3377 32.0906C37.0966 31.8495 36.7696 31.714 36.4286 31.714H23.5714ZM10.2857 12.4283C10.2857 12.0873 10.4212 11.7603 10.6623 11.5192C10.9034 11.278 11.2304 11.1426 11.5714 11.1426H36.4286C36.7696 11.1426 37.0966 11.278 37.3377 11.5192C37.5788 11.7603 37.7143 12.0873 37.7143 12.4283C37.7143 12.7693 37.5788 13.0963 37.3377 13.3374C37.0966 13.5785 36.7696 13.714 36.4286 13.714H11.5714C11.2304 13.714 10.9034 13.5785 10.6623 13.3374C10.4212 13.0963 10.2857 12.7693 10.2857 12.4283ZM11.5714 5.14258C9.86646 5.14258 8.23133 5.81987 7.02574 7.02546C5.82015 8.23105 5.14285 9.86619 5.14285 11.5711V36.4283C5.14285 38.1333 5.82015 39.7684 7.02574 40.974C8.23133 42.1796 9.86646 42.8569 11.5714 42.8569H36.4286C38.1335 42.8569 39.7687 42.1796 40.9743 40.974C42.1798 39.7684 42.8571 38.1333 42.8571 36.4283V11.5711C42.8571 9.86619 42.1798 8.23105 40.9743 7.02546C39.7687 5.81987 38.1335 5.14258 36.4286 5.14258H11.5714ZM7.71428 11.5711C7.71428 10.5482 8.12066 9.56709 8.84401 8.84374C9.56737 8.12038 10.5484 7.71401 11.5714 7.71401H36.4286C37.4515 7.71401 38.4326 8.12038 39.156 8.84374C39.8793 9.56709 40.2857 10.5482 40.2857 11.5711V36.4283C40.2857 37.4513 39.8793 38.4324 39.156 39.1557C38.4326 39.8791 37.4515 40.2854 36.4286 40.2854H11.5714C10.5484 40.2854 9.56737 39.8791 8.84401 39.1557C8.12066 38.4324 7.71428 37.4513 7.71428 36.4283V11.5711Z" fill="#FFD585"/>
</g>
</svg>
