<svg width="24" height="24" viewBox="0 0 24 24" fill="none" xmlns="http://www.w3.org/2000/svg">
<g id="drive_icon">
<path id="Vector" d="M3.59998 4.80002C3.59998 4.1635 3.85283 3.55306 4.30292 3.10297C4.75301 2.65288 5.36346 2.40002 5.99998 2.40002C6.6365 2.40002 7.24694 2.65288 7.69703 3.10297C8.14712 3.55306 8.39998 4.1635 8.39998 4.80002V6.00002H10.302C10.4257 5.64843 10.6554 5.3439 10.9596 5.12847C11.2637 4.91305 11.6273 4.79735 12 4.79735C12.3727 4.79735 12.7362 4.91305 13.0404 5.12847C13.3445 5.3439 13.5743 5.64843 13.698 6.00002H15.6V4.80002C15.6 4.1635 15.8528 3.55306 16.3029 3.10297C16.753 2.65288 17.3635 2.40002 18 2.40002C18.6365 2.40002 19.2469 2.65288 19.697 3.10297C20.1471 3.55306 20.4 4.1635 20.4 4.80002V8.40002C20.4 9.03654 20.1471 9.64699 19.697 10.0971C19.2469 10.5472 18.6365 10.8 18 10.8C17.3635 10.8 16.753 10.5472 16.3029 10.0971C15.8528 9.64699 15.6 9.03654 15.6 8.40002V7.20002H13.698C13.6085 7.45339 13.4635 7.68352 13.2735 7.87351C13.0835 8.06351 12.8533 8.20856 12.6 8.29802V15.702C13.1112 15.8832 13.5168 16.2888 13.698 16.8H15.6V15.6C15.6 14.9635 15.8528 14.3531 16.3029 13.903C16.753 13.4529 17.3635 13.2 18 13.2C18.6365 13.2 19.2469 13.4529 19.697 13.903C20.1471 14.3531 20.4 14.9635 20.4 15.6V19.2C20.4 19.8365 20.1471 20.447 19.697 20.8971C19.2469 21.3472 18.6365 21.6 18 21.6C17.3635 21.6 16.753 21.3472 16.3029 20.8971C15.8528 20.447 15.6 19.8365 15.6 19.2V18H13.698C13.5743 18.3516 13.3445 18.6561 13.0404 18.8716C12.7362 19.087 12.3727 19.2027 12 19.2027C11.6273 19.2027 11.2637 19.087 10.9596 18.8716C10.6554 18.6561 10.4257 18.3516 10.302 18H8.39998V19.2C8.39998 19.8365 8.14712 20.447 7.69703 20.8971C7.24694 21.3472 6.6365 21.6 5.99998 21.6C5.36346 21.6 4.75301 21.3472 4.30292 20.8971C3.85283 20.447 3.59998 19.8365 3.59998 19.2V15.6C3.59998 14.9635 3.85283 14.3531 4.30292 13.903C4.75301 13.4529 5.36346 13.2 5.99998 13.2C6.6365 13.2 7.24694 13.4529 7.69703 13.903C8.14712 14.3531 8.39998 14.9635 8.39998 15.6V16.8H10.302C10.4832 16.2888 10.8888 15.8832 11.4 15.702V8.29802C11.1466 8.20856 10.9165 8.06351 10.7265 7.87351C10.5365 7.68352 10.3914 7.45339 10.302 7.20002H8.39998V8.40002C8.39998 9.03654 8.14712 9.64699 7.69703 10.0971C7.24694 10.5472 6.6365 10.8 5.99998 10.8C5.36346 10.8 4.75301 10.5472 4.30292 10.0971C3.85283 9.64699 3.59998 9.03654 3.59998 8.40002V4.80002ZM5.99998 3.60002C5.68172 3.60002 5.37649 3.72645 5.15145 3.9515C4.9264 4.17654 4.79998 4.48176 4.79998 4.80002V8.40002C4.79998 8.71828 4.9264 9.02351 5.15145 9.24855C5.37649 9.4736 5.68172 9.60002 5.99998 9.60002C6.31824 9.60002 6.62346 9.4736 6.8485 9.24855C7.07355 9.02351 7.19998 8.71828 7.19998 8.40002V4.80002C7.19998 4.48176 7.07355 4.17654 6.8485 3.9515C6.62346 3.72645 6.31824 3.60002 5.99998 3.60002ZM18 3.60002C17.6817 3.60002 17.3765 3.72645 17.1514 3.9515C16.9264 4.17654 16.8 4.48176 16.8 4.80002V8.40002C16.8 8.71828 16.9264 9.02351 17.1514 9.24855C17.3765 9.4736 17.6817 9.60002 18 9.60002C18.3182 9.60002 18.6235 9.4736 18.8485 9.24855C19.0735 9.02351 19.2 8.71828 19.2 8.40002V4.80002C19.2 4.48176 19.0735 4.17654 18.8485 3.9515C18.6235 3.72645 18.3182 3.60002 18 3.60002ZM5.99998 14.4C5.68172 14.4 5.37649 14.5265 5.15145 14.7515C4.9264 14.9765 4.79998 15.2818 4.79998 15.6V19.2C4.79998 19.5183 4.9264 19.8235 5.15145 20.0486C5.37649 20.2736 5.68172 20.4 5.99998 20.4C6.31824 20.4 6.62346 20.2736 6.8485 20.0486C7.07355 19.8235 7.19998 19.5183 7.19998 19.2V15.6C7.19998 15.2818 7.07355 14.9765 6.8485 14.7515C6.62346 14.5265 6.31824 14.4 5.99998 14.4ZM16.8 15.6V19.2C16.8 19.5183 16.9264 19.8235 17.1514 20.0486C17.3765 20.2736 17.6817 20.4 18 20.4C18.3182 20.4 18.6235 20.2736 18.8485 20.0486C19.0735 19.8235 19.2 19.5183 19.2 19.2V15.6C19.2 15.2818 19.0735 14.9765 18.8485 14.7515C18.6235 14.5265 18.3182 14.4 18 14.4C17.6817 14.4 17.3765 14.5265 17.1514 14.7515C16.9264 14.9765 16.8 15.2818 16.8 15.6Z" fill="#FFD585"/>
</g>
</svg>
