<svg width="24" height="24" viewBox="0 0 24 24" fill="none" xmlns="http://www.w3.org/2000/svg">
<g id="favorite_full_icon">
<path id="Vector" d="M12 21.325C11.7667 21.325 11.5293 21.2834 11.288 21.2C11.0467 21.1167 10.834 20.9834 10.65 20.8L8.925 19.225C7.15833 17.6084 5.56233 16.0044 4.137 14.413C2.71167 12.8217 1.99933 11.0674 2 9.15002C2 7.58336 2.525 6.27502 3.575 5.22502C4.625 4.17502 5.93333 3.65002 7.5 3.65002C8.38333 3.65002 9.21667 3.83736 10 4.21202C10.7833 4.58669 11.45 5.09936 12 5.75002C12.55 5.10002 13.2167 4.58769 14 4.21302C14.7833 3.83836 15.6167 3.65069 16.5 3.65002C18.0667 3.65002 19.375 4.17502 20.425 5.22502C21.475 6.27502 22 7.58336 22 9.15002C22 11.0667 21.2917 12.825 19.875 14.425C18.4583 16.025 16.85 17.6334 15.05 19.25L13.35 20.8C13.1667 20.9834 12.9543 21.1167 12.713 21.2C12.4717 21.2834 12.234 21.325 12 21.325Z" fill="#FFD585"/>
</g>
</svg>
