<svg width="24" height="24" viewBox="0 0 24 24" fill="none" xmlns="http://www.w3.org/2000/svg">
<g id="flash_icon">
<path id="Vector" d="M8.92659 20.9486C8.79743 20.893 8.6901 20.7953 8.62153 20.6707C8.55296 20.5462 8.52705 20.4019 8.5479 20.2607L9.6966 12.643H6.64813C6.55148 12.6456 6.45553 12.6256 6.36768 12.5845C6.27982 12.5434 6.20242 12.4823 6.14143 12.4059C6.08044 12.3295 6.0375 12.2398 6.01592 12.1438C5.99434 12.0478 5.9947 11.9481 6.01697 11.8523L7.91044 3.49522C7.94375 3.3514 8.0247 3.22366 8.13966 3.1335C8.25461 3.04335 8.39656 2.99628 8.54159 3.00023H14.8531C14.9474 2.9999 15.0406 3.0211 15.1258 3.06226C15.211 3.10342 15.286 3.1635 15.3454 3.23808C15.4057 3.31351 15.4483 3.40187 15.4702 3.49652C15.4921 3.59117 15.4926 3.68963 15.4717 3.78451L14.3798 8.78587H17.3777C17.496 8.78563 17.612 8.81925 17.7124 8.8829C17.8129 8.94655 17.8937 9.03767 17.9458 9.14587C17.991 9.24971 18.0084 9.36391 17.9962 9.47683C17.984 9.58975 17.9427 9.69737 17.8764 9.78872L9.67136 20.7171C9.6159 20.8009 9.54186 20.8701 9.45523 20.9193C9.3686 20.9684 9.27183 20.9961 9.17274 21C9.08831 20.9982 9.00489 20.9808 8.92659 20.9486ZM12.8019 10.0716L14.0642 4.28593H9.04651L7.44338 11.3573H11.1735L10.17 17.9658L16.1154 10.0716H12.8019Z" fill="#FFD585"/>
</g>
</svg>
