<svg width="24" height="24" viewBox="0 0 24 24" fill="none" xmlns="http://www.w3.org/2000/svg">
<g id="fluent:arrow-up-48-regular" clip-path="url(#clip0_62_997)">
<path id="Vector" d="M5.28242 19.2174C5.03847 18.9735 5.03847 18.5775 5.28243 18.3336L16.7538 6.86216L7.76225 6.93711C7.67875 6.94018 7.59547 6.92647 7.51736 6.8968C7.43925 6.86712 7.36788 6.82208 7.30747 6.76435C7.24707 6.70661 7.19885 6.63735 7.16568 6.56066C7.13251 6.48396 7.11505 6.4014 7.11434 6.31784C7.11363 6.23428 7.12968 6.15143 7.16155 6.07419C7.19342 5.99694 7.24045 5.92687 7.29986 5.86812C7.35928 5.80936 7.42988 5.76312 7.50747 5.73213C7.58507 5.70113 7.6681 5.68601 7.75164 5.68766L18.2617 5.59962L18.2805 5.59927C18.3729 5.60001 18.4639 5.62123 18.5471 5.6614C18.6303 5.70156 18.7036 5.75967 18.7616 5.83155C18.8567 5.94906 18.9059 6.09702 18.9002 6.24804L18.8119 16.7479C18.8135 16.8314 18.7984 16.9144 18.7674 16.992C18.7364 17.0696 18.6901 17.1402 18.6314 17.1996C18.5726 17.2591 18.5026 17.3061 18.4253 17.338C18.3481 17.3698 18.2652 17.3859 18.1817 17.3852C18.0981 17.3845 18.0155 17.367 17.9389 17.3338C17.8622 17.3007 17.7929 17.2524 17.7352 17.192C17.6774 17.1316 17.6324 17.0603 17.6027 16.9821C17.573 16.904 17.5593 16.8208 17.5624 16.7373L17.6373 7.74569L6.16595 19.2171C5.922 19.461 5.52673 19.4617 5.28242 19.2174Z" fill="#FFD585"/>
</g>
<defs>
<clipPath id="clip0_62_997">
<rect width="24" height="24" fill="white"/>
</clipPath>
</defs>
</svg>
