<svg width="23" height="23" viewBox="0 0 23 23" fill="none" xmlns="http://www.w3.org/2000/svg">
<g id="Group">
<path id="Vector" d="M1.586 17.414C1.2109 17.789 1.00011 18.2976 1 18.828V21C1 21.2652 1.10536 21.5195 1.29289 21.7071C1.48043 21.8946 1.73478 22 2 22H5C5.26522 22 5.51957 21.8946 5.70711 21.7071C5.89464 21.5195 6 21.2652 6 21V20C6 19.7348 6.10536 19.4804 6.29289 19.2929C6.48043 19.1053 6.73478 19 7 19H8C8.26522 19 8.51957 18.8946 8.70711 18.7071C8.89464 18.5195 9 18.2652 9 18V17C9 16.7348 9.10536 16.4804 9.29289 16.2929C9.48043 16.1053 9.73478 16 10 16H10.172C10.7024 15.9999 11.211 15.7891 11.586 15.414L12.4 14.6C13.7898 15.0841 15.3028 15.0823 16.6915 14.5947C18.0801 14.1072 19.2622 13.1628 20.0444 11.9161C20.8265 10.6694 21.1624 9.19415 20.9971 7.73172C20.8318 6.26928 20.1751 4.90623 19.1344 3.86555C18.0937 2.82486 16.7307 2.16816 15.2683 2.00287C13.8058 1.83757 12.3306 2.17347 11.0839 2.95562C9.83716 3.73776 8.89279 4.91985 8.40525 6.3085C7.91771 7.69714 7.91585 9.21014 8.4 10.6L1.586 17.414Z" stroke="#FFD585" stroke-width="2" stroke-linecap="round" stroke-linejoin="round"/>
<path id="Vector_2" d="M15.5 8C15.7761 8 16 7.77614 16 7.5C16 7.22386 15.7761 7 15.5 7C15.2239 7 15 7.22386 15 7.5C15 7.77614 15.2239 8 15.5 8Z" fill="#FFD585" stroke="#FFD585" stroke-width="2" stroke-linecap="round" stroke-linejoin="round"/>
</g>
</svg>
