<svg width="19" height="18" viewBox="0 0 19 18" fill="none" xmlns="http://www.w3.org/2000/svg">
<g id="Group 18">
<path id="Vector" d="M14.8662 10.0887C14.8823 10.0568 14.898 10.0246 14.9131 9.9927L16.5625 6.52942V5.67227L16.4478 5.51466C16.4261 5.48493 14.2743 2.52877 13.5452 1.55673C12.7378 0.480119 11.9602 3.74243e-05 11.0241 3.74243e-05C10.2939 3.74243e-05 9.5525 0.347114 8.82139 1.03161C8.64604 1.19647 8.48018 1.37114 8.32461 1.55479C8.16904 1.37113 8.00318 1.19644 7.82783 1.03157C7.0966 0.347077 6.3555 0 5.62513 0C4.68901 0 3.91143 0.480081 3.104 1.5567C2.37491 2.52877 0.223105 5.48493 0.201425 5.51462L0.086731 5.67227V6.52942L1.73569 9.99221C1.75109 10.0247 1.76685 10.0569 1.78295 10.0889C2.21015 10.9385 2.86848 11.6502 3.68223 12.1423C4.49401 12.6343 5.42525 12.8942 6.37452 12.8936H10.2746C11.2239 12.8942 12.1551 12.6343 12.9669 12.1423C13.7807 11.6502 14.4391 10.9384 14.8662 10.0887ZM6.37459 11.6954C4.8893 11.6954 3.50736 10.8539 2.85402 9.55175C2.84166 9.52714 2.82958 9.5024 2.81778 9.47753L1.28497 6.25869V6.06226C1.7418 5.43509 3.43565 3.1116 4.06259 2.2756C4.77461 1.32622 5.25203 1.19824 5.62513 1.19824C6.4906 1.19824 7.4004 2.26313 7.67734 2.67259L7.85535 2.93789H8.79387L8.97188 2.67259C9.22853 2.29009 10.1564 1.19824 11.0241 1.19824C11.3972 1.19824 11.8746 1.32622 12.5866 2.27564C13.2135 3.11152 14.9074 5.43509 15.3643 6.06226V6.25869L13.8312 9.47806C13.8195 9.50277 13.8074 9.52737 13.7953 9.55152C13.1419 10.8539 11.7599 11.6954 10.2746 11.6954H6.37459Z" fill="#FFD585"/>
<path id="Vector_2" d="M10.8869 3.56891L10.5098 3.99556C10.501 4.00548 9.59936 4.98523 8.32462 4.98523C7.04558 4.98523 6.1466 4.00346 6.13948 3.99556L5.7623 3.56891L2.63037 6.06603L4.29266 9.41911L4.72167 9.35782C7.11149 9.01627 9.53774 9.01627 11.9276 9.35782L12.3566 9.41911L14.0189 6.06603L10.8869 3.56891ZM11.6664 8.11371C9.44735 7.83336 7.20189 7.83336 4.98288 8.11371L4.13341 6.40012L5.66273 5.18087C6.17105 5.59382 7.10976 6.18357 8.32462 6.18357C9.53948 6.18357 10.4782 5.59382 10.9865 5.18087L12.5158 6.40023L11.6664 8.11371ZM12.3226 13.7004V14.8987C13.2354 14.8975 14.1224 14.5958 14.8466 14.0401C15.5708 13.4845 16.0918 12.7058 16.3292 11.8244L15.1714 11.5142C15.0027 12.1409 14.6322 12.6946 14.1173 13.0898C13.6024 13.485 12.9717 13.6995 12.3226 13.7004Z" fill="#FFD585"/>
<path id="Vector_3" d="M17.4866 12.1346C16.8753 14.4138 14.792 16.0969 12.3226 16.0969V17.2951C15.3455 17.2951 17.8958 15.2348 18.644 12.4447L17.4866 12.1346Z" fill="#FFD585"/>
</g>
</svg>
