<svg width="20" height="22" viewBox="0 0 20 22" fill="none" xmlns="http://www.w3.org/2000/svg">
<g id="Mask group">
<mask id="mask0_249_11571" style="mask-type:luminance" maskUnits="userSpaceOnUse" x="0" y="0" width="20" height="22">
<g id="Group">
<g id="Group_2">
<path id="Vector" d="M18.5 18H7.5V21H18.5V18Z" fill="#555555" stroke="white" stroke-width="2" stroke-linejoin="round"/>
<path id="Vector_2" d="M7.50003 18C4.24036 14.4387 2.37003 12.3747 1.88903 11.808C1.16753 10.958 1.47053 9.998 3.27653 9.998C5.08253 9.998 6.12403 12.6405 7.50003 12.6405C7.50836 12.6425 7.50886 9.263 7.50153 2.502C7.50126 2.30493 7.53983 2.10975 7.61504 1.92759C7.69024 1.74544 7.8006 1.57989 7.9398 1.4404C8.07901 1.30091 8.24434 1.19022 8.42635 1.11466C8.60835 1.03909 8.80346 1.00013 9.00052 1H9.00203C9.19931 0.999934 9.39468 1.03874 9.57697 1.11419C9.75926 1.18964 9.9249 1.30027 10.0644 1.43975C10.204 1.57923 10.3146 1.74483 10.3901 1.92709C10.4657 2.10936 10.5045 2.30471 10.5045 2.502V6.507C14.4905 7.111 16.6577 7.44433 17.006 7.507C17.5285 7.601 18.5 8.1 18.5 9.534V18H7.50003Z" stroke="white" stroke-width="2" stroke-linejoin="round"/>
</g>
</g>
</mask>
<g mask="url(#mask0_249_11571)">
<path id="Vector_3" d="M-2 -1H22V23H-2V-1Z" fill="#FFD585"/>
</g>
</g>
</svg>
