<svg width="88" height="88" viewBox="0 0 88 88" fill="none" xmlns="http://www.w3.org/2000/svg">
<g id="material-symbols-light:change-circle-outline" filter="url(#filter0_d_62_1059)">
<path id="Vector" d="M44.07 50.577L46.477 48.175L44.069 45.773L43.442 46.4L44.825 47.783C44.051 47.787 43.363 47.696 42.761 47.51C42.159 47.3233 41.6767 47.0487 41.314 46.686C40.942 46.3147 40.662 45.893 40.474 45.421C40.286 44.949 40.192 44.4773 40.192 44.006C40.192 43.7227 40.2233 43.4393 40.286 43.156C40.3487 42.8727 40.44 42.604 40.56 42.35L39.883 41.75C39.6897 42.1027 39.5453 42.468 39.45 42.846C39.3547 43.224 39.3073 43.6087 39.308 44C39.308 44.594 39.4233 45.1803 39.654 45.759C39.8847 46.3377 40.2257 46.856 40.677 47.314C41.1283 47.772 41.7213 48.112 42.456 48.334C43.1907 48.556 43.945 48.669 44.719 48.673L43.442 49.95L44.07 50.577ZM48.137 46.25C48.3303 45.8973 48.4743 45.532 48.569 45.154C48.6637 44.776 48.7113 44.3913 48.712 44C48.712 43.408 48.5973 42.8197 48.368 42.235C48.1387 41.6503 47.7953 41.1323 47.338 40.681C46.8933 40.223 46.3017 39.884 45.563 39.664C44.8237 39.4433 44.0693 39.333 43.3 39.333L44.577 38.05L43.95 37.423L41.542 39.825L43.95 42.227L44.577 41.6L43.189 40.212C43.959 40.212 44.648 40.3057 45.256 40.493C45.864 40.6803 46.349 40.9563 46.711 41.321C47.073 41.6857 47.3497 42.104 47.541 42.576C47.7323 43.048 47.8277 43.5207 47.827 43.994C47.827 44.2773 47.796 44.5607 47.734 44.844C47.672 45.1273 47.5807 45.396 47.46 45.65L48.137 46.25ZM44.003 53C42.759 53 41.589 52.764 40.493 52.292C39.3977 51.8193 38.4447 51.178 37.634 50.368C36.8233 49.558 36.1817 48.606 35.709 47.512C35.2363 46.418 35 45.2483 35 44.003C35 42.7577 35.2363 41.5877 35.709 40.493C36.181 39.3977 36.8213 38.4447 37.63 37.634C38.4387 36.8233 39.391 36.1817 40.487 35.709C41.583 35.2363 42.753 35 43.997 35C45.241 35 46.411 35.2363 47.507 35.709C48.6023 36.181 49.5553 36.8217 50.366 37.631C51.1767 38.4403 51.8183 39.3927 52.291 40.488C52.7637 41.5833 53 42.753 53 43.997C53 45.241 52.764 46.411 52.292 47.507C51.82 48.603 51.1787 49.556 50.368 50.366C49.5573 51.176 48.6053 51.8177 47.512 52.291C46.4187 52.7643 45.249 53.0007 44.003 53ZM44 52C46.2333 52 48.125 51.225 49.675 49.675C51.225 48.125 52 46.2333 52 44C52 41.7667 51.225 39.875 49.675 38.325C48.125 36.775 46.2333 36 44 36C41.7667 36 39.875 36.775 38.325 38.325C36.775 39.875 36 41.7667 36 44C36 46.2333 36.775 48.125 38.325 49.675C39.875 51.225 41.7667 52 44 52Z" fill="#FFD585"/>
</g>
<defs>
<filter id="filter0_d_62_1059" x="-3" y="-3" width="94" height="94" filterUnits="userSpaceOnUse" color-interpolation-filters="sRGB">
<feFlood flood-opacity="0" result="BackgroundImageFix"/>
<feColorMatrix in="SourceAlpha" type="matrix" values="0 0 0 0 0 0 0 0 0 0 0 0 0 0 0 0 0 0 127 0" result="hardAlpha"/>
<feMorphology radius="10" operator="dilate" in="SourceAlpha" result="effect1_dropShadow_62_1059"/>
<feOffset/>
<feGaussianBlur stdDeviation="12.5"/>
<feComposite in2="hardAlpha" operator="out"/>
<feColorMatrix type="matrix" values="0 0 0 0 1 0 0 0 0 0.835294 0 0 0 0 0.521569 0 0 0 0.4 0"/>
<feBlend mode="normal" in2="BackgroundImageFix" result="effect1_dropShadow_62_1059"/>
<feBlend mode="normal" in="SourceGraphic" in2="effect1_dropShadow_62_1059" result="shape"/>
</filter>
</defs>
</svg>
