<svg width="24" height="24" viewBox="0 0 24 24" fill="none" xmlns="http://www.w3.org/2000/svg">
<g id="percent_icon">
<path id="Vector" fill-rule="evenodd" clip-rule="evenodd" d="M6.75 11.25C5.55653 11.25 4.41193 10.7759 3.56802 9.93198C2.72411 9.08807 2.25 7.94347 2.25 6.75C2.25 5.55653 2.72411 4.41193 3.56802 3.56802C4.41193 2.72411 5.55653 2.25 6.75 2.25C7.94347 2.25 9.08807 2.72411 9.93198 3.56802C10.7759 4.41193 11.25 5.55653 11.25 6.75C11.25 7.94347 10.7759 9.08807 9.93198 9.93198C9.08807 10.7759 7.94347 11.25 6.75 11.25ZM9 6.75C9 7.34674 8.76295 7.91903 8.34099 8.34099C7.91903 8.76295 7.34674 9 6.75 9C6.15326 9 5.58097 8.76295 5.15901 8.34099C4.73705 7.91903 4.5 7.34674 4.5 6.75C4.5 6.15326 4.73705 5.58097 5.15901 5.15901C5.58097 4.73705 6.15326 4.5 6.75 4.5C7.34674 4.5 7.91903 4.73705 8.34099 5.15901C8.76295 5.58097 9 6.15326 9 6.75ZM17.25 21.75C16.0565 21.75 14.9119 21.2759 14.068 20.432C13.2241 19.5881 12.75 18.4435 12.75 17.25C12.75 16.0565 13.2241 14.9119 14.068 14.068C14.9119 13.2241 16.0565 12.75 17.25 12.75C18.4435 12.75 19.5881 13.2241 20.432 14.068C21.2759 14.9119 21.75 16.0565 21.75 17.25C21.75 18.4435 21.2759 19.5881 20.432 20.432C19.5881 21.2759 18.4435 21.75 17.25 21.75ZM19.5 17.25C19.5 17.8467 19.2629 18.419 18.841 18.841C18.419 19.2629 17.8467 19.5 17.25 19.5C16.6533 19.5 16.081 19.2629 15.659 18.841C15.2371 18.419 15 17.8467 15 17.25C15 16.6533 15.2371 16.081 15.659 15.659C16.081 15.2371 16.6533 15 17.25 15C17.8467 15 18.419 15.2371 18.841 15.659C19.2629 16.081 19.5 16.6533 19.5 17.25ZM20.67 4.92C20.8687 4.70674 20.9769 4.42467 20.9718 4.13322C20.9666 3.84176 20.8486 3.56369 20.6424 3.35757C20.4363 3.15145 20.1582 3.03338 19.8668 3.02824C19.5753 3.0231 19.2933 3.13128 19.08 3.33L3.33 19.08C3.21947 19.183 3.13082 19.3072 3.06933 19.4452C3.00784 19.5832 2.97478 19.7322 2.97211 19.8832C2.96945 20.0343 2.99723 20.1843 3.05382 20.3244C3.1104 20.4645 3.19461 20.5917 3.30144 20.6986C3.40827 20.8054 3.53552 20.8896 3.6756 20.9462C3.81569 21.0028 3.96573 21.0306 4.11678 21.0279C4.26784 21.0252 4.41681 20.9922 4.55481 20.9307C4.69281 20.8692 4.81701 20.7805 4.92 20.67L20.67 4.92Z" fill="#FFD585"/>
</g>
</svg>
