<svg width="24" height="24" viewBox="0 0 24 24" fill="none" xmlns="http://www.w3.org/2000/svg">
<g id="target_icon">
<path id="Vector" d="M12 4.50001C10.7718 4.49966 9.56222 4.80098 8.47767 5.37747C7.39312 5.95396 6.46675 6.78799 5.77996 7.80628C5.09317 8.82457 4.66698 9.99595 4.53883 11.2175C4.41068 12.439 4.58449 13.6734 5.04501 14.812C5.06969 14.8729 5.08215 14.938 5.08167 15.0037C5.08118 15.0694 5.06777 15.1343 5.04219 15.1948C5.0166 15.2553 4.97936 15.3102 4.93257 15.3563C4.88578 15.4024 4.83037 15.4388 4.76951 15.4635C4.70864 15.4882 4.6435 15.5007 4.57782 15.5002C4.51214 15.4997 4.44719 15.4863 4.3867 15.4607C4.3262 15.4351 4.27133 15.3979 4.22523 15.3511C4.17913 15.3043 4.14269 15.2489 4.11801 15.188C3.38317 13.3706 3.29911 11.3551 3.88007 9.48278C4.46102 7.6105 5.67128 5.99657 7.30584 4.91437C8.9404 3.83217 10.8988 3.34822 12.8493 3.5445C14.7998 3.74077 16.6225 4.6052 18.0086 5.99138C19.3948 7.37755 20.2592 9.20025 20.4555 11.1507C20.6518 13.1012 20.1678 15.0596 19.0856 16.6942C18.0034 18.3287 16.3895 19.539 14.5172 20.1199C12.645 20.7009 10.6294 20.6168 8.81201 19.882C8.68996 19.8317 8.59277 19.7351 8.54165 19.6134C8.49053 19.4917 8.48963 19.3547 8.53914 19.2323C8.58865 19.1099 8.68455 19.0121 8.80592 18.9601C8.9273 18.9082 9.06429 18.9063 9.18701 18.955C10.2125 19.3688 11.3168 19.5508 12.4208 19.4878C13.5248 19.4249 14.6013 19.1186 15.5731 18.5908C16.5448 18.0631 17.3879 17.327 18.0418 16.4352C18.6958 15.5435 19.1444 14.5181 19.3557 13.4327C19.5669 12.3472 19.5355 11.2284 19.2637 10.1565C18.9919 9.08464 18.4864 8.0861 17.7835 7.23245C17.0805 6.3788 16.1975 5.69115 15.1976 5.21876C14.1978 4.74637 13.1058 4.50093 12 4.50001Z" fill="#FFD585"/>
<path id="Vector_2" d="M6.5 12C6.5 13.339 6.978 14.566 7.773 15.52L7.293 16H5.77C5.37231 16.0004 4.99104 16.1586 4.71 16.44L3.072 18.077C2.96725 18.1819 2.89592 18.3155 2.86704 18.4609C2.83815 18.6063 2.853 18.757 2.90971 18.8939C2.96643 19.0309 3.06245 19.148 3.18567 19.2304C3.30888 19.3128 3.45376 19.3569 3.602 19.357H4.642V20.397C4.64213 20.5453 4.68619 20.6901 4.76861 20.8134C4.85103 20.9366 4.96811 21.0326 5.10508 21.0893C5.24204 21.146 5.39274 21.1609 5.53814 21.132C5.68354 21.1031 5.81712 21.0318 5.922 20.927L7.559 19.289C7.84051 19.0084 7.99912 18.6275 8 18.23V16.708L8.48 16.228C9.44118 17.0286 10.6466 17.4776 11.8973 17.501C13.148 17.5244 14.3693 17.1207 15.3597 16.3566C16.3501 15.5924 17.0504 14.5135 17.3452 13.2978C17.6399 12.0821 17.5114 10.8022 16.9809 9.66938C16.4504 8.53653 15.5495 7.61837 14.427 7.06638C13.3044 6.5144 12.0272 6.36156 10.8061 6.6331C9.58503 6.90464 8.49297 7.58432 7.71013 8.56001C6.92729 9.5357 6.50044 10.7491 6.5 12ZM12 7.50002C12.7188 7.50026 13.427 7.67267 14.0655 8.00282C14.7039 8.33297 15.254 8.81126 15.6697 9.39764C16.0854 9.98403 16.3545 10.6615 16.4546 11.3732C16.5548 12.085 16.4829 12.8104 16.2451 13.4887C16.0074 14.167 15.6106 14.7785 15.088 15.2719C14.5654 15.7654 13.9321 16.1265 13.2413 16.325C12.5505 16.5235 11.8222 16.5537 11.1173 16.4129C10.4125 16.2722 9.7516 15.9646 9.19 15.516L10.983 13.723C11.4023 13.9703 11.8974 14.0561 12.3755 13.9644C12.8536 13.8727 13.2818 13.6098 13.5799 13.225C13.878 12.8401 14.0256 12.3598 13.9948 11.874C13.9641 11.3881 13.7573 10.9302 13.413 10.586C13.0688 10.2418 12.6109 10.0349 12.1251 10.0042C11.6392 9.97346 11.1589 10.121 10.774 10.4191C10.3892 10.7172 10.1263 11.1454 10.0346 11.6235C9.94293 12.1016 10.0288 12.5967 10.276 13.016L8.484 14.809C7.955 14.147 7.62371 13.349 7.52825 12.5069C7.43279 11.6649 7.57705 10.813 7.94442 10.0493C8.31179 9.28559 8.88734 8.64116 9.60482 8.19017C10.3223 7.73918 11.1526 7.49995 12 7.50002ZM5.417 17.146C5.46352 17.0996 5.51873 17.0628 5.57947 17.0378C5.64021 17.0127 5.7053 16.9999 5.771 17H7V18.229C6.99971 18.3615 6.94684 18.4885 6.853 18.582L5.643 19.792V18.857C5.643 18.7244 5.59032 18.5972 5.49656 18.5035C5.40279 18.4097 5.27561 18.357 5.143 18.357H4.207L5.417 17.146Z" fill="#FFD585"/>
</g>
</svg>
