<svg width="22" height="20" viewBox="0 0 22 20" fill="none" xmlns="http://www.w3.org/2000/svg">
<g id="Group">
<path id="Vector" d="M1.5 10L3.5 11M20.5 10.5L18.5 11M7 15.5L7.246 14.886C7.611 13.973 7.794 13.516 8.175 13.258C8.555 13 9.047 13 10.031 13H11.969C12.953 13 13.445 13 13.825 13.258C14.205 13.516 14.389 13.973 14.755 14.886L15 15.5M1 15V17.882C1 18.261 1.24 18.607 1.622 18.776C1.869 18.886 2.105 19 2.391 19H4.109C4.395 19 4.631 18.886 4.879 18.776C5.259 18.607 5.5 18.261 5.5 17.882V16M16.5 16V17.882C16.5 18.261 16.74 18.607 17.122 18.776C17.369 18.886 17.605 19 17.891 19H19.609C19.895 19 20.131 18.886 20.379 18.776C20.759 18.607 21 18.261 21 17.882V15M19 6.5L20 6M3 6.5L2 6M3.5 7L4.588 3.735C5.028 2.415 5.248 1.755 5.772 1.378C6.296 1.001 6.992 1 8.383 1H13.617C15.008 1 15.704 1 16.227 1.378C16.752 1.755 16.972 2.415 17.412 3.735L18.5 7" stroke="#FFD585" stroke-width="1.5" stroke-linecap="round" stroke-linejoin="round"/>
<path id="Vector_2" d="M3.5 7H18.5C19.457 8.014 21 9.425 21 11V14.47C21 15.04 20.62 15.52 20.117 15.587L17 16H5L1.883 15.587C1.38 15.522 1 15.042 1 14.47V11C1 9.425 2.543 8.014 3.5 7Z" stroke="#FFD585" stroke-width="1.5" stroke-linecap="round" stroke-linejoin="round"/>
</g>
</svg>
