<svg width="24" height="24" viewBox="0 0 24 24" fill="none" xmlns="http://www.w3.org/2000/svg">
<g id="favorite_icon">
<path id="Vector" d="M12 21.3249C11.7667 21.3249 11.5293 21.2832 11.288 21.1999C11.0467 21.1166 10.834 20.9832 10.65 20.7999L8.925 19.2249C7.15833 17.6082 5.56233 16.0042 4.137 14.4129C2.71167 12.8216 1.99933 11.0672 2 9.1499C2 7.58324 2.525 6.2749 3.575 5.2249C4.625 4.1749 5.93333 3.6499 7.5 3.6499C8.38333 3.6499 9.21667 3.83724 10 4.2119C10.7833 4.58657 11.45 5.09924 12 5.7499C12.55 5.0999 13.2167 4.58757 14 4.2129C14.7833 3.83824 15.6167 3.65057 16.5 3.6499C18.0667 3.6499 19.375 4.1749 20.425 5.2249C21.475 6.2749 22 7.58324 22 9.1499C22 11.0666 21.2917 12.8249 19.875 14.4249C18.4583 16.0249 16.85 17.6332 15.05 19.2499L13.35 20.7999C13.1667 20.9832 12.9543 21.1166 12.713 21.1999C12.4717 21.2832 12.234 21.3249 12 21.3249ZM11.05 7.7499C10.5667 7.06657 10.05 6.54557 9.5 6.1869C8.95 5.82824 8.28333 5.64924 7.5 5.6499C6.5 5.6499 5.66667 5.98324 5 6.6499C4.33333 7.31657 4 8.1499 4 9.1499C4 10.0166 4.30833 10.9376 4.925 11.9129C5.54167 12.8882 6.27933 13.8339 7.138 14.7499C7.99667 15.6659 8.88 16.5242 9.788 17.3249C10.696 18.1256 11.4333 18.7839 12 19.2999C12.5667 18.7832 13.3043 18.1249 14.213 17.3249C15.1217 16.5249 16.005 15.6666 16.863 14.7499C17.721 13.8332 18.4583 12.8876 19.075 11.9129C19.6917 10.9382 20 10.0172 20 9.1499C20 8.1499 19.6667 7.31657 19 6.6499C18.3333 5.98324 17.5 5.6499 16.5 5.6499C15.7167 5.6499 15.05 5.82924 14.5 6.1879C13.95 6.54657 13.4333 7.06724 12.95 7.7499C12.8333 7.91657 12.6917 8.04157 12.525 8.1249C12.3583 8.20824 12.1833 8.2499 12 8.2499C11.8167 8.2499 11.6417 8.20824 11.475 8.1249C11.3083 8.04157 11.1667 7.91657 11.05 7.7499Z" fill="#FFD585"/>
</g>
</svg>
