<svg width="23" height="23" viewBox="0 0 23 23" fill="none" xmlns="http://www.w3.org/2000/svg">
<g id="Group">
<path id="Vector" d="M1.586 17.4142C1.2109 17.7891 1.00011 18.2978 1 18.8282V21.0002C1 21.2654 1.10536 21.5197 1.29289 21.7073C1.48043 21.8948 1.73478 22.0002 2 22.0002H5C5.26522 22.0002 5.51957 21.8948 5.70711 21.7073C5.89464 21.5197 6 21.2654 6 21.0002V20.0002C6 19.7349 6.10536 19.4806 6.29289 19.2931C6.48043 19.1055 6.73478 19.0002 7 19.0002H8C8.26522 19.0002 8.51957 18.8948 8.70711 18.7073C8.89464 18.5197 9 18.2654 9 18.0002V17.0002C9 16.7349 9.10536 16.4806 9.29289 16.2931C9.48043 16.1055 9.73478 16.0002 10 16.0002H10.172C10.7024 16 11.211 15.7893 11.586 15.4142L12.4 14.6002C13.7898 15.0843 15.3028 15.0825 16.6915 14.5949C18.0801 14.1074 19.2622 13.163 20.0444 11.9163C20.8265 10.6696 21.1624 9.19433 20.9971 7.7319C20.8318 6.26946 20.1751 4.90641 19.1344 3.86573C18.0937 2.82505 16.7307 2.16834 15.2683 2.00305C13.8058 1.83776 12.3306 2.17366 11.0839 2.9558C9.83716 3.73795 8.89279 4.92003 8.40525 6.30868C7.91771 7.69733 7.91585 9.21033 8.4 10.6002L1.586 17.4142Z" stroke="#FFD585" stroke-width="2" stroke-linecap="round" stroke-linejoin="round"/>
<path id="Vector_2" d="M15.5 8C15.7761 8 16 7.77614 16 7.5C16 7.22386 15.7761 7 15.5 7C15.2239 7 15 7.22386 15 7.5C15 7.77614 15.2239 8 15.5 8Z" fill="#FFD585" stroke="#FFD585" stroke-width="2" stroke-linecap="round" stroke-linejoin="round"/>
</g>
</svg>
