<svg width="24" height="25" viewBox="0 0 24 25" fill="none" xmlns="http://www.w3.org/2000/svg">
<g id="drive_icon">
<path id="Vector" d="M3.60001 5.13633C3.60001 4.49981 3.85286 3.88936 4.30295 3.43927C4.75304 2.98918 5.36349 2.73633 6.00001 2.73633C6.63653 2.73633 7.24698 2.98918 7.69706 3.43927C8.14715 3.88936 8.40001 4.49981 8.40001 5.13633V6.33633H10.302C10.4257 5.98473 10.6555 5.6802 10.9596 5.46478C11.2638 5.24935 11.6273 5.13365 12 5.13365C12.3727 5.13365 12.7362 5.24935 13.0404 5.46478C13.3445 5.6802 13.5743 5.98473 13.698 6.33633H15.6V5.13633C15.6 4.49981 15.8529 3.88936 16.303 3.43927C16.753 2.98918 17.3635 2.73633 18 2.73633C18.6365 2.73633 19.247 2.98918 19.6971 3.43927C20.1472 3.88936 20.4 4.49981 20.4 5.13633V8.73633C20.4 9.37285 20.1472 9.9833 19.6971 10.4334C19.247 10.8835 18.6365 11.1363 18 11.1363C17.3635 11.1363 16.753 10.8835 16.303 10.4334C15.8529 9.9833 15.6 9.37285 15.6 8.73633V7.53633H13.698C13.6085 7.7897 13.4635 8.01982 13.2735 8.20982C13.0835 8.39982 12.8534 8.54487 12.6 8.63433V16.0383C13.1112 16.2195 13.5168 16.6251 13.698 17.1363H15.6V15.9363C15.6 15.2998 15.8529 14.6894 16.303 14.2393C16.753 13.7892 17.3635 13.5363 18 13.5363C18.6365 13.5363 19.247 13.7892 19.6971 14.2393C20.1472 14.6894 20.4 15.2998 20.4 15.9363V19.5363C20.4 20.1728 20.1472 20.7833 19.6971 21.2334C19.247 21.6835 18.6365 21.9363 18 21.9363C17.3635 21.9363 16.753 21.6835 16.303 21.2334C15.8529 20.7833 15.6 20.1728 15.6 19.5363V18.3363H13.698C13.5743 18.6879 13.3445 18.9925 13.0404 19.2079C12.7362 19.4233 12.3727 19.539 12 19.539C11.6273 19.539 11.2638 19.4233 10.9596 19.2079C10.6555 18.9925 10.4257 18.6879 10.302 18.3363H8.40001V19.5363C8.40001 20.1728 8.14715 20.7833 7.69706 21.2334C7.24698 21.6835 6.63653 21.9363 6.00001 21.9363C5.36349 21.9363 4.75304 21.6835 4.30295 21.2334C3.85286 20.7833 3.60001 20.1728 3.60001 19.5363V15.9363C3.60001 15.2998 3.85286 14.6894 4.30295 14.2393C4.75304 13.7892 5.36349 13.5363 6.00001 13.5363C6.63653 13.5363 7.24698 13.7892 7.69706 14.2393C8.14715 14.6894 8.40001 15.2998 8.40001 15.9363V17.1363H10.302C10.4832 16.6251 10.8888 16.2195 11.4 16.0383V8.63433C11.1466 8.54487 10.9165 8.39982 10.7265 8.20982C10.5365 8.01982 10.3915 7.7897 10.302 7.53633H8.40001V8.73633C8.40001 9.37285 8.14715 9.9833 7.69706 10.4334C7.24698 10.8835 6.63653 11.1363 6.00001 11.1363C5.36349 11.1363 4.75304 10.8835 4.30295 10.4334C3.85286 9.9833 3.60001 9.37285 3.60001 8.73633V5.13633ZM6.00001 3.93633C5.68175 3.93633 5.37652 4.06276 5.15148 4.2878C4.92643 4.51284 4.80001 4.81807 4.80001 5.13633V8.73633C4.80001 9.05459 4.92643 9.35981 5.15148 9.58486C5.37652 9.8099 5.68175 9.93633 6.00001 9.93633C6.31827 9.93633 6.62349 9.8099 6.84853 9.58486C7.07358 9.35981 7.20001 9.05459 7.20001 8.73633V5.13633C7.20001 4.81807 7.07358 4.51284 6.84853 4.2878C6.62349 4.06276 6.31827 3.93633 6.00001 3.93633ZM18 3.93633C17.6817 3.93633 17.3765 4.06276 17.1515 4.2878C16.9264 4.51284 16.8 4.81807 16.8 5.13633V8.73633C16.8 9.05459 16.9264 9.35981 17.1515 9.58486C17.3765 9.8099 17.6817 9.93633 18 9.93633C18.3183 9.93633 18.6235 9.8099 18.8485 9.58486C19.0736 9.35981 19.2 9.05459 19.2 8.73633V5.13633C19.2 4.81807 19.0736 4.51284 18.8485 4.2878C18.6235 4.06276 18.3183 3.93633 18 3.93633ZM6.00001 14.7363C5.68175 14.7363 5.37652 14.8628 5.15148 15.0878C4.92643 15.3128 4.80001 15.6181 4.80001 15.9363V19.5363C4.80001 19.8546 4.92643 20.1598 5.15148 20.3849C5.37652 20.6099 5.68175 20.7363 6.00001 20.7363C6.31827 20.7363 6.62349 20.6099 6.84853 20.3849C7.07358 20.1598 7.20001 19.8546 7.20001 19.5363V15.9363C7.20001 15.6181 7.07358 15.3128 6.84853 15.0878C6.62349 14.8628 6.31827 14.7363 6.00001 14.7363ZM16.8 15.9363V19.5363C16.8 19.8546 16.9264 20.1598 17.1515 20.3849C17.3765 20.6099 17.6817 20.7363 18 20.7363C18.3183 20.7363 18.6235 20.6099 18.8485 20.3849C19.0736 20.1598 19.2 19.8546 19.2 19.5363V15.9363C19.2 15.6181 19.0736 15.3128 18.8485 15.0878C18.6235 14.8628 18.3183 14.7363 18 14.7363C17.6817 14.7363 17.3765 14.8628 17.1515 15.0878C16.9264 15.3128 16.8 15.6181 16.8 15.9363Z" fill="#7C7C7C"/>
</g>
</svg>
