<svg width="24" height="24" viewBox="0 0 24 24" fill="none" xmlns="http://www.w3.org/2000/svg">
<path d="M11.5 13V12.5H11H6C5.84287 12.5 5.73505 12.4523 5.64217 12.3591C5.54829 12.2649 5.50037 12.1559 5.5 11.9988C5.49964 11.8436 5.54677 11.736 5.64094 11.6422C5.73612 11.5473 5.84488 11.5 6 11.5H11H11.5V11V6C11.5 5.84287 11.5477 5.73505 11.6409 5.64217C11.7351 5.54829 11.8441 5.50037 12.0012 5.5C12.1564 5.49964 12.2647 5.54681 12.3595 5.64156C12.4541 5.73625 12.5007 5.84384 12.5 5.99764L12.5 5.99764V6V11V11.5H13H18C18.1572 11.5 18.2657 11.5478 18.3595 11.6416C18.4532 11.7353 18.5004 11.8431 18.5 11.9988C18.4996 12.1559 18.4517 12.2656 18.3572 12.3607C18.2648 12.4537 18.1582 12.5007 18.0024 12.5H18H13H12.5V13V18C12.5 18.1572 12.4522 18.2657 12.3584 18.3595C12.2647 18.4532 12.1569 18.5004 12.0012 18.5C11.8441 18.4996 11.7351 18.4517 11.6409 18.3578C11.5477 18.265 11.5 18.1571 11.5 18V13ZM13 6V10.5V11H13.5H18C18.2833 11 18.521 11.096 18.713 11.288C18.905 11.48 19.0007 11.7173 19 12C18.9993 12.2827 18.9033 12.5203 18.712 12.713C18.5207 12.9057 18.2833 13.0013 18 13H13.5H13V13.5V18C13 18.2833 12.904 18.521 12.712 18.713C12.52 18.905 12.2827 19.0007 12 19C11.7173 18.9993 11.48 18.9033 11.288 18.712C11.096 18.5207 11 18.2833 11 18V13.5V13H10.5L13 6Z" fill="#FFD585" stroke="#191919"/>
</svg>
