<svg width="24" height="24" viewBox="0 0 24 24" fill="none" xmlns="http://www.w3.org/2000/svg">
<mask id="path-1-inside-1_2011_1195" fill="white">
<path d="M5.57088 7.88696C5.28438 5.99996 6.61488 4.30496 8.64738 3.68396C9.00807 3.57443 9.39691 3.60617 9.73507 3.77274C10.0732 3.93931 10.3354 4.22825 10.4684 4.58096L11.1209 6.32096C11.2259 6.60088 11.2449 6.9058 11.1754 7.1966C11.1059 7.48739 10.9511 7.75078 10.7309 7.95296L8.78988 9.73046C8.69408 9.81817 8.6227 9.92926 8.58274 10.0528C8.54277 10.1764 8.53558 10.3083 8.56188 10.4355L8.57988 10.5135L8.62638 10.7085C8.86837 11.6557 9.23614 12.5663 9.71988 13.416C10.2481 14.3181 10.9027 15.1399 11.6639 15.8565L11.7239 15.9105C11.8208 15.9965 11.9383 16.0559 12.065 16.083C12.1917 16.1101 12.3233 16.1039 12.4469 16.065L14.9564 15.2745C15.2416 15.1849 15.547 15.1826 15.8335 15.2679C16.12 15.3531 16.3745 15.5221 16.5644 15.753L17.7524 17.1945C18.2474 17.7945 18.1874 18.6765 17.6189 19.206C16.0634 20.6565 13.9244 20.9535 12.4364 19.758C10.6117 18.2875 9.07391 16.4929 7.90038 14.4645C6.71536 12.4387 5.92594 10.2069 5.57088 7.88696ZM10.1339 10.5345L11.7419 9.05846C12.1826 8.65427 12.4925 8.12756 12.6318 7.54597C12.771 6.96438 12.7333 6.35444 12.5234 5.79446L11.8724 4.05446C11.6053 3.34462 11.078 2.76305 10.3977 2.42789C9.71735 2.09274 8.93493 2.02912 8.20938 2.24996C5.68488 3.02246 3.65838 5.28596 4.08738 8.11346C4.38738 10.0875 5.07888 12.5985 6.60438 15.2205C7.87055 17.4076 9.5293 19.3425 11.4974 20.928C13.7294 22.7205 16.7084 22.1085 18.6434 20.3055C19.197 19.7899 19.5331 19.0826 19.583 18.3277C19.6329 17.5728 19.3929 16.8274 18.9119 16.2435L17.7239 14.8005C17.3438 14.3392 16.8347 14.0019 16.2617 13.832C15.6887 13.662 15.078 13.667 14.5079 13.8465L12.4244 14.502C11.8864 13.9473 11.4152 13.3317 11.0204 12.6675C10.6394 11.9958 10.3422 11.28 10.1354 10.536"/>
</mask>
<path d="M5.57088 7.88696C5.28438 5.99996 6.61488 4.30496 8.64738 3.68396C9.00807 3.57443 9.39691 3.60617 9.73507 3.77274C10.0732 3.93931 10.3354 4.22825 10.4684 4.58096L11.1209 6.32096C11.2259 6.60088 11.2449 6.9058 11.1754 7.1966C11.1059 7.48739 10.9511 7.75078 10.7309 7.95296L8.78988 9.73046C8.69408 9.81817 8.6227 9.92926 8.58274 10.0528C8.54277 10.1764 8.53558 10.3083 8.56188 10.4355L8.57988 10.5135L8.62638 10.7085C8.86837 11.6557 9.23614 12.5663 9.71988 13.416C10.2481 14.3181 10.9027 15.1399 11.6639 15.8565L11.7239 15.9105C11.8208 15.9965 11.9383 16.0559 12.065 16.083C12.1917 16.1101 12.3233 16.1039 12.4469 16.065L14.9564 15.2745C15.2416 15.1849 15.547 15.1826 15.8335 15.2679C16.12 15.3531 16.3745 15.5221 16.5644 15.753L17.7524 17.1945C18.2474 17.7945 18.1874 18.6765 17.6189 19.206C16.0634 20.6565 13.9244 20.9535 12.4364 19.758C10.6117 18.2875 9.07391 16.4929 7.90038 14.4645C6.71536 12.4387 5.92594 10.2069 5.57088 7.88696ZM10.1339 10.5345L11.7419 9.05846C12.1826 8.65427 12.4925 8.12756 12.6318 7.54597C12.771 6.96438 12.7333 6.35444 12.5234 5.79446L11.8724 4.05446C11.6053 3.34462 11.078 2.76305 10.3977 2.42789C9.71735 2.09274 8.93493 2.02912 8.20938 2.24996C5.68488 3.02246 3.65838 5.28596 4.08738 8.11346C4.38738 10.0875 5.07888 12.5985 6.60438 15.2205C7.87055 17.4076 9.5293 19.3425 11.4974 20.928C13.7294 22.7205 16.7084 22.1085 18.6434 20.3055C19.197 19.7899 19.5331 19.0826 19.583 18.3277C19.6329 17.5728 19.3929 16.8274 18.9119 16.2435L17.7239 14.8005C17.3438 14.3392 16.8347 14.0019 16.2617 13.832C15.6887 13.662 15.078 13.667 14.5079 13.8465L12.4244 14.502C11.8864 13.9473 11.4152 13.3317 11.0204 12.6675C10.6394 11.9958 10.3422 11.28 10.1354 10.536" fill="#FFD585"/>
<path d="M5.57088 7.88696L4.08787 8.11212L4.08814 8.1139L5.57088 7.88696ZM8.64738 3.68396L8.21152 2.24868L8.20907 2.24943L8.64738 3.68396ZM10.4684 4.58096L11.8729 4.05428L11.8719 4.05174L10.4684 4.58096ZM11.1209 6.32096L9.71638 6.84765L9.7165 6.84796L11.1209 6.32096ZM10.7309 7.95296L11.7439 9.05919L11.7453 9.05797L10.7309 7.95296ZM8.78988 9.73046L9.80282 10.8368L9.80292 10.8367L8.78988 9.73046ZM8.56188 10.4355L7.09294 10.7391L7.09642 10.756L7.10029 10.7727L8.56188 10.4355ZM8.57988 10.5135L7.11825 10.8507L7.12079 10.8614L8.57988 10.5135ZM8.62638 10.7085L7.16729 11.0564L7.17008 11.0681L7.17305 11.0797L8.62638 10.7085ZM9.71988 13.416L8.41634 14.1581L8.42084 14.166L8.42542 14.1738L9.71988 13.416ZM11.6639 15.8565L10.6357 16.9487L10.6479 16.9602L10.6604 16.9714L11.6639 15.8565ZM11.7239 15.9105L10.7204 17.0254L10.7281 17.0323L11.7239 15.9105ZM12.4469 16.065L12.8971 17.4958L12.8976 17.4957L12.4469 16.065ZM14.9564 15.2745L14.507 13.8433L14.5057 13.8438L14.9564 15.2745ZM16.5644 15.753L15.4057 16.7056L15.4068 16.7069L16.5644 15.753ZM17.7524 17.1945L16.5948 18.1484L16.5953 18.149L17.7524 17.1945ZM17.6189 19.206L16.5965 18.1083L16.5959 18.1089L17.6189 19.206ZM12.4364 19.758L11.4952 20.9259L11.4969 20.9273L12.4364 19.758ZM7.90038 14.4645L9.19877 13.7133L9.19513 13.7071L7.90038 14.4645ZM11.7419 9.05846L10.7281 7.95294L10.7275 7.95342L11.7419 9.05846ZM12.5234 5.79446L11.1185 6.32009L11.1188 6.32094L12.5234 5.79446ZM11.8724 4.05446L13.2773 3.52884L13.2763 3.52625L11.8724 4.05446ZM8.20938 2.24996L7.77259 0.814962L7.77046 0.815613L8.20938 2.24996ZM4.08738 8.11346L2.60435 8.33847L2.6044 8.33884L4.08738 8.11346ZM6.60438 15.2205L7.90254 14.4689L7.9009 14.4661L6.60438 15.2205ZM11.4974 20.928L10.5564 22.0961L10.5581 22.0975L11.4974 20.928ZM18.6434 20.3055L17.6212 19.2077L17.6208 19.208L18.6434 20.3055ZM18.9119 16.2435L17.7538 17.1969L17.7541 17.1972L18.9119 16.2435ZM17.7239 14.8005L18.8819 13.8471L18.8816 13.8466L17.7239 14.8005ZM14.5079 13.8465L14.958 15.2773L14.9582 15.2773L14.5079 13.8465ZM12.4244 14.502L11.3477 15.5464L11.9919 16.2105L12.8745 15.9328L12.4244 14.502ZM11.0204 12.6675L9.71565 13.4075L9.72317 13.4208L9.73097 13.4339L11.0204 12.6675ZM7.05388 7.6618C6.9093 6.70952 7.55382 5.58653 9.08568 5.1185L8.20907 2.24943C5.67594 3.02339 3.65945 5.2904 4.08787 8.11212L7.05388 7.6618ZM9.08323 5.11924C9.07959 5.12035 9.07566 5.12003 9.07224 5.11835L10.3979 2.42713C9.71817 2.09231 8.93655 2.02851 8.21152 2.24868L9.08323 5.11924ZM9.07224 5.11835C9.06883 5.11666 9.06618 5.11374 9.06484 5.11018L11.8719 4.05174C11.6046 3.34275 11.0776 2.76196 10.3979 2.42713L9.07224 5.11835ZM9.06388 5.10765L9.71638 6.84765L12.5254 5.79428L11.8729 4.05428L9.06388 5.10765ZM9.7165 6.84796V6.84796L12.6343 7.54523C12.7733 6.96365 12.7353 6.35381 12.5253 5.79397L9.7165 6.84796ZM9.7165 6.84796L11.7453 9.05797C12.1858 8.6536 12.4954 8.12682 12.6343 7.54523L9.7165 6.84796ZM9.71783 6.84673L7.77683 8.62423L9.80292 10.8367L11.7439 9.05919L9.71783 6.84673ZM7.77694 8.62414C7.48955 8.88727 7.27542 9.22052 7.15552 9.59127L10.01 10.5144C9.96999 10.638 9.89861 10.7491 9.80282 10.8368L7.77694 8.62414ZM7.15552 9.59127C7.03562 9.96202 7.01405 10.3576 7.09294 10.7391L10.0308 10.1318C10.0571 10.259 10.0499 10.3908 10.01 10.5144L7.15552 9.59127ZM7.10029 10.7727L7.11829 10.8507L10.0415 10.1762L10.0235 10.0982L7.10029 10.7727ZM7.12079 10.8614L7.16729 11.0564L10.0855 10.3605L10.039 10.1655L7.12079 10.8614ZM7.17305 11.0797C7.44819 12.1568 7.86634 13.1921 8.41634 14.1581L11.0234 12.6738C10.6059 11.9406 10.2885 11.1547 10.0797 10.3372L7.17305 11.0797ZM8.42542 14.1738C9.02596 15.1996 9.77028 16.134 10.6357 16.9487L12.692 14.7643C12.0351 14.1459 11.4702 13.4366 11.0143 12.6581L8.42542 14.1738ZM10.6604 16.9714L10.7204 17.0254L12.7273 14.7955L12.6673 14.7415L10.6604 16.9714ZM10.7281 17.0323C11.0188 17.2903 11.3714 17.4686 11.7516 17.5499L12.3785 14.6161C12.5052 14.6432 12.6227 14.7026 12.7196 14.7886L10.7281 17.0323ZM11.7516 17.5499C12.1317 17.6311 12.5264 17.6125 12.8971 17.4958L11.9966 14.6341C12.1202 14.5952 12.2518 14.589 12.3785 14.6161L11.7516 17.5499ZM12.8976 17.4957L15.4071 16.7052L14.5057 13.8438L11.9962 14.6343L12.8976 17.4957ZM15.4057 16.7056H15.4057L16.2613 13.8302C15.6883 13.6597 15.0774 13.6643 14.507 13.8433L15.4057 16.7056ZM15.4057 16.7056L15.4057 16.7056L17.723 14.8003C17.3434 14.3385 16.8344 14.0007 16.2613 13.8302L15.4057 16.7056ZM15.4068 16.7069L16.5948 18.1484L18.9099 16.2405L17.7219 14.799L15.4068 16.7069ZM16.5953 18.149C16.5939 18.1473 16.5911 18.1428 16.5893 18.1371C16.5878 18.1323 16.5876 18.1288 16.5878 18.1266C16.5879 18.1244 16.5885 18.1213 16.5903 18.1175C16.5925 18.1129 16.5953 18.1094 16.5965 18.1083L18.6412 20.3036C19.7879 19.2356 19.9115 17.4545 18.9094 16.2399L16.5953 18.149ZM16.5959 18.1089C15.4268 19.1991 14.128 19.1929 13.3759 18.5886L11.4969 20.9273C13.7207 22.714 16.6999 22.1138 18.6419 20.303L16.5959 18.1089ZM13.3776 18.59C11.6965 17.2353 10.2799 15.5821 9.19875 13.7133L6.602 15.2156C7.86794 17.4038 9.52676 19.3397 11.4952 20.9259L13.3776 18.59ZM9.19513 13.7071C8.10599 11.8452 7.38014 9.79347 7.05361 7.66003L4.08814 8.1139C4.47175 10.6203 5.32474 13.0321 6.60563 15.2218L9.19513 13.7071ZM11.1482 11.6395L12.7562 10.1635L10.7275 7.95342L9.11954 9.42941L11.1482 11.6395ZM12.7557 10.164C13.4168 9.55769 13.8817 8.76763 14.0905 7.89525L11.173 7.1967C11.1034 7.48749 10.9484 7.75085 10.7281 7.95294L12.7557 10.164ZM14.0905 7.89525C14.2994 7.02286 14.2428 6.10795 13.9279 5.26798L11.1188 6.32094C11.2238 6.60094 11.2426 6.90591 11.173 7.1967L14.0905 7.89525ZM13.9283 5.26884L13.2773 3.52884L10.4675 4.58009L11.1185 6.32009L13.9283 5.26884ZM13.2763 3.52625C12.875 2.4597 12.0828 1.58589 11.0606 1.08231L9.73482 3.77348C10.0733 3.94022 10.3356 4.22954 10.4685 4.58268L13.2763 3.52625ZM11.0606 1.08231C10.0383 0.57873 8.86275 0.483142 7.77259 0.814964L8.64616 3.68496C9.00712 3.57509 9.39636 3.60674 9.73482 3.77348L11.0606 1.08231ZM7.77046 0.815613C4.76257 1.73603 2.03139 4.56215 2.60435 8.33847L5.5704 7.88845C5.28536 6.00978 6.60718 4.30889 8.64829 3.68431L7.77046 0.815613ZM2.6044 8.33884C2.92735 10.4638 3.67097 13.1614 5.30785 15.9748L7.9009 14.4661C6.48678 12.0356 5.84741 9.71113 5.57035 7.88809L2.6044 8.33884ZM5.30621 15.972C6.6648 18.3188 8.44463 20.3949 10.5564 22.0961L12.4384 19.7598C10.614 18.2901 9.07629 16.4965 7.90254 14.469L5.30621 15.972ZM10.5581 22.0975C13.5369 24.4897 17.3572 23.5541 19.6659 21.4029L17.6208 19.208C16.0596 20.6628 13.9219 20.9512 12.4366 19.7584L10.5581 22.0975ZM19.6655 21.4033C20.4988 20.6274 21.0047 19.5627 21.0798 18.4266L18.0863 18.2288C18.0616 18.6024 17.8952 18.9525 17.6212 19.2077L19.6655 21.4033ZM21.0798 18.4266C21.1549 17.2905 20.7936 16.1686 20.0696 15.2898L17.7541 17.1972C17.9922 17.4862 18.111 17.8551 18.0863 18.2288L21.0798 18.4266ZM20.0699 15.2901L18.8819 13.8471L16.5658 15.7539L17.7538 17.1969L20.0699 15.2901ZM18.8816 13.8466C18.3115 13.1547 17.5478 12.6489 16.6883 12.3939L15.8351 15.27C16.1216 15.355 16.3762 15.5236 16.5662 15.7543L18.8816 13.8466ZM16.6883 12.3939C15.8288 12.1389 14.9127 12.1465 14.0576 12.4157L14.9582 15.2773C15.2432 15.1876 15.5486 15.185 15.8351 15.27L16.6883 12.3939ZM14.0577 12.4156L11.9742 13.0711L12.8745 15.9328L14.958 15.2773L14.0577 12.4156ZM13.5011 13.4576C13.0446 12.987 12.6448 12.4646 12.3098 11.901L9.73097 13.4339C10.1856 14.1987 10.7282 14.9077 11.3477 15.5464L13.5011 13.4576ZM12.3251 11.9274C12.0046 11.3623 11.7546 10.7601 11.5806 10.1342L8.69017 10.9377C8.9298 11.7998 9.2742 12.6292 9.71565 13.4075L12.3251 11.9274Z" fill="#191919" mask="url(#path-1-inside-1_2011_1195)"/>
</svg>
