<svg width="24" height="24" viewBox="0 0 24 24" fill="none" xmlns="http://www.w3.org/2000/svg">
<mask id="path-1-inside-1_2011_7112" fill="white">
<path fill-rule="evenodd" clip-rule="evenodd" d="M12.5942 23.2579L12.5822 23.2599L12.5112 23.2949L12.4912 23.2989L12.4772 23.2949L12.4062 23.2589C12.3955 23.2563 12.3875 23.2583 12.3822 23.2649L12.3782 23.2749L12.3612 23.7029L12.3662 23.7229L12.3762 23.7359L12.4802 23.8099L12.4952 23.8139L12.5072 23.8099L12.6112 23.7359L12.6232 23.7199L12.6272 23.7029L12.6102 23.2759C12.6075 23.2653 12.6022 23.2593 12.5942 23.2579ZM12.8582 23.1449L12.8442 23.1469L12.6602 23.2399L12.6502 23.2499L12.6472 23.2609L12.6652 23.6909L12.6702 23.7029L12.6782 23.7109L12.8792 23.8029C12.8918 23.8063 12.9015 23.8036 12.9082 23.7949L12.9122 23.7809L12.8782 23.1669C12.8748 23.1543 12.8682 23.1469 12.8582 23.1449ZM12.1432 23.1469C12.1388 23.1443 12.1335 23.1434 12.1285 23.1445C12.1234 23.1456 12.119 23.1487 12.1162 23.1529L12.1102 23.1669L12.0762 23.7809C12.0768 23.7929 12.0825 23.8009 12.0932 23.8049L12.1082 23.8029L12.3092 23.7099L12.3192 23.7019L12.3222 23.6909L12.3402 23.2609L12.3372 23.2489L12.3272 23.2389L12.1432 23.1469Z"/>
</mask>
<path d="M12.5942 23.2579L12.7586 22.2715L12.5941 22.2441L12.4297 22.2716L12.5942 23.2579ZM12.5822 23.2599L12.4177 22.2736L12.2723 22.2978L12.14 22.363L12.5822 23.2599ZM12.5112 23.2949L12.7073 24.2755L12.8358 24.2498L12.9533 24.1919L12.5112 23.2949ZM12.4912 23.2989L12.2165 24.2605L12.4496 24.3271L12.6873 24.2795L12.4912 23.2989ZM12.4772 23.2949L12.0249 24.1868L12.1104 24.2302L12.2025 24.2565L12.4772 23.2949ZM12.4062 23.2589L12.8584 22.367L12.758 22.3161L12.6487 22.2888L12.4062 23.2589ZM12.3822 23.2649L11.6013 22.6402L11.5087 22.756L11.4537 22.8936L12.3822 23.2649ZM12.3782 23.2749L11.4497 22.9036L11.3858 23.0633L11.379 23.2352L12.3782 23.2749ZM12.3612 23.7029L11.362 23.6632L11.3563 23.8064L11.391 23.9455L12.3612 23.7029ZM12.3662 23.7229L11.396 23.9655L11.4465 24.1675L11.5735 24.3326L12.3662 23.7229ZM12.3762 23.7359L11.5835 24.3456L11.6747 24.4641L11.7964 24.5507L12.3762 23.7359ZM12.4802 23.8099L11.9004 24.6247L12.0478 24.7296L12.2225 24.7762L12.4802 23.8099ZM12.4952 23.8139L12.2375 24.7802L12.5271 24.8574L12.8114 24.7626L12.4952 23.8139ZM12.5072 23.8099L12.8234 24.7586L12.9652 24.7114L13.0869 24.6247L12.5072 23.8099ZM12.6112 23.7359L13.1909 24.5507L13.3178 24.4605L13.4112 24.3359L12.6112 23.7359ZM12.6232 23.7199L13.4232 24.3199L13.5487 24.1526L13.5966 23.949L12.6232 23.7199ZM12.6272 23.7029L13.6006 23.932L13.6318 23.7993L13.6264 23.6632L12.6272 23.7029ZM12.6102 23.2759L13.6094 23.2362L13.6053 23.1333L13.5803 23.0334L12.6102 23.2759ZM12.8582 23.1449L13.0543 22.1644L12.8864 22.1308L12.7168 22.155L12.8582 23.1449ZM12.8442 23.1469L12.7028 22.157L12.5399 22.1802L12.3931 22.2545L12.8442 23.1469ZM12.6602 23.2399L12.2091 22.3475L12.0662 22.4197L11.9531 22.5328L12.6602 23.2399ZM12.6502 23.2499L11.9431 22.5428L11.7553 22.7306L11.6854 22.9869L12.6502 23.2499ZM12.6472 23.2609L11.6824 22.9979L11.6416 23.1476L11.648 23.3028L12.6472 23.2609ZM12.6652 23.6909L11.666 23.7328L11.6735 23.911L11.7421 24.0756L12.6652 23.6909ZM12.6702 23.7029L11.7471 24.0876L11.8232 24.2701L11.963 24.41L12.6702 23.7029ZM12.6782 23.7109L11.971 24.418L12.0983 24.5453L12.262 24.6202L12.6782 23.7109ZM12.8792 23.8029L12.463 24.7122L12.5413 24.7481L12.6247 24.77L12.8792 23.8029ZM12.9082 23.7949L13.7008 24.4046L13.8172 24.2533L13.8697 24.0696L12.9082 23.7949ZM12.9122 23.7809L13.8737 24.0556L13.92 23.8938L13.9106 23.7256L12.9122 23.7809ZM12.8782 23.1669L13.8766 23.1116L13.871 23.0105L13.8452 22.9124L12.8782 23.1669ZM12.1432 23.1469L11.6249 24.0021L11.6596 24.0232L11.696 24.0414L12.1432 23.1469ZM12.1162 23.1529L11.2845 22.5977L11.2333 22.6743L11.197 22.759L12.1162 23.1529ZM12.1102 23.1669L11.191 22.773L11.1215 22.9353L11.1117 23.1116L12.1102 23.1669ZM12.0762 23.7809L11.0777 23.7256L11.0746 23.781L11.0777 23.8364L12.0762 23.7809ZM12.0932 23.8049L11.742 24.7413L11.9768 24.8293L12.2254 24.7962L12.0932 23.8049ZM12.1082 23.8029L12.2404 24.7942L12.3906 24.7741L12.5281 24.7105L12.1082 23.8029ZM12.3092 23.7099L12.7291 24.6175L12.8391 24.5666L12.9338 24.4908L12.3092 23.7099ZM12.3192 23.7019L12.9438 24.4828L13.1982 24.2793L13.2839 23.965L12.3192 23.7019ZM12.3222 23.6909L13.2869 23.954L13.3166 23.8453L13.3213 23.7328L12.3222 23.6909ZM12.3402 23.2609L13.3393 23.3028L13.3453 23.1585L13.3103 23.0184L12.3402 23.2609ZM12.3372 23.2489L13.3073 23.0064L13.2401 22.7377L13.0443 22.5418L12.3372 23.2489ZM12.3272 23.2389L13.0343 22.5318L12.9195 22.4171L12.7744 22.3445L12.3272 23.2389ZM12.4297 22.2716L12.4177 22.2736L12.7466 24.2463L12.7586 24.2443L12.4297 22.2716ZM12.14 22.363L12.069 22.398L12.9533 24.1919L13.0243 24.1569L12.14 22.363ZM12.3151 22.3144L12.2951 22.3184L12.6873 24.2795L12.7073 24.2755L12.3151 22.3144ZM12.7659 22.3374L12.7519 22.3334L12.2025 24.2565L12.2165 24.2605L12.7659 22.3374ZM12.9294 22.403L12.8584 22.367L11.9539 24.1508L12.0249 24.1868L12.9294 22.403ZM12.6487 22.2888C12.5352 22.2604 12.3571 22.2364 12.1497 22.2883C11.9254 22.3443 11.7356 22.4724 11.6013 22.6402L13.163 23.8896C13.0341 24.0508 12.851 24.1745 12.6346 24.2286C12.4352 24.2784 12.2665 24.2548 12.1636 24.2291L12.6487 22.2888ZM11.4537 22.8936L11.4497 22.9036L13.3067 23.6463L13.3107 23.6363L11.4537 22.8936ZM11.379 23.2352L11.362 23.6632L13.3604 23.7426L13.3774 23.3146L11.379 23.2352ZM11.391 23.9455L11.396 23.9655L13.3363 23.4804L13.3313 23.4604L11.391 23.9455ZM11.5735 24.3326L11.5835 24.3456L13.1688 23.1262L13.1588 23.1132L11.5735 24.3326ZM11.7964 24.5507L11.9004 24.6247L13.0599 22.9951L12.9559 22.9211L11.7964 24.5507ZM12.2225 24.7762L12.2375 24.7802L12.7528 22.8477L12.7378 22.8437L12.2225 24.7762ZM12.8114 24.7626L12.8234 24.7586L12.191 22.8612L12.179 22.8652L12.8114 24.7626ZM13.0869 24.6247L13.1909 24.5507L12.0314 22.9211L11.9274 22.9951L13.0869 24.6247ZM13.4112 24.3359L13.4232 24.3199L11.8232 23.12L11.8112 23.136L13.4112 24.3359ZM13.5966 23.949L13.6006 23.932L11.6538 23.4739L11.6498 23.4909L13.5966 23.949ZM13.6264 23.6632L13.6094 23.2362L11.611 23.3157L11.628 23.7427L13.6264 23.6632ZM13.5803 23.0334C13.522 22.8003 13.3025 22.3622 12.7586 22.2715L12.4298 24.2443C12.2109 24.2079 12.0076 24.0975 11.8568 23.9278C11.72 23.774 11.6641 23.6147 11.64 23.5185L13.5803 23.0334ZM12.7168 22.155L12.7028 22.157L12.9855 24.1369L12.9995 24.1349L12.7168 22.155ZM12.3931 22.2545L12.2091 22.3475L13.1113 24.1324L13.2953 24.0394L12.3931 22.2545ZM11.9531 22.5328L11.9431 22.5428L13.3573 23.957L13.3673 23.947L11.9531 22.5328ZM11.6854 22.9869L11.6824 22.9979L13.6119 23.524L13.6149 23.513L11.6854 22.9869ZM11.648 23.3028L11.666 23.7328L13.6643 23.6491L13.6463 23.2191L11.648 23.3028ZM11.7421 24.0756L11.7471 24.0876L13.5932 23.3183L13.5882 23.3063L11.7421 24.0756ZM11.963 24.41L11.971 24.418L13.3853 23.0039L13.3773 22.9959L11.963 24.41ZM12.262 24.6202L12.463 24.7122L13.2954 22.8937L13.0944 22.8017L12.262 24.6202ZM12.6247 24.77C12.7508 24.8032 12.9424 24.828 13.1618 24.7674C13.3952 24.7031 13.5777 24.5647 13.7008 24.4046L12.1155 23.1852C12.232 23.0339 12.4063 22.9012 12.63 22.8394C12.8398 22.7816 13.0202 22.806 13.1337 22.8359L12.6247 24.77ZM13.8697 24.0696L13.8737 24.0556L11.9506 23.5062L11.9466 23.5202L13.8697 24.0696ZM13.9106 23.7256L13.8766 23.1116L11.8797 23.2222L11.9137 23.8362L13.9106 23.7256ZM13.8452 22.9124C13.7776 22.6554 13.5508 22.2637 13.0543 22.1644L12.6621 24.1255C12.4641 24.0859 12.2756 23.9839 12.1308 23.8246C11.9967 23.6772 11.9377 23.5226 11.9111 23.4214L13.8452 22.9124ZM12.6615 22.2917C12.4366 22.1555 12.1679 22.1114 11.9115 22.1683L12.3454 24.1207C12.0991 24.1754 11.8409 24.1331 11.6249 24.0021L12.6615 22.2917ZM11.9115 22.1683C11.6551 22.2253 11.4304 22.3791 11.2845 22.5977L12.9479 23.7081C12.8077 23.9182 12.5918 24.0659 12.3454 24.1207L11.9115 22.1683ZM11.197 22.759L11.191 22.773L13.0293 23.5609L13.0353 23.5469L11.197 22.759ZM11.1117 23.1116L11.0777 23.7256L13.0746 23.8362L13.1086 23.2222L11.1117 23.1116ZM11.0777 23.8364C11.0861 23.9878 11.1311 24.185 11.2649 24.374C11.4012 24.5664 11.5806 24.6807 11.742 24.7413L12.4443 22.8686C12.5951 22.9252 12.7663 23.0335 12.8969 23.2179C13.0251 23.3989 13.0669 23.5861 13.0746 23.7255L11.0777 23.8364ZM12.2254 24.7962L12.2404 24.7942L11.9759 22.8117L11.961 22.8137L12.2254 24.7962ZM12.5281 24.7105L12.7291 24.6175L11.8893 22.8024L11.6883 22.8954L12.5281 24.7105ZM12.9338 24.4908L12.9438 24.4828L11.6945 22.921L11.6845 22.929L12.9338 24.4908ZM13.2839 23.965L13.2869 23.954L11.3574 23.4279L11.3544 23.4389L13.2839 23.965ZM13.3213 23.7328L13.3393 23.3028L11.341 23.2191L11.323 23.6491L13.3213 23.7328ZM13.3103 23.0184L13.3073 23.0064L11.367 23.4915L11.37 23.5035L13.3103 23.0184ZM13.0443 22.5418L13.0343 22.5318L11.6201 23.946L11.6301 23.956L13.0443 22.5418ZM12.7744 22.3445L12.5904 22.2525L11.696 24.0414L11.88 24.1334L12.7744 22.3445Z" fill="#FFD585" mask="url(#path-1-inside-1_2011_7112)"/>
<path d="M2.5 7V6.99997C2.49996 6.3623 2.7436 5.74871 3.18107 5.28475C3.61688 4.82255 4.21224 4.54366 4.84612 4.50457L5.0071 4.5H19C19.6377 4.49996 20.2513 4.7436 20.7152 5.18107C21.1774 5.61688 21.4563 6.21223 21.4954 6.84611L21.5 7.00708V17C21.5 17.6377 21.2564 18.2513 20.8189 18.7152C20.3831 19.1774 19.7878 19.4563 19.1539 19.4954L18.9929 19.5H5C4.3623 19.5 3.74871 19.2564 3.28475 18.8189C2.82255 18.3831 2.54366 17.7878 2.50457 17.1539L2.5 16.9929V7ZM20.5 10V9.5H20H4H3.5V10V17V17.0001C3.50005 17.3675 3.63493 17.7221 3.87907 17.9966C4.12321 18.2712 4.45962 18.4466 4.8245 18.4896L4.83878 18.4912L4.85314 18.4921L4.97014 18.4991L4.98506 18.5H5H19H19.0001C19.3675 18.5 19.7221 18.3651 19.9966 18.1209C20.2712 17.8768 20.4466 17.5404 20.4896 17.1755L20.4912 17.1612L20.4921 17.1469L20.4991 17.0299L20.5 17.0149V17V10ZM16.1813 13.6465L16.1814 13.6465C16.2751 13.7403 16.3278 13.8674 16.3278 14C16.3278 14.1326 16.2751 14.2597 16.1814 14.3534C16.1814 14.3535 16.1814 14.3535 16.1814 14.3535L14.3534 16.1814L14.3534 16.1814L14.3474 16.1876C14.3012 16.2354 14.2461 16.2735 14.1851 16.2997C14.1241 16.3259 14.0584 16.3397 13.9921 16.3403C13.9257 16.3408 13.8598 16.3282 13.7984 16.3031C13.7369 16.2779 13.6811 16.2408 13.6342 16.1938C13.5872 16.1469 13.5501 16.0911 13.5249 16.0296C13.4998 15.9682 13.4872 15.9023 13.4877 15.8359C13.4883 15.7696 13.5021 15.7039 13.5283 15.6429C13.5545 15.5819 13.5926 15.5268 13.6404 15.4806L13.6404 15.4807L13.648 15.4731L13.768 15.3521L14.6131 14.5H13.413H9C8.86739 14.5 8.74022 14.4473 8.64645 14.3536C8.55268 14.2598 8.5 14.1326 8.5 14C8.5 13.8674 8.55268 13.7402 8.64645 13.6464C8.74022 13.5527 8.86739 13.5 9 13.5H13.414H14.6211L13.7676 12.6464L13.6466 12.5254L13.6464 12.5253C13.5526 12.4315 13.4998 12.3043 13.4998 12.1717C13.4998 12.039 13.5524 11.9118 13.6462 11.8179C13.74 11.7241 13.8672 11.6713 13.9998 11.6713C14.1324 11.6712 14.2597 11.7239 14.3535 11.8176C14.3535 11.8176 14.3535 11.8177 14.3536 11.8177L16.1813 13.6465ZM3.5 8V8.5H4H20H20.5V8V7C20.5 6.60218 20.342 6.22065 20.0607 5.93934C19.7794 5.65804 19.3978 5.5 19 5.5H5C4.60217 5.5 4.22064 5.65804 3.93934 5.93934C3.65804 6.22064 3.5 6.60217 3.5 7V8Z" fill="#FFD585" stroke="#FFD585"/>
</svg>
