<svg width="48" height="48" viewBox="0 0 48 48" fill="none" xmlns="http://www.w3.org/2000/svg">
<rect x="0.5" y="0.5" width="47" height="47" rx="23.5" fill="#191919"/>
<rect x="0.5" y="0.5" width="47" height="47" rx="23.5" stroke="#FFD585"/>
<path d="M24.0101 18.837L25.1008 20.9493L25.1893 21.1206L25.3801 21.1484L27.6554 21.479L25.999 22.9714L25.8315 23.1223L25.8862 23.341L26.425 25.4963L24.1838 24.2357L24 24.1322L23.8162 24.2357L21.575 25.4963L22.1138 23.341L22.1685 23.1223L22.001 22.9714L20.3475 21.4816L22.7025 21.1486L22.9 21.1206L22.9873 20.9412L24.0101 18.837Z" fill="#FFD585" stroke="#FFD585" stroke-width="0.75"/>
<path d="M22.875 28.875H16.5006H16.5V28.5C16.3029 28.5003 16.1077 28.4617 15.9256 28.3864C15.7435 28.3111 15.578 28.2007 15.4387 28.0613C15.2993 27.922 15.1889 27.7565 15.1136 27.5744C15.0383 27.3923 14.9997 27.1971 15 27L22.875 28.875ZM22.875 28.875V29.625H16.5C15.8038 29.625 15.1361 29.3484 14.6438 28.8562C14.1516 28.3639 13.875 27.6962 13.875 27V18C13.875 17.3038 14.1516 16.6361 14.6438 16.1438C15.1361 15.6516 15.8038 15.375 16.5 15.375H31.5C32.1962 15.375 32.8639 15.6516 33.3562 16.1438C33.8484 16.6361 34.125 17.3038 34.125 18V27C34.125 27.6962 33.8484 28.3639 33.3562 28.8562C32.8639 29.3484 32.1962 29.625 31.5 29.625H27.8738H27.6561L27.5482 29.8139L25.1631 33.9872L24.511 33.6116L27.2176 28.875H31.4994H22.875ZM14.625 18.0002V26.9998L16.5 16.5C16.3029 16.4997 16.1077 16.5383 15.9256 16.6136C15.7435 16.6889 15.578 16.7993 15.4387 16.9387C15.2993 17.078 15.1889 17.2435 15.1136 17.4256C15.0383 17.6077 14.9997 17.8029 15 18H14.625V18.0002ZM31.4998 16.125H16.5002L33 18C33.0003 17.8029 32.9617 17.6077 32.8864 17.4256C32.8111 17.2435 32.7007 17.078 32.5613 16.9387C32.422 16.7993 32.2565 16.6889 32.0744 16.6136C31.8923 16.5383 31.6971 16.4997 31.5 16.5V16.125H31.4998ZM33.375 26.9994V18.0006L31.5 28.5C31.6971 28.5003 31.8923 28.4617 32.0744 28.3864C32.2565 28.3111 32.422 28.2007 32.5613 28.0613C32.7007 27.922 32.8111 27.7565 32.8864 27.5744C32.9617 27.3923 33.0003 27.1971 33 27H33.375V26.9994Z" fill="#FFD585" stroke="#FFD585" stroke-width="0.75"/>
</svg>
