<svg width="40" height="39" viewBox="0 0 40 39" fill="none" xmlns="http://www.w3.org/2000/svg">
<g id="Group">
<path id="Vector" d="M36.5 31.752H3.5C2.39543 31.752 1.5 32.6474 1.5 33.752V35.752C1.5 36.8565 2.39543 37.752 3.5 37.752H36.5C37.6046 37.752 38.5 36.8565 38.5 35.752V33.752C38.5 32.6474 37.6046 31.752 36.5 31.752Z" stroke="#FFD585" stroke-width="1.5" stroke-linecap="round" stroke-linejoin="round"/>
<path id="Vector_2" d="M6.5 14.7475V31.7675M33.5 14.7475V31.7675M25 14.7475V31.7675M15 14.7475V31.7675M18.08 1.29952L2.54 9.79952C2.22527 9.97173 1.96265 10.2254 1.77967 10.534C1.59669 10.8426 1.5001 11.1948 1.5 11.5535V13.5475C1.5 13.8658 1.62643 14.171 1.85147 14.396C2.07652 14.6211 2.38174 14.7475 2.7 14.7475H37.3C37.6183 14.7475 37.9235 14.6211 38.1485 14.396C38.3736 14.171 38.5 13.8658 38.5 13.5475V11.5535C38.4999 11.1948 38.4033 10.8426 38.2203 10.534C38.0374 10.2254 37.7747 9.97173 37.46 9.79952L21.92 1.29952C21.3313 0.977417 20.671 0.808594 20 0.808594C19.329 0.808594 18.6687 0.977417 18.08 1.29952Z" stroke="#FFD585" stroke-width="1.5" stroke-linecap="round" stroke-linejoin="round"/>
</g>
</svg>
