<svg width="21" height="21" viewBox="0 0 21 21" fill="none" xmlns="http://www.w3.org/2000/svg">
<g id="Group">
<path id="Vector" d="M4.46114 2.60582C4.46114 3.09788 4.26567 3.56979 3.91773 3.91773C3.56979 4.26567 3.09788 4.46114 2.60582 4.46114C2.11375 4.46114 1.64184 4.26567 1.2939 3.91773C0.94596 3.56979 0.750488 3.09788 0.750488 2.60582C0.750488 2.11375 0.94596 1.64184 1.2939 1.2939C1.64184 0.94596 2.11375 0.750488 2.60582 0.750488C3.09788 0.750488 3.56979 0.94596 3.91773 1.2939C4.26567 1.64184 4.46114 2.11375 4.46114 2.60582ZM4.46114 17.4484C4.46114 17.9405 4.26567 18.4124 3.91773 18.7603C3.56979 19.1083 3.09788 19.3038 2.60582 19.3038C2.11375 19.3038 1.64184 19.1083 1.2939 18.7603C0.94596 18.4124 0.750488 17.9405 0.750488 17.4484C0.750488 16.9564 0.94596 16.4845 1.2939 16.1365C1.64184 15.7886 2.11375 15.5931 2.60582 15.5931C3.09788 15.5931 3.56979 15.7886 3.91773 16.1365C4.26567 16.4845 4.46114 16.9564 4.46114 17.4484ZM11.8825 17.4484C11.8825 17.9405 11.687 18.4124 11.339 18.7603C10.9911 19.1083 10.5192 19.3038 10.0271 19.3038C9.53506 19.3038 9.06315 19.1083 8.71521 18.7603C8.36727 18.4124 8.1718 17.9405 8.1718 17.4484C8.1718 16.9564 8.36727 16.4845 8.71521 16.1365C9.06315 15.7886 9.53506 15.5931 10.0271 15.5931C10.5192 15.5931 10.9911 15.7886 11.339 16.1365C11.687 16.4845 11.8825 16.9564 11.8825 17.4484ZM11.8825 2.60582C11.8825 3.09788 11.687 3.56979 11.339 3.91773C10.9911 4.26567 10.5192 4.46114 10.0271 4.46114C9.53506 4.46114 9.06315 4.26567 8.71521 3.91773C8.36727 3.56979 8.1718 3.09788 8.1718 2.60582C8.1718 2.11375 8.36727 1.64184 8.71521 1.2939C9.06315 0.94596 9.53506 0.750488 10.0271 0.750488C10.5192 0.750488 10.9911 0.94596 11.339 1.2939C11.687 1.64184 11.8825 2.11375 11.8825 2.60582ZM19.3038 2.60582C19.3038 3.09788 19.1083 3.56979 18.7603 3.91773C18.4124 4.26567 17.9405 4.46114 17.4484 4.46114C16.9564 4.46114 16.4845 4.26567 16.1365 3.91773C15.7886 3.56979 15.5931 3.09788 15.5931 2.60582C15.5931 2.11375 15.7886 1.64184 16.1365 1.2939C16.4845 0.94596 16.9564 0.750488 17.4484 0.750488C17.9405 0.750488 18.4124 0.94596 18.7603 1.2939C19.1083 1.64184 19.3038 2.11375 19.3038 2.60582Z" stroke="#FFD585" stroke-width="1.5"/>
<path id="Vector_2" d="M2.60583 4.46112V15.5931M10.0271 4.46112V15.5931M17.4485 4.46112V6.31645C17.4485 8.06602 17.4485 8.93988 16.9048 9.48349C16.3612 10.0271 15.4874 10.0271 13.7378 10.0271H2.60583" stroke="#FFD585" stroke-width="1.5" stroke-linecap="round"/>
<path id="Vector_3" d="M15.5931 12.8101V12.1144C15.4086 12.1144 15.2316 12.1877 15.1011 12.3182C14.9706 12.4486 14.8973 12.6256 14.8973 12.8101H15.5931ZM14.8973 19.3038C14.8973 19.4883 14.9706 19.6653 15.1011 19.7957C15.2316 19.9262 15.4086 19.9995 15.5931 19.9995C15.7776 19.9995 15.9546 19.9262 16.0851 19.7957C16.2155 19.6653 16.2888 19.4883 16.2888 19.3038H14.8973ZM18.71 19.6674C18.7578 19.7454 18.8204 19.8132 18.8944 19.8669C18.9683 19.9207 19.0522 19.9594 19.1411 19.9807C19.23 20.0021 19.3222 20.0057 19.4125 19.9914C19.5028 19.9772 19.5894 19.9452 19.6674 19.8975C19.7454 19.8497 19.8131 19.7871 19.8669 19.7131C19.9207 19.6392 19.9593 19.5553 19.9807 19.4664C20.0021 19.3776 20.0057 19.2853 19.9914 19.195C19.9771 19.1047 19.9452 19.0181 19.8974 18.9401L18.71 19.6674ZM15.5931 13.5059H17.7137V12.1144H15.5931V13.5059ZM16.2888 16.057V12.8101H14.8973V16.057H16.2888ZM18.608 14.4335C18.608 14.9595 18.1943 15.3612 17.7137 15.3612V16.7527C18.9893 16.7527 19.9995 15.7007 19.9995 14.4335H18.608ZM17.7137 13.5059C18.1943 13.5059 18.608 13.9076 18.608 14.4335H19.9995C19.9995 13.1664 18.9893 12.1144 17.7137 12.1144V13.5059ZM17.7137 15.3612H17.3158V16.7527H17.7137V15.3612ZM17.3158 15.3612H15.5931V16.7527H17.3158V15.3612ZM16.7221 16.4206L18.71 19.6674L19.8974 18.9401L17.9095 15.6933L16.7221 16.4206ZM14.8973 16.057V19.3038H16.2888V16.057H14.8973Z" fill="#FFD585"/>
</g>
</svg>
