<svg width="48" height="48" viewBox="0 0 48 48" fill="none" xmlns="http://www.w3.org/2000/svg">
<g id="broken_car_icon">
<path id="Vector" d="M22.452 4.852C22.6987 4.77751 22.9629 4.78443 23.2054 4.87174C23.4478 4.95906 23.6558 5.12212 23.7984 5.3368L27.9336 11.5384L34.1352 7.4032C34.3367 7.2693 34.5739 7.19941 34.8158 7.20272C35.0577 7.20602 35.2929 7.28236 35.4907 7.42171C35.6884 7.56106 35.8394 7.75693 35.9239 7.98362C36.0083 8.2103 36.0223 8.45723 35.964 8.692L33.936 16.8016H42C42.2376 16.8012 42.4701 16.8713 42.6678 17.0031C42.8655 17.135 43.0197 17.3226 43.1107 17.5421C43.2017 17.7616 43.2254 18.0032 43.179 18.2363C43.1325 18.4694 43.0178 18.6834 42.8496 18.8512L36.6816 25.0144L42.6648 29.0032C42.879 29.146 43.0416 29.354 43.1285 29.5963C43.2155 29.8386 43.2222 30.1025 43.1477 30.3489C43.0732 30.5954 42.9214 30.8113 42.7147 30.9649C42.508 31.1184 42.2575 31.2014 42 31.2016H34.8C34.4817 31.2016 34.1765 31.0752 33.9515 30.8501C33.7264 30.6251 33.6 30.3199 33.6 30.0016C33.6 29.6833 33.7264 29.3781 33.9515 29.1531C34.1765 28.928 34.4817 28.8016 34.8 28.8016H38.0376L34.1352 26.2C33.9872 26.1017 33.8628 25.9717 33.7711 25.8195C33.6794 25.6673 33.6227 25.4966 33.605 25.3198C33.5873 25.143 33.6092 24.9644 33.6689 24.7971C33.7286 24.6297 33.8248 24.4777 33.9504 24.352L39.1032 19.2016H32.4C32.2177 19.2015 32.0378 19.16 31.874 19.08C31.7102 19.0001 31.5668 18.8839 31.4546 18.7402C31.3424 18.5966 31.2644 18.4292 31.2265 18.2509C31.1886 18.0726 31.1919 17.8881 31.236 17.7112L32.8824 11.1208L28.2648 14.2C28 14.3762 27.676 14.44 27.3641 14.3774C27.0523 14.3149 26.778 14.1311 26.6016 13.8664L24 9.964V13.2016C24 13.5199 23.8736 13.8251 23.6485 14.0501C23.4235 14.2752 23.1182 14.4016 22.8 14.4016C22.4817 14.4016 22.1765 14.2752 21.9515 14.0501C21.7264 13.8251 21.6 13.5199 21.6 13.2016V6.0016C21.5997 5.74389 21.6825 5.49296 21.8359 5.28592C21.9893 5.07888 22.2054 4.92673 22.452 4.852ZM11.4 34.8016C11.8774 34.8016 12.3352 34.612 12.6728 34.2744C13.0103 33.9368 13.2 33.479 13.2 33.0016C13.2 32.5242 13.0103 32.0664 12.6728 31.7288C12.3352 31.3912 11.8774 31.2016 11.4 31.2016C10.9226 31.2016 10.4648 31.3912 10.1272 31.7288C9.78963 32.0664 9.59999 32.5242 9.59999 33.0016C9.59999 33.479 9.78963 33.9368 10.1272 34.2744C10.4648 34.612 10.9226 34.8016 11.4 34.8016ZM26.4 33.0016C26.4 33.479 26.2103 33.9368 25.8728 34.2744C25.5352 34.612 25.0774 34.8016 24.6 34.8016C24.1226 34.8016 23.6648 34.612 23.3272 34.2744C22.9896 33.9368 22.8 33.479 22.8 33.0016C22.8 32.5242 22.9896 32.0664 23.3272 31.7288C23.6648 31.3912 24.1226 31.2016 24.6 31.2016C25.0774 31.2016 25.5352 31.3912 25.8728 31.7288C26.2103 32.0664 26.4 32.5242 26.4 33.0016ZM28.8 26.4016C30.2568 27.496 31.2 29.2384 31.2 31.2016V40.8016C31.2 41.4381 30.9471 42.0486 30.497 42.4987C30.047 42.9487 29.4365 43.2016 28.8 43.2016C28.1635 43.2016 27.553 42.9487 27.1029 42.4987C26.6528 42.0486 26.4 41.4381 26.4 40.8016V39.6016H9.59999V40.8016C9.59999 41.4381 9.34713 42.0486 8.89704 42.4987C8.44696 42.9487 7.83651 43.2016 7.19999 43.2016C6.56347 43.2016 5.95302 42.9487 5.50293 42.4987C5.05284 42.0486 4.79999 41.4381 4.79999 40.8016V31.2016C4.79999 29.2384 5.74319 27.496 7.19999 26.4016H5.99999C5.68173 26.4016 5.3765 26.2752 5.15146 26.0501C4.92642 25.8251 4.79999 25.5199 4.79999 25.2016C4.79999 24.8833 4.92642 24.5781 5.15146 24.3531C5.3765 24.128 5.68173 24.0016 5.99999 24.0016H7.58399L7.91519 22.012C8.10203 20.8916 8.68013 19.8738 9.5467 19.1395C10.4133 18.4052 11.5121 18.002 12.648 18.0016H23.3472C24.4834 18.0015 25.5829 18.4044 26.45 19.1388C27.317 19.8731 27.8955 20.8912 28.0824 22.012L28.4136 24.0016H29.9976C30.3158 24.0016 30.6211 24.128 30.8461 24.3531C31.0712 24.5781 31.1976 24.8833 31.1976 25.2016C31.1976 25.5199 31.0712 25.8251 30.8461 26.0501C30.6211 26.2752 30.3158 26.4016 29.9976 26.4016H28.8ZM12.648 20.4016C12.0799 20.4019 11.5303 20.6036 11.097 20.971C10.6637 21.3384 10.3748 21.8476 10.2816 22.408L9.80159 25.2832C10.128 25.2288 10.4608 25.2016 10.8 25.2016H25.2C25.5408 25.2016 25.8728 25.2288 26.196 25.2832L25.716 22.408C25.6229 21.848 25.3343 21.3391 24.9015 20.9718C24.4687 20.6045 23.9197 20.4024 23.352 20.4016H12.648ZM7.19999 31.2016V37.2016H28.8V31.2016C28.8 30.2468 28.4207 29.3311 27.7456 28.656C27.0704 27.9809 26.1548 27.6016 25.2 27.6016H10.8C9.84521 27.6016 8.92953 27.9809 8.2544 28.656C7.57927 29.3311 7.19999 30.2468 7.19999 31.2016Z" fill="#FFD585"/>
</g>
</svg>
