<svg width="24" height="24" viewBox="0 0 24 24" fill="none" xmlns="http://www.w3.org/2000/svg">
<g id="call_icon">
<path id="Vector" d="M5.571 7.88745C5.2845 6.00045 6.615 4.30545 8.6475 3.68445C9.00819 3.57492 9.39704 3.60666 9.7352 3.77323C10.0734 3.9398 10.3355 4.22874 10.4685 4.58145L11.121 6.32145C11.226 6.60137 11.245 6.90629 11.1755 7.19708C11.1061 7.48787 10.9512 7.75127 10.731 7.95345L8.79 9.73095C8.6942 9.81866 8.62283 9.92975 8.58286 10.0533C8.54289 10.1769 8.53571 10.3088 8.562 10.4359L8.58 10.5139L8.6265 10.709C8.86849 11.6562 9.23626 12.5668 9.72 13.4165C10.2482 14.3186 10.9028 15.1404 11.664 15.8569L11.724 15.9109C11.8209 15.997 11.9384 16.0564 12.0651 16.0835C12.1918 16.1106 12.3234 16.1043 12.447 16.0654L14.9565 15.2749C15.2417 15.1854 15.5471 15.1831 15.8337 15.2684C16.1202 15.3536 16.3747 15.5225 16.5645 15.7534L17.7525 17.195C18.2475 17.7949 18.1875 18.6769 17.619 19.2064C16.0635 20.6569 13.9245 20.9539 12.4365 19.7584C10.6118 18.288 9.07403 16.4934 7.9005 14.4649C6.71549 12.4391 5.92607 10.2074 5.571 7.88745ZM10.134 10.5349L11.742 9.05895C12.1828 8.65475 12.4927 8.12805 12.6319 7.54646C12.7712 6.96487 12.7334 6.35493 12.5235 5.79495L11.8725 4.05495C11.6054 3.34511 11.0782 2.76354 10.3978 2.42838C9.71747 2.09322 8.93506 2.02961 8.2095 2.25045C5.685 3.02295 3.6585 5.28645 4.0875 8.11395C4.3875 10.0879 5.079 12.599 6.6045 15.221C7.87067 17.4081 9.52942 19.343 11.4975 20.9284C13.7295 22.7209 16.7085 22.1089 18.6435 20.3059C19.1972 19.7904 19.5332 19.0831 19.5831 18.3282C19.633 17.5733 19.393 16.8279 18.912 16.2439L17.724 14.8009C17.344 14.3397 16.8348 14.0024 16.2618 13.8324C15.6888 13.6625 15.0781 13.6675 14.508 13.8469L12.4245 14.5024C11.8865 13.9478 11.4153 13.3321 11.0205 12.6679C10.6395 11.9963 10.3423 11.2804 10.1355 10.5365" fill="#FFD585"/>
</g>
</svg>
