<svg width="22" height="16" viewBox="0 0 22 16" fill="none" xmlns="http://www.w3.org/2000/svg">
<g id="Group">
<path id="Vector" d="M8.007 13C8.007 13.5304 7.79629 14.0391 7.42122 14.4142C7.04614 14.7893 6.53744 15 6.007 15C5.47657 15 4.96786 14.7893 4.59279 14.4142C4.21772 14.0391 4.007 13.5304 4.007 13C4.007 12.4696 4.21772 11.9609 4.59279 11.5858C4.96786 11.2107 5.47657 11 6.007 11C6.53744 11 7.04614 11.2107 7.42122 11.5858C7.79629 11.9609 8.007 12.4696 8.007 13ZM18.007 13C18.007 13.5304 17.7963 14.0391 17.4212 14.4142C17.0461 14.7893 16.5374 15 16.007 15C15.4766 15 14.9679 14.7893 14.5928 14.4142C14.2177 14.0391 14.007 13.5304 14.007 13C14.007 12.4696 14.2177 11.9609 14.5928 11.5858C14.9679 11.2107 15.4766 11 16.007 11C16.5374 11 17.0461 11.2107 17.4212 11.5858C17.7963 11.9609 18.007 12.4696 18.007 13Z" stroke="#FFD585" stroke-width="1.5" stroke-linecap="round" stroke-linejoin="round"/>
<path id="Vector_2" d="M1.007 6H17.007M1.007 6C1.007 6.78 0.987004 9.04 1.011 11.26C1.047 11.98 1.167 12.58 4.009 13M1.007 6C1.223 4.26 2.162 2.2 2.642 1.42M8.007 6V1M13.997 13H8.002M1.022 1H11.24C11.24 1 11.78 1 12.26 1.048C13.159 1.132 13.914 1.54 14.67 2.56C15.47 3.64 16.084 5.008 16.9 5.74C18.255 6.956 20.833 6.58 20.977 9.16C21.013 10.48 21.013 11.92 20.953 12.16C20.856 12.867 20.311 12.982 19.633 13C19.045 13.016 18.336 12.972 17.991 13" stroke="#FFD585" stroke-width="1.5" stroke-linecap="round" stroke-linejoin="round"/>
</g>
</svg>
