<svg width="19" height="21" viewBox="0 0 19 21" fill="none" xmlns="http://www.w3.org/2000/svg">
<g id="Group">
<path id="Vector" d="M9 0C9.25488 0.000282707 9.50003 0.0978791 9.68537 0.272848C9.8707 0.447818 9.98223 0.686953 9.99717 0.941395C10.0121 1.19584 9.92933 1.44638 9.76574 1.64183C9.60215 1.83729 9.3701 1.9629 9.117 1.993L9 2H8V3H10.764C11.012 2.99999 11.2579 3.04611 11.489 3.136L11.659 3.211L14.894 4.829C15.2019 4.98277 15.465 5.21341 15.6577 5.49861C15.8504 5.78381 15.9662 6.11392 15.994 6.457L16 6.618V9H17V8C17.0003 7.74512 17.0979 7.49997 17.2728 7.31463C17.4478 7.1293 17.687 7.01776 17.9414 7.00283C18.1958 6.98789 18.4464 7.07067 18.6418 7.23426C18.8373 7.39785 18.9629 7.6299 18.993 7.883L19 8V12C18.9997 12.2549 18.9021 12.5 18.7272 12.6854C18.5522 12.8707 18.313 12.9822 18.0586 12.9972C17.8042 13.0121 17.5536 12.9293 17.3582 12.7657C17.1627 12.6021 17.0371 12.3701 17.007 12.117L17 12V11H16V12.5C16 12.7817 15.9405 13.0602 15.8254 13.3174C15.7103 13.5745 15.5421 13.8044 15.332 13.992L15.2 14.1L11.867 16.6C11.571 16.8218 11.2193 16.9571 10.851 16.991L10.667 17H2C1.49542 17.0002 1.00943 16.8096 0.639452 16.4665C0.269471 16.1234 0.0428434 15.6532 0.00500021 15.15L1.00268e-07 15V5C-0.000159579 4.49542 0.190406 4.00943 0.533497 3.63945C0.876588 3.26947 1.34684 3.04284 1.85 3.005L2 3H6V2H5C4.74512 1.99972 4.49997 1.90212 4.31463 1.72715C4.1293 1.55218 4.01777 1.31305 4.00283 1.05861C3.98789 0.804163 4.07067 0.553621 4.23426 0.358167C4.39786 0.162714 4.6299 0.0371036 4.883 0.00699997L5 0H9ZM10.764 5H2V15H10.667L14 12.5V6.618L10.764 5ZM6.643 6.986C6.77458 6.76802 6.98435 6.60845 7.22954 6.53981C7.47472 6.47118 7.73685 6.49865 7.96248 6.61663C8.18811 6.73461 8.36024 6.93421 8.44377 7.17473C8.5273 7.41525 8.51593 7.67857 8.412 7.911L8.357 8.015L7.767 9H8.982C9.728 9 10.203 9.773 9.902 10.427L9.848 10.53L8.358 13.015C8.22798 13.2364 8.0178 13.3992 7.77099 13.4699C7.52419 13.5406 7.25965 13.5136 7.03218 13.3946C6.8047 13.2756 6.63171 13.0737 6.54903 12.8306C6.46634 12.5876 6.48029 12.322 6.588 12.089L6.643 11.985L7.233 11H6.019C5.85008 11 5.68386 10.9577 5.53554 10.8768C5.38723 10.796 5.26155 10.6792 5.17002 10.5373C5.07849 10.3953 5.02403 10.2326 5.01163 10.0642C4.99922 9.89573 5.02926 9.72685 5.099 9.573L5.153 9.47L6.643 6.986Z" fill="#FFD585"/>
</g>
</svg>
