<svg width="24" height="24" viewBox="0 0 24 24" fill="none" xmlns="http://www.w3.org/2000/svg">
<g id="form_icon">
<path id="Vector" d="M5.14284 10.7143C5.14284 10.1459 5.3686 9.6009 5.77047 9.19904C6.17233 8.79718 6.71738 8.57141 7.2857 8.57141C7.85402 8.57141 8.39906 8.79718 8.80093 9.19904C9.20279 9.6009 9.42855 10.1459 9.42855 10.7143C9.42855 11.2826 9.20279 11.8276 8.80093 12.2295C8.39906 12.6314 7.85402 12.8571 7.2857 12.8571C6.71738 12.8571 6.17233 12.6314 5.77047 12.2295C5.3686 11.8276 5.14284 11.2826 5.14284 10.7143ZM7.2857 9.85713C7.05837 9.85713 6.84035 9.94743 6.67961 10.1082C6.51886 10.2689 6.42855 10.4869 6.42855 10.7143C6.42855 10.9416 6.51886 11.1596 6.67961 11.3204C6.84035 11.4811 7.05837 11.5714 7.2857 11.5714C7.51303 11.5714 7.73104 11.4811 7.89179 11.3204C8.05253 11.1596 8.14284 10.9416 8.14284 10.7143C8.14284 10.4869 8.05253 10.2689 7.89179 10.1082C7.73104 9.94743 7.51303 9.85713 7.2857 9.85713ZM7.2857 14.5714C6.71738 14.5714 6.17233 14.7972 5.77047 15.199C5.3686 15.6009 5.14284 16.1459 5.14284 16.7143C5.14284 17.2826 5.3686 17.8276 5.77047 18.2295C6.17233 18.6314 6.71738 18.8571 7.2857 18.8571C7.85402 18.8571 8.39906 18.6314 8.80093 18.2295C9.20279 17.8276 9.42855 17.2826 9.42855 16.7143C9.42855 16.1459 9.20279 15.6009 8.80093 15.199C8.39906 14.7972 7.85402 14.5714 7.2857 14.5714ZM6.42855 16.7143C6.42855 16.4869 6.51886 16.2689 6.67961 16.1082C6.84035 15.9474 7.05837 15.8571 7.2857 15.8571C7.51303 15.8571 7.73104 15.9474 7.89179 16.1082C8.05253 16.2689 8.14284 16.4869 8.14284 16.7143C8.14284 16.9416 8.05253 17.1596 7.89179 17.3204C7.73104 17.4811 7.51303 17.5714 7.2857 17.5714C7.05837 17.5714 6.84035 17.4811 6.67961 17.3204C6.51886 17.1596 6.42855 16.9416 6.42855 16.7143ZM11.1428 10.5C11.1428 10.3295 11.2106 10.166 11.3311 10.0454C11.4517 9.92486 11.6152 9.85713 11.7857 9.85713H18.2143C18.3848 9.85713 18.5483 9.92486 18.6688 10.0454C18.7894 10.166 18.8571 10.3295 18.8571 10.5C18.8571 10.6705 18.7894 10.834 18.6688 10.9546C18.5483 11.0751 18.3848 11.1428 18.2143 11.1428H11.7857C11.6152 11.1428 11.4517 11.0751 11.3311 10.9546C11.2106 10.834 11.1428 10.6705 11.1428 10.5ZM11.7857 15.8571C11.6152 15.8571 11.4517 15.9249 11.3311 16.0454C11.2106 16.166 11.1428 16.3295 11.1428 16.5C11.1428 16.6705 11.2106 16.834 11.3311 16.9546C11.4517 17.0751 11.6152 17.1428 11.7857 17.1428H18.2143C18.3848 17.1428 18.5483 17.0751 18.6688 16.9546C18.7894 16.834 18.8571 16.6705 18.8571 16.5C18.8571 16.3295 18.7894 16.166 18.6688 16.0454C18.5483 15.9249 18.3848 15.8571 18.2143 15.8571H11.7857ZM5.14284 6.21427C5.14284 6.04377 5.21057 5.88026 5.33113 5.7597C5.45169 5.63914 5.6152 5.57141 5.7857 5.57141H18.2143C18.3848 5.57141 18.5483 5.63914 18.6688 5.7597C18.7894 5.88026 18.8571 6.04377 18.8571 6.21427C18.8571 6.38476 18.7894 6.54828 18.6688 6.66884C18.5483 6.7894 18.3848 6.85713 18.2143 6.85713H5.7857C5.6152 6.85713 5.45169 6.7894 5.33113 6.66884C5.21057 6.54828 5.14284 6.38476 5.14284 6.21427ZM5.7857 2.57141C4.93322 2.57141 4.11565 2.91006 3.51285 3.51285C2.91006 4.11565 2.57141 4.93322 2.57141 5.7857V18.2143C2.57141 19.0667 2.91006 19.8843 3.51285 20.4871C4.11565 21.0899 4.93322 21.4286 5.7857 21.4286H18.2143C19.0667 21.4286 19.8843 21.0899 20.4871 20.4871C21.0899 19.8843 21.4286 19.0667 21.4286 18.2143V5.7857C21.4286 4.93322 21.0899 4.11565 20.4871 3.51285C19.8843 2.91006 19.0667 2.57141 18.2143 2.57141H5.7857ZM3.85713 5.7857C3.85713 5.27421 4.06031 4.78367 4.42199 4.42199C4.78367 4.06031 5.27421 3.85713 5.7857 3.85713H18.2143C18.7258 3.85713 19.2163 4.06031 19.578 4.42199C19.9397 4.78367 20.1428 5.27421 20.1428 5.7857V18.2143C20.1428 18.7258 19.9397 19.2163 19.578 19.578C19.2163 19.9397 18.7258 20.1428 18.2143 20.1428H5.7857C5.27421 20.1428 4.78367 19.9397 4.42199 19.578C4.06031 19.2163 3.85713 18.7258 3.85713 18.2143V5.7857Z" fill="#FFD585"/>
</g>
</svg>
