<svg width="24" height="24" viewBox="0 0 24 24" fill="none" xmlns="http://www.w3.org/2000/svg">
<g id="handshake_icon">
<path id="Vector" d="M11.702 19.942C11.8327 19.942 11.9667 19.9127 12.104 19.854C12.2413 19.7954 12.3523 19.7237 12.437 19.639L20.233 11.842C20.4843 11.5907 20.6783 11.334 20.815 11.072C20.951 10.8087 21.019 10.52 21.019 10.206C21.019 9.88802 20.951 9.57935 20.815 9.28002C20.6783 8.98002 20.4843 8.70669 20.233 8.46002L16.483 4.71002C16.2357 4.45868 15.9813 4.27435 15.72 4.15702C15.4593 4.03968 15.17 3.98102 14.852 3.98102C14.538 3.98102 14.2463 4.03968 13.977 4.15702C13.7077 4.27435 13.454 4.45835 13.216 4.70902L12.344 5.58102L14.194 7.43602C14.3927 7.63135 14.541 7.85335 14.639 8.10202C14.7363 8.35069 14.785 8.60302 14.785 8.85902C14.785 9.37968 14.6147 9.81035 14.274 10.151C13.9333 10.4917 13.503 10.6617 12.983 10.661C12.7263 10.661 12.476 10.622 12.232 10.544C11.988 10.466 11.7683 10.3294 11.573 10.134L9.66 8.22802L5.342 12.545C5.24133 12.6464 5.16566 12.7614 5.115 12.89C5.06433 13.0187 5.039 13.1487 5.039 13.28C5.039 13.516 5.11466 13.7104 5.266 13.863C5.41666 14.0164 5.61 14.093 5.846 14.093C5.97666 14.093 6.11066 14.0637 6.248 14.005C6.38533 13.9457 6.49633 13.8737 6.581 13.789L9.75 10.62L10.458 11.328L7.294 14.498C7.19266 14.5987 7.11666 14.7134 7.066 14.842C7.016 14.9714 6.991 15.1014 6.991 15.232C6.991 15.4554 7.06966 15.6457 7.227 15.803C7.38433 15.9604 7.57466 16.0394 7.798 16.04C7.92866 16.04 8.06266 16.0104 8.2 15.951C8.33733 15.8917 8.44833 15.82 8.533 15.736L11.933 12.342L12.641 13.049L9.246 16.449C9.15733 16.5337 9.08466 16.6447 9.028 16.782C8.97066 16.9194 8.942 17.0534 8.942 17.184C8.942 17.4067 9.021 17.5967 9.179 17.754C9.33633 17.9127 9.52666 17.992 9.75 17.992C9.88066 17.992 10.0107 17.9667 10.14 17.916C10.2693 17.8654 10.384 17.7894 10.484 17.688L13.884 14.293L14.592 15.001L11.192 18.401C11.0913 18.5024 11.0157 18.624 10.965 18.766C10.9143 18.908 10.889 19.0377 10.889 19.155C10.889 19.391 10.972 19.5814 11.138 19.726C11.304 19.8707 11.492 19.943 11.702 19.943M11.696 20.943C11.182 20.943 10.742 20.755 10.376 20.379C10.01 20.0023 9.84933 19.5377 9.894 18.985C9.32733 18.9917 8.85566 18.8227 8.479 18.478C8.10233 18.1327 7.92333 17.6514 7.942 17.034C7.32466 17.0407 6.838 16.864 6.482 16.504C6.126 16.144 5.964 15.67 5.996 15.082C5.44 15.0887 4.97466 14.932 4.6 14.612C4.226 14.2934 4.039 13.8494 4.039 13.28C4.039 13.0234 4.08866 12.7667 4.188 12.51C4.28733 12.2527 4.434 12.0267 4.628 11.832L9.66 6.80602L12.242 9.38802C12.3267 9.47668 12.4313 9.54969 12.556 9.60702C12.6807 9.66435 12.821 9.69269 12.977 9.69202C13.191 9.69202 13.38 9.61735 13.544 9.46802C13.708 9.31869 13.7903 9.12402 13.791 8.88402C13.791 8.72802 13.7623 8.58802 13.705 8.46402C13.6477 8.33935 13.575 8.23468 13.487 8.15002L10.047 4.71002C9.799 4.45868 9.54133 4.27435 9.274 4.15702C9.00666 4.03968 8.714 3.98102 8.396 3.98102C8.082 3.98102 7.79666 4.03968 7.54 4.15702C7.284 4.27435 7.03033 4.45868 6.779 4.71002L3.735 7.76002C3.52033 7.97335 3.347 8.22835 3.215 8.52502C3.083 8.82102 3.013 9.12669 3.005 9.44202C2.99833 9.66802 3.01766 9.88502 3.063 10.093C3.10833 10.301 3.18166 10.497 3.283 10.681L2.525 11.439C2.357 11.171 2.22566 10.8624 2.131 10.513C2.03633 10.1637 1.99266 9.80702 2 9.44302C2.008 8.98835 2.099 8.55335 2.273 8.13802C2.447 7.72268 2.69633 7.35235 3.021 7.02702L6.046 4.00202C6.39466 3.65668 6.76366 3.40002 7.153 3.23202C7.54233 3.06468 7.96333 2.98102 8.416 2.98102C8.86866 2.98102 9.286 3.06502 9.668 3.23302C10.0507 3.40035 10.4147 3.65668 10.76 4.00202L11.63 4.87302L12.502 4.00202C12.8507 3.65668 13.2163 3.40002 13.599 3.23202C13.9817 3.06468 14.3993 2.98102 14.852 2.98102C15.3047 2.98102 15.7257 3.06502 16.115 3.23302C16.5037 3.40035 16.8703 3.65668 17.215 4.00202L20.941 7.72702C21.2857 8.07168 21.5517 8.45868 21.739 8.88802C21.9263 9.31735 22.0197 9.75835 22.019 10.211C22.019 10.6644 21.9257 11.082 21.739 11.464C21.5523 11.846 21.2863 12.21 20.941 12.556L13.144 20.346C12.9367 20.554 12.7107 20.7054 12.466 20.8C12.222 20.8947 11.9653 20.942 11.696 20.942" fill="#FFD585"/>
</g>
</svg>
