<svg width="16" height="19" viewBox="0 0 16 19" fill="none" xmlns="http://www.w3.org/2000/svg">
<g id="Group">
<path id="Vector" d="M11.43 6.03536C10.7432 6.03536 10.2347 6.20857 9.83666 6.42737C9.77284 6.20047 9.56316 6.03434 9.316 6.08398H6.29337C5.99455 6.03434 5.75246 6.27644 5.84464 6.59045V17.7329C5.75246 18.0165 5.99455 18.2596 6.29337 18.2393H9.316C9.61482 18.2596 9.85692 18.0165 9.85692 17.7177L9.85591 10.9836C9.85489 10.9806 9.84375 10.6584 10.0474 10.4366C10.2104 10.2604 10.491 10.1702 10.879 10.1702C11.5252 10.1702 11.8129 10.4346 11.9203 11.0261V17.7177C11.8139 18.0165 12.056 18.2596 12.3548 18.2393H15.5406C15.8394 18.2596 16.0815 18.0165 15.9741 17.7177V10.8013C16.0805 7.28432 13.5754 6.03536 11.43 6.03536ZM14.9986 17.2264H12.8958V11.0261C12.8958 9.82986 12.1229 9.08838 10.88 9.08838C10.177 9.08838 9.63002 9.29502 9.2532 9.70222C8.72951 10.2695 8.77003 10.9887 8.88246 11.1487V17.2264H6.83428V7.11719H8.77509V7.45753C8.7743 7.55892 8.80213 7.65848 8.85538 7.74476C8.90863 7.83105 8.98514 7.90056 9.07612 7.94531C9.1671 7.99006 9.26886 8.00823 9.36971 7.99774C9.47056 7.98725 9.5664 7.94853 9.64623 7.88601L9.78804 7.77661C10.1983 7.45348 10.6227 7.1182 11.431 7.1182C12.2677 7.1182 14.9997 7.3846 14.9997 10.8023L14.9986 17.2264ZM2.80478 0.984802C1.66825 0.984802 0.744446 1.90861 0.744446 3.04514C0.744446 4.18166 1.66825 5.10547 2.80478 5.10547C3.94131 5.10547 4.86512 4.18166 4.86512 3.04514C4.86512 1.90861 3.94131 0.984802 2.80478 0.984802ZM2.80478 4.02364C2.26589 4.02364 1.82627 3.58402 1.82627 3.04514C1.82627 2.50625 2.26589 2.06663 2.80478 2.06663C3.34367 2.06663 3.78329 2.50625 3.78329 3.04514C3.78329 3.58402 3.34367 4.02364 2.80478 4.02364ZM4.25127 6.03434H1.24484C0.946023 6.03434 0.703928 6.27644 0.778886 6.59045V17.7329C0.703928 18.0165 0.946023 18.2596 1.24484 18.2393H4.25127C4.55009 18.2596 4.79218 18.0165 4.79218 17.7177V6.57526C4.79218 6.4318 4.73519 6.29421 4.63375 6.19277C4.53231 6.09133 4.39473 6.03434 4.25127 6.03434ZM3.81773 17.2264H1.78576V7.11719H3.81773V17.2264Z" fill="#FFD585"/>
</g>
</svg>
