<svg width="24" height="24" viewBox="0 0 24 24" fill="none" xmlns="http://www.w3.org/2000/svg">
<g id="law_icon">
<path id="Vector" d="M12.5866 4.6V6H14.1324C14.4071 6 14.6756 6.0848 14.9026 6.2424L16.2309 7.1656C16.2637 7.188 16.3003 7.19947 16.3404 7.2H19.5511C19.7068 7.2 19.8561 7.26321 19.9662 7.37574C20.0763 7.48826 20.1381 7.64087 20.1381 7.8C20.1381 7.95913 20.0763 8.11174 19.9662 8.22426C19.8561 8.33679 19.7068 8.4 19.5511 8.4H18.316L20.9506 14.544C21.0033 14.6669 21.0142 14.8042 20.9816 14.9341C20.9489 15.0641 20.8746 15.1791 20.7706 15.2608C20.6923 15.32 20.6114 15.3749 20.5279 15.4256C20.3298 15.5474 20.1231 15.6541 19.9096 15.7448C19.2016 16.0474 18.4415 16.2022 17.6742 16.2C16.907 16.2034 16.147 16.0489 15.4395 15.7456C15.226 15.6546 15.0193 15.5477 14.8212 15.4256C14.7379 15.3768 14.6577 15.3228 14.5809 15.264L14.577 15.2608C14.4729 15.1791 14.3986 15.0641 14.366 14.9341C14.3334 14.8042 14.3443 14.6669 14.397 14.544L17.0331 8.4H16.3396C16.0649 8.4 15.7965 8.3152 15.5695 8.1576L14.2412 7.2344C14.2089 7.21201 14.1707 7.20003 14.1316 7.2H12.5866V18.8H16.0986C16.2543 18.8 16.4036 18.8632 16.5137 18.9757C16.6238 19.0883 16.6856 19.2409 16.6856 19.4C16.6856 19.5591 16.6238 19.7117 16.5137 19.8243C16.4036 19.9368 16.2543 20 16.0986 20H7.9005C7.74481 20 7.5955 19.9368 7.48541 19.8243C7.37532 19.7117 7.31347 19.5591 7.31347 19.4C7.31347 19.2409 7.37532 19.0883 7.48541 18.9757C7.5955 18.8632 7.74481 18.8 7.9005 18.8H11.4125V7.2H9.86666C9.82759 7.20003 9.78943 7.21201 9.75708 7.2344L8.42961 8.1576C8.20263 8.3152 7.93416 8.4 7.65943 8.4H6.96595L9.60211 14.544C9.65313 14.6634 9.66476 14.7965 9.63525 14.9232C9.60574 15.0499 9.53669 15.1633 9.43852 15.2464C9.3759 15.2984 9.31329 15.3472 9.19588 15.4248C8.99805 15.556 8.79083 15.6718 8.57598 15.7712C7.86924 16.1 7.10143 16.2692 6.32491 16.2672C5.54839 16.2692 4.78059 16.1 4.07385 15.7712C3.85899 15.6718 3.65177 15.556 3.45394 15.4248C3.37063 15.3698 3.28992 15.3108 3.21209 15.248C3.11449 15.1642 3.04584 15.0505 3.01625 14.9237C2.98665 14.797 2.99769 14.6639 3.04772 14.544L5.68309 8.4H4.44876C4.29307 8.4 4.14376 8.33679 4.03367 8.22426C3.92358 8.11174 3.86173 7.95913 3.86173 7.8C3.86173 7.64087 3.92358 7.48826 4.03367 7.37574C4.14376 7.26321 4.29307 7.2 4.44876 7.2H7.65943C7.69908 7.2 7.73587 7.18853 7.76979 7.1656L9.09648 6.2424C9.32346 6.084 9.59271 6 9.86744 6H11.4125V4.6C11.4125 4.44087 11.4744 4.28826 11.5844 4.17574C11.6945 4.06321 11.8438 4 11.9995 4C12.1552 4 12.3045 4.06321 12.4146 4.17574C12.5247 4.28826 12.5866 4.44087 12.5866 4.6ZM4.32353 14.5584C4.93939 14.894 5.62698 15.0686 6.32491 15.0664C7.02284 15.0686 7.71043 14.894 8.32629 14.5584L6.32491 9.8944L4.32353 14.5584ZM15.6806 14.5392C15.7448 14.5712 15.8165 14.6048 15.8959 14.64C16.3107 14.8184 16.9173 15 17.6742 15C18.3642 15.0019 19.0457 14.8444 19.6677 14.5392L17.6742 9.8936L15.6806 14.5392Z" fill="#FFD585"/>
</g>
</svg>
