<svg width="19" height="18" viewBox="0 0 19 18" fill="none" xmlns="http://www.w3.org/2000/svg">
<g id="Group 19">
<path id="Vector" d="M3.41181 3.48749H12.4118V4.38749H3.41181V3.48749ZM3.41181 7.98748H7.96017V8.88748H3.41181V7.98748ZM12.0619 5.73748H3.41181V6.63748H11.1625L12.0619 5.73748ZM6.10843 15.228C6.25967 15.4014 6.45161 15.5345 6.66702 15.6154C6.88242 15.6963 7.11455 15.7224 7.34255 15.6915H11.7323C11.8367 15.6915 11.9369 15.65 12.0107 15.5761C12.0846 15.5023 12.126 15.4021 12.126 15.2977C12.126 15.1933 12.0846 15.0931 12.0107 15.0193C11.9369 14.9454 11.8367 14.904 11.7323 14.904H7.34255C6.83011 14.895 6.92124 14.45 6.99324 14.3122C7.08691 14.1504 7.16003 13.9775 7.21092 13.7975C7.24486 13.6527 7.22915 13.5006 7.16632 13.3658C7.10348 13.2309 6.99716 13.1211 6.86443 13.0539C6.65147 12.9581 6.413 12.9346 6.18545 12.9871C5.95791 13.0396 5.75384 13.1652 5.60443 13.3447C5.41093 13.5444 5.14205 13.8498 4.88443 14.1468C5.04362 13.523 5.25005 12.7226 5.45255 11.9418C5.51058 11.7639 5.49903 11.5707 5.42022 11.4009C5.34142 11.2312 5.20122 11.0977 5.02787 11.0272C4.83589 10.9614 4.62608 10.9708 4.44077 11.0536C4.25546 11.1363 4.10846 11.2863 4.02943 11.4733C3.78643 11.9407 1.86269 15.1644 1.84356 15.197C1.81704 15.2414 1.79953 15.2906 1.79202 15.3418C1.78451 15.3929 1.78715 15.4451 1.79979 15.4952C1.82532 15.5965 1.89003 15.6835 1.97969 15.737C2.06935 15.7906 2.17661 15.8063 2.27788 15.7808C2.37915 15.7553 2.46613 15.6906 2.51969 15.6009C2.59169 15.48 4.12731 12.9077 4.61162 12.0487C4.24712 13.455 3.8455 15.0198 3.82187 15.1605C3.79537 15.2638 3.8034 15.3731 3.84473 15.4715C3.88606 15.5699 3.95843 15.6521 4.05081 15.7055C4.15377 15.7566 4.27081 15.7719 4.38346 15.7491C4.4961 15.7263 4.59795 15.6666 4.67293 15.5795C4.74381 15.5154 4.87656 15.363 5.21124 14.9743C5.52306 14.6075 5.84244 14.2473 6.16918 13.8937C6.2918 13.7643 6.36605 13.8217 6.29405 13.9488C6.15316 14.1268 6.06179 14.3388 6.02919 14.5634C5.9966 14.7881 6.02393 15.0173 6.10843 15.228Z" fill="#FFD585"/>
<path id="Vector_2" d="M14.6618 11.0784V16.875H1.1618V1.125H14.6618V3.93355L15.4099 3.18543C15.525 3.07183 15.6513 2.97007 15.7868 2.88168V0.562499C15.7868 0.413315 15.7275 0.270241 15.622 0.164752C15.5165 0.0592631 15.3735 0 15.2243 0H0.599303C0.450119 0 0.307045 0.0592631 0.201556 0.164752C0.0960673 0.270241 0.0368042 0.413315 0.0368042 0.562499V17.4375C0.0368042 17.5866 0.0960673 17.7297 0.201556 17.8352C0.307045 17.9407 0.450119 18 0.599303 18H15.2243C15.3735 18 15.5165 17.9407 15.622 17.8352C15.7275 17.7297 15.7868 17.5866 15.7868 17.4375V10.9277C15.4419 11.111 15.0427 11.1645 14.6618 11.0784Z" fill="#FFD585"/>
<path id="Vector_3" d="M18.1088 5.54683L17.8146 5.25265C17.9648 5.05387 18.0407 4.80888 18.0294 4.56002C18.0181 4.31116 17.9203 4.07407 17.7527 3.88971C17.535 3.69781 17.2503 3.59971 16.9605 3.61677C16.6708 3.63384 16.3996 3.7647 16.2059 3.98084L9.16057 11.025L8.68975 12.7924C8.6823 12.8155 8.6814 12.8402 8.68714 12.8638C8.69288 12.8875 8.70504 12.909 8.72228 12.9261C8.73952 12.9433 8.76116 12.9553 8.7848 12.9609C8.80845 12.9664 8.83318 12.9654 8.85625 12.9578L10.6174 12.4813L17.1942 5.90458L17.472 6.18302C17.4915 6.20236 17.507 6.22537 17.5175 6.25071C17.5281 6.27605 17.5335 6.30323 17.5335 6.33068C17.5335 6.35812 17.5281 6.3853 17.5175 6.41064C17.507 6.43598 17.4915 6.45899 17.472 6.47833L14.7062 9.24414C14.6219 9.32858 14.5745 9.44307 14.5746 9.56243C14.5746 9.68179 14.6221 9.79624 14.7065 9.88061C14.791 9.96497 14.9055 10.0123 15.0248 10.0123C15.1442 10.0122 15.2586 9.96476 15.343 9.88032L18.1088 7.11452C18.2119 7.0116 18.2936 6.88937 18.3494 6.75482C18.4052 6.62027 18.4339 6.47605 18.4339 6.33039C18.4339 6.18474 18.4052 6.04051 18.3494 5.90597C18.2936 5.77142 18.2119 5.64919 18.1088 5.54627" fill="#FFD585"/>
</g>
</svg>
