<svg width="90" height="90" viewBox="0 0 90 90" fill="none" xmlns="http://www.w3.org/2000/svg">
<g id="iconoir:search" clip-path="url(#clip0_62_1007)" filter="url(#filter0_d_62_1007)">
<g id="Vector" filter="url(#filter1_d_62_1007)">
<path d="M50 50L54 54M36 44C36 46.1217 36.8429 48.1566 38.3431 49.6569C39.8434 51.1571 41.8783 52 44 52C46.1217 52 48.1566 51.1571 49.6569 49.6569C51.1571 48.1566 52 46.1217 52 44C52 41.8783 51.1571 39.8434 49.6569 38.3431C48.1566 36.8429 46.1217 36 44 36C41.8783 36 39.8434 36.8429 38.3431 38.3431C36.8429 39.8434 36 41.8783 36 44Z" stroke="#FFD585" stroke-width="1.5" stroke-linecap="round" stroke-linejoin="round" shape-rendering="crispEdges"/>
</g>
</g>
<defs>
<filter id="filter0_d_62_1007" x="-2" y="-2" width="94" height="94" filterUnits="userSpaceOnUse" color-interpolation-filters="sRGB">
<feFlood flood-opacity="0" result="BackgroundImageFix"/>
<feColorMatrix in="SourceAlpha" type="matrix" values="0 0 0 0 0 0 0 0 0 0 0 0 0 0 0 0 0 0 127 0" result="hardAlpha"/>
<feMorphology radius="10" operator="dilate" in="SourceAlpha" result="effect1_dropShadow_62_1007"/>
<feOffset/>
<feGaussianBlur stdDeviation="12.5"/>
<feComposite in2="hardAlpha" operator="out"/>
<feColorMatrix type="matrix" values="0 0 0 0 1 0 0 0 0 0.835294 0 0 0 0 0.521569 0 0 0 0.4 0"/>
<feBlend mode="normal" in2="BackgroundImageFix" result="effect1_dropShadow_62_1007"/>
<feBlend mode="normal" in="SourceGraphic" in2="effect1_dropShadow_62_1007" result="shape"/>
</filter>
<filter id="filter1_d_62_1007" x="0.25" y="0.25" width="89.5" height="89.5" filterUnits="userSpaceOnUse" color-interpolation-filters="sRGB">
<feFlood flood-opacity="0" result="BackgroundImageFix"/>
<feColorMatrix in="SourceAlpha" type="matrix" values="0 0 0 0 0 0 0 0 0 0 0 0 0 0 0 0 0 0 127 0" result="hardAlpha"/>
<feMorphology radius="10" operator="dilate" in="SourceAlpha" result="effect1_dropShadow_62_1007"/>
<feOffset/>
<feGaussianBlur stdDeviation="12.5"/>
<feComposite in2="hardAlpha" operator="out"/>
<feColorMatrix type="matrix" values="0 0 0 0 1 0 0 0 0 0.835294 0 0 0 0 0.521569 0 0 0 0.4 0"/>
<feBlend mode="normal" in2="BackgroundImageFix" result="effect1_dropShadow_62_1007"/>
<feBlend mode="normal" in="SourceGraphic" in2="effect1_dropShadow_62_1007" result="shape"/>
</filter>
<clipPath id="clip0_62_1007">
<rect width="24" height="24" fill="white" transform="translate(33 33)"/>
</clipPath>
</defs>
</svg>
