<svg width="92" height="92" viewBox="0 0 92 92" fill="none" xmlns="http://www.w3.org/2000/svg">
<g id="solar:money-bag-outline" filter="url(#filter0_d_62_1020)">
<path id="Vector" fill-rule="evenodd" clip-rule="evenodd" d="M45.948 35.25H46.052C46.951 35.25 47.7 35.25 48.294 35.33C48.922 35.414 49.489 35.6 49.944 36.055C50.4 36.511 50.586 37.078 50.67 37.705C50.73 38.145 50.745 38.669 50.749 39.275C51.397 39.296 51.975 39.335 52.489 39.403C53.661 39.561 54.61 39.893 55.359 40.641C56.107 41.39 56.439 42.339 56.597 43.511C56.75 44.651 56.75 46.106 56.75 47.944V48.056C56.75 49.894 56.75 51.35 56.597 52.489C56.439 53.661 56.107 54.61 55.359 55.359C54.61 56.107 53.661 56.439 52.489 56.597C51.349 56.75 49.894 56.75 48.056 56.75H43.944C42.106 56.75 40.65 56.75 39.511 56.597C38.339 56.439 37.39 56.107 36.641 55.359C35.893 54.61 35.561 53.661 35.403 52.489C35.25 51.349 35.25 49.894 35.25 48.056V47.944C35.25 46.106 35.25 44.65 35.403 43.511C35.561 42.339 35.893 41.39 36.641 40.641C37.39 39.893 38.339 39.561 39.511 39.403C40.0886 39.3322 40.6693 39.2895 41.251 39.275C41.255 38.669 41.271 38.145 41.33 37.705C41.414 37.078 41.6 36.511 42.055 36.055C42.511 35.6 43.078 35.415 43.705 35.33C44.3 35.25 45.05 35.25 45.948 35.25ZM42.752 39.252C43.13 39.25 43.5273 39.2493 43.944 39.25H48.056C48.4727 39.25 48.87 39.2507 49.248 39.252C49.244 38.682 49.23 38.252 49.184 37.905C49.121 37.444 49.014 37.246 48.884 37.116C48.754 36.986 48.556 36.879 48.094 36.816C47.612 36.752 46.964 36.75 46 36.75C45.036 36.75 44.388 36.752 43.905 36.817C43.444 36.879 43.246 36.986 43.116 37.117C42.986 37.248 42.879 37.444 42.816 37.905C42.77 38.251 42.756 38.681 42.752 39.252ZM39.71 40.89C38.704 41.025 38.124 41.279 37.7 41.702C37.278 42.125 37.024 42.705 36.889 43.711C36.751 44.738 36.749 46.093 36.749 48C36.749 49.907 36.751 51.262 36.889 52.29C37.024 53.295 37.278 53.875 37.701 54.298C38.124 54.721 38.704 54.975 39.71 55.11C40.738 55.248 42.092 55.25 43.999 55.25H47.999C49.906 55.25 51.261 55.248 52.289 55.11C53.294 54.975 53.874 54.721 54.297 54.298C54.72 53.875 54.974 53.295 55.109 52.289C55.247 51.262 55.249 49.907 55.249 48C55.249 46.093 55.247 44.739 55.109 43.71C54.974 42.705 54.72 42.125 54.297 41.702C53.874 41.279 53.294 41.025 52.288 40.89C51.261 40.752 49.906 40.75 47.999 40.75H43.999C42.092 40.75 40.739 40.752 39.71 40.89ZM46 43.25C46.1989 43.25 46.3897 43.329 46.5303 43.4697C46.671 43.6103 46.75 43.8011 46.75 44V44.01C47.839 44.284 48.75 45.143 48.75 46.333C48.75 46.5319 48.671 46.7227 48.5303 46.8633C48.3897 47.004 48.1989 47.083 48 47.083C47.8011 47.083 47.6103 47.004 47.4697 46.8633C47.329 46.7227 47.25 46.5319 47.25 46.333C47.25 45.949 46.824 45.417 46 45.417C45.176 45.417 44.75 45.949 44.75 46.333C44.75 46.717 45.176 47.25 46 47.25C47.385 47.25 48.75 48.21 48.75 49.667C48.75 50.857 47.839 51.715 46.75 51.99V52C46.75 52.1989 46.671 52.3897 46.5303 52.5303C46.3897 52.671 46.1989 52.75 46 52.75C45.8011 52.75 45.6103 52.671 45.4697 52.5303C45.329 52.3897 45.25 52.1989 45.25 52V51.99C44.161 51.716 43.25 50.857 43.25 49.667C43.25 49.4681 43.329 49.2773 43.4697 49.1367C43.6103 48.996 43.8011 48.917 44 48.917C44.1989 48.917 44.3897 48.996 44.5303 49.1367C44.671 49.2773 44.75 49.4681 44.75 49.667C44.75 50.051 45.176 50.583 46 50.583C46.824 50.583 47.25 50.051 47.25 49.667C47.25 49.283 46.824 48.75 46 48.75C44.615 48.75 43.25 47.79 43.25 46.333C43.25 45.143 44.161 44.284 45.25 44.01V44C45.25 43.8011 45.329 43.6103 45.4697 43.4697C45.6103 43.329 45.8011 43.25 46 43.25Z" fill="#FFD585"/>
</g>
<defs>
<filter id="filter0_d_62_1020" x="-1" y="-1" width="94" height="94" filterUnits="userSpaceOnUse" color-interpolation-filters="sRGB">
<feFlood flood-opacity="0" result="BackgroundImageFix"/>
<feColorMatrix in="SourceAlpha" type="matrix" values="0 0 0 0 0 0 0 0 0 0 0 0 0 0 0 0 0 0 127 0" result="hardAlpha"/>
<feMorphology radius="10" operator="dilate" in="SourceAlpha" result="effect1_dropShadow_62_1020"/>
<feOffset/>
<feGaussianBlur stdDeviation="12.5"/>
<feComposite in2="hardAlpha" operator="out"/>
<feColorMatrix type="matrix" values="0 0 0 0 1 0 0 0 0 0.835294 0 0 0 0 0.521569 0 0 0 0.4 0"/>
<feBlend mode="normal" in2="BackgroundImageFix" result="effect1_dropShadow_62_1020"/>
<feBlend mode="normal" in="SourceGraphic" in2="effect1_dropShadow_62_1020" result="shape"/>
</filter>
</defs>
</svg>
