<svg width="24" height="24" viewBox="0 0 24 24" fill="none" xmlns="http://www.w3.org/2000/svg">
<g id="fluent:arrow-up-48-regular">
<path id="Vector" d="M2.88329 12.3835C2.88329 12.0385 3.16329 11.7585 3.50829 11.7585L19.7313 11.7585L13.3203 5.45346C13.2591 5.39659 13.2099 5.32801 13.1756 5.25179C13.1414 5.17557 13.1228 5.09326 13.1209 5.00972C13.119 4.92619 13.1339 4.84312 13.1646 4.76543C13.1954 4.68774 13.2415 4.61702 13.3 4.55743C13.3586 4.49785 13.4286 4.45061 13.5057 4.41852C13.5829 4.38644 13.6657 4.37015 13.7492 4.37061C13.8328 4.37108 13.9154 4.3883 13.9922 4.42126C14.069 4.45421 14.1384 4.50222 14.1963 4.56246L21.6903 11.932L21.7038 11.945C21.7686 12.0108 21.818 12.0902 21.8484 12.1775C21.8789 12.2647 21.8896 12.3576 21.8798 12.4495C21.8639 12.5998 21.7941 12.7392 21.6833 12.842L14.1963 20.204C14.1384 20.2642 14.069 20.3122 13.9922 20.3452C13.9154 20.3781 13.8328 20.3953 13.7492 20.3958C13.6657 20.3963 13.5829 20.38 13.5057 20.3479C13.4286 20.3158 13.3586 20.2686 13.3 20.209C13.2415 20.1494 13.1954 20.0787 13.1646 20.001C13.1339 19.9233 13.119 19.8402 13.1209 19.7567C13.1228 19.6732 13.1414 19.5909 13.1756 19.5146C13.2099 19.4384 13.2591 19.3698 13.3203 19.313L19.7313 13.008L3.50829 13.008C3.16329 13.008 2.88329 12.729 2.88329 12.3835Z" fill="#FFD585"/>
</g>
</svg>
