<svg width="24" height="24" viewBox="0 0 24 24" fill="none" xmlns="http://www.w3.org/2000/svg">
<g id="arrow_down_big_icon">
<path id="Vector" d="M20.3143 5.26648L12.4343 19.2745C12.3907 19.3514 12.3275 19.4154 12.251 19.46C12.1746 19.5045 12.0878 19.528 11.9993 19.528C11.9109 19.528 11.824 19.5045 11.7476 19.46C11.6712 19.4154 11.6079 19.3514 11.5643 19.2745L3.6843 5.26648C3.63418 5.17667 3.61297 5.0736 3.62357 4.9713C3.63416 4.869 3.67604 4.77246 3.7435 4.69483C3.81096 4.6172 3.90072 4.56226 4.00054 4.53751C4.10036 4.51275 4.20539 4.51937 4.30131 4.55648L11.8183 7.47848C11.9347 7.5237 12.0639 7.5237 12.1803 7.47848L19.6973 4.55548C19.7933 4.51816 19.8986 4.51142 19.9986 4.53618C20.0986 4.56094 20.1885 4.616 20.2561 4.69382C20.3236 4.77164 20.3654 4.86842 20.3759 4.97093C20.3863 5.07343 20.3648 5.17666 20.3143 5.26648Z" stroke="#FFD585" stroke-width="1.5" stroke-linecap="round" stroke-linejoin="round"/>
</g>
</svg>
