<svg width="48" height="48" viewBox="0 0 48 48" fill="none" xmlns="http://www.w3.org/2000/svg">
<g id="handshake_icon">
<path id="Vector" d="M23.404 39.8849C23.6653 39.8849 23.9333 39.8262 24.208 39.7089C24.4827 39.5916 24.7047 39.4482 24.874 39.2789L40.466 23.6849C40.9687 23.1822 41.3567 22.6689 41.63 22.1449C41.902 21.6182 42.038 21.0409 42.038 20.4129C42.038 19.7769 41.902 19.1596 41.63 18.5609C41.3567 17.9609 40.9687 17.4142 40.466 16.9209L32.966 9.42089C32.4713 8.91822 31.9627 8.54956 31.44 8.31489C30.9187 8.08022 30.34 7.96289 29.704 7.96289C29.076 7.96289 28.4927 8.08022 27.954 8.31489C27.4153 8.54956 26.908 8.91756 26.432 9.41889L24.688 11.1629L28.388 14.8729C28.7853 15.2636 29.082 15.7076 29.278 16.2049C29.4727 16.7022 29.57 17.2069 29.57 17.7189C29.57 18.7602 29.2293 19.6216 28.548 20.3029C27.8667 20.9842 27.006 21.3242 25.966 21.3229C25.4527 21.3229 24.952 21.2449 24.464 21.0889C23.976 20.9329 23.5367 20.6596 23.146 20.2689L19.32 16.4569L10.684 25.0909C10.4827 25.2936 10.3313 25.5236 10.23 25.7809C10.1287 26.0382 10.078 26.2982 10.078 26.5609C10.078 27.0329 10.2293 27.4216 10.532 27.7269C10.8333 28.0336 11.22 28.1869 11.692 28.1869C11.9533 28.1869 12.2213 28.1282 12.496 28.0109C12.7707 27.8922 12.9927 27.7482 13.162 27.5789L19.5 21.2409L20.916 22.6569L14.588 28.9969C14.3853 29.1982 14.2333 29.4276 14.132 29.6849C14.032 29.9436 13.982 30.2036 13.982 30.4649C13.982 30.9116 14.1393 31.2922 14.454 31.6069C14.7687 31.9216 15.1493 32.0796 15.596 32.0809C15.8573 32.0809 16.1253 32.0216 16.4 31.9029C16.6747 31.7842 16.8967 31.6409 17.066 31.4729L23.866 24.6849L25.282 26.0989L18.492 32.8989C18.3147 33.0682 18.1693 33.2902 18.056 33.5649C17.9413 33.8396 17.884 34.1076 17.884 34.3689C17.884 34.8142 18.042 35.1942 18.358 35.5089C18.6727 35.8262 19.0533 35.9849 19.5 35.9849C19.7613 35.9849 20.0213 35.9342 20.28 35.8329C20.5387 35.7316 20.768 35.5796 20.968 35.3769L27.768 28.5869L29.184 30.0029L22.384 36.8029C22.1827 37.0056 22.0313 37.2489 21.93 37.5329C21.8287 37.8169 21.778 38.0762 21.778 38.3109C21.778 38.7829 21.944 39.1636 22.276 39.4529C22.608 39.7422 22.984 39.8869 23.404 39.8869M23.392 41.8869C22.364 41.8869 21.484 41.5109 20.752 40.7589C20.02 40.0056 19.6987 39.0762 19.788 37.9709C18.6547 37.9842 17.7113 37.6462 16.958 36.9569C16.2047 36.2662 15.8467 35.3036 15.884 34.0689C14.6493 34.0822 13.676 33.7289 12.964 33.0089C12.252 32.2889 11.928 31.3409 11.992 30.1649C10.88 30.1782 9.94933 29.8649 9.19999 29.2249C8.45199 28.5876 8.07799 27.6996 8.07799 26.5609C8.07799 26.0476 8.17733 25.5342 8.376 25.0209C8.57466 24.5062 8.86799 24.0542 9.25599 23.6649L19.32 13.6129L24.484 18.7769C24.6533 18.9542 24.8627 19.1002 25.112 19.2149C25.3613 19.3296 25.642 19.3862 25.954 19.3849C26.382 19.3849 26.76 19.2356 27.088 18.9369C27.416 18.6382 27.5807 18.2489 27.582 17.7689C27.582 17.4569 27.5247 17.1769 27.41 16.9289C27.2953 16.6796 27.15 16.4702 26.974 16.3009L20.094 9.42089C19.598 8.91822 19.0827 8.54956 18.548 8.31489C18.0133 8.08022 17.428 7.96289 16.792 7.96289C16.164 7.96289 15.5933 8.08022 15.08 8.31489C14.568 8.54956 14.0607 8.91822 13.558 9.42089L7.46999 15.5209C7.04066 15.9476 6.69399 16.4576 6.42999 17.0509C6.16599 17.6429 6.026 18.2542 6.00999 18.8849C5.99666 19.3369 6.03533 19.7709 6.12599 20.1869C6.21666 20.6029 6.36333 20.9949 6.56599 21.3629L5.04999 22.8789C4.71399 22.3429 4.45133 21.7256 4.26199 21.0269C4.07266 20.3282 3.98533 19.6149 3.99999 18.8869C4.01599 17.9776 4.19799 17.1076 4.54599 16.2769C4.89399 15.4462 5.39266 14.7056 6.04199 14.0549L12.092 8.00489C12.7893 7.31422 13.5273 6.80089 14.306 6.46489C15.0847 6.13022 15.9267 5.96289 16.832 5.96289C17.7373 5.96289 18.572 6.13089 19.336 6.46689C20.1013 6.80156 20.8293 7.31422 21.52 8.00489L23.26 9.74689L25.004 8.00489C25.7013 7.31422 26.4327 6.80089 27.198 6.46489C27.9633 6.13022 28.7987 5.96289 29.704 5.96289C30.6093 5.96289 31.4513 6.13089 32.23 6.46689C33.0073 6.80156 33.7407 7.31422 34.43 8.00489L41.882 15.4549C42.5713 16.1442 43.1033 16.9182 43.478 17.7769C43.8527 18.6356 44.0393 19.5176 44.038 20.4229C44.038 21.3296 43.8513 22.1649 43.478 22.9289C43.1047 23.6929 42.5727 24.4209 41.882 25.1129L26.288 40.6929C25.8733 41.1089 25.4213 41.4116 24.932 41.6009C24.444 41.7902 23.9307 41.8849 23.392 41.8849" fill="#FFD585"/>
</g>
</svg>
