<svg width="37" height="36" viewBox="0 0 37 36" fill="none" xmlns="http://www.w3.org/2000/svg">
<g id="Group 19">
<path id="Vector" d="M6.82356 6.97461H24.8235V8.77461H6.82356V6.97461ZM6.82356 15.9746H15.9203V17.7746H6.82356V15.9746ZM24.1238 11.4746H6.82356V13.2746H22.3249L24.1238 11.4746ZM12.2168 30.4556C12.5193 30.8024 12.9032 31.0686 13.334 31.2304C13.7648 31.3922 14.229 31.4445 14.685 31.3826H23.4645C23.6734 31.3826 23.8737 31.2996 24.0214 31.1519C24.169 31.0042 24.252 30.8039 24.252 30.5951C24.252 30.3862 24.169 30.1859 24.0214 30.0382C23.8737 29.8905 23.6734 29.8076 23.4645 29.8076H14.685C13.6602 29.7896 13.8424 28.8997 13.9864 28.6241C14.1738 28.3004 14.32 27.9546 14.4218 27.5947C14.4897 27.305 14.4582 27.0009 14.3326 26.7312C14.2069 26.4615 13.9943 26.2418 13.7288 26.1074C13.3029 25.9158 12.8259 25.8689 12.3708 25.9739C11.9158 26.0789 11.5076 26.3301 11.2088 26.6891C10.8218 27.0884 10.284 27.6993 9.7688 28.2933C10.0872 27.0457 10.5 25.4448 10.905 23.8833C11.0211 23.5275 10.998 23.141 10.8404 22.8015C10.6828 22.4621 10.4024 22.195 10.0557 22.0541C9.67172 21.9223 9.2521 21.9412 8.88148 22.1067C8.51087 22.2723 8.21686 22.5723 8.0588 22.9462C7.5728 23.8811 3.72531 30.3284 3.68706 30.3937C3.63403 30.4825 3.599 30.5808 3.58397 30.6832C3.56895 30.7855 3.57423 30.8898 3.59951 30.9901C3.65057 31.1926 3.77999 31.3666 3.95931 31.4737C4.13863 31.5808 4.35316 31.6123 4.5557 31.5612C4.75823 31.5102 4.9322 31.3807 5.03931 31.2014C5.18331 30.9596 8.25455 25.8149 9.22318 24.0971C8.49418 26.9096 7.69093 30.0393 7.64368 30.3206C7.59068 30.5273 7.60674 30.7458 7.6894 30.9426C7.77206 31.1394 7.9168 31.3038 8.10155 31.4107C8.30749 31.5128 8.54156 31.5435 8.76685 31.4978C8.99214 31.4522 9.19583 31.3329 9.3458 31.1587C9.48755 31.0304 9.75305 30.7256 10.4224 29.9482C11.0461 29.2147 11.6848 28.4941 12.3383 27.7871C12.5835 27.5283 12.732 27.6431 12.588 27.8973C12.3063 28.2532 12.1235 28.6773 12.0583 29.1265C11.9931 29.5757 12.0478 30.0342 12.2168 30.4556Z" fill="#FFD585"/>
<path id="Vector_2" d="M29.3235 22.1568V33.7499H2.32354V2.24999H29.3235V7.86711L30.8197 6.37086C31.05 6.14367 31.3025 5.94015 31.5735 5.76336V1.125C31.5735 0.82663 31.455 0.540482 31.244 0.329504C31.033 0.118526 30.7468 0 30.4485 0H1.19854C0.900177 0 0.614029 0.118526 0.403051 0.329504C0.192073 0.540482 0.0735474 0.82663 0.0735474 1.125V34.8749C0.0735474 35.1733 0.192073 35.4594 0.403051 35.6704C0.614029 35.8814 0.900177 35.9999 1.19854 35.9999H30.4485C30.7468 35.9999 31.033 35.8814 31.244 35.6704C31.455 35.4594 31.5735 35.1733 31.5735 34.8749V21.8553C30.8838 22.2219 30.0854 22.3289 29.3235 22.1568Z" fill="#FFD585"/>
<path id="Vector_3" d="M36.2175 11.0944L35.6292 10.506C35.9295 10.1085 36.0814 9.61849 36.0588 9.12077C36.0363 8.62306 35.8405 8.14887 35.5054 7.78016C35.07 7.39635 34.5005 7.20015 33.921 7.23428C33.3416 7.26842 32.7991 7.53012 32.4117 7.96241L18.3211 22.0507L17.3795 25.5855C17.3646 25.6317 17.3627 25.6812 17.3742 25.7284C17.3857 25.7756 17.41 25.8188 17.4445 25.853C17.479 25.8872 17.5223 25.9113 17.5696 25.9224C17.6169 25.9336 17.6663 25.9315 17.7125 25.9162L21.2348 24.9634L34.3883 11.8099L34.944 12.3668C34.983 12.4055 35.0139 12.4515 35.035 12.5022C35.0561 12.5528 35.0669 12.6072 35.0669 12.6621C35.0669 12.717 35.0561 12.7713 35.035 12.822C35.0139 12.8727 34.983 12.9187 34.944 12.9574L29.4124 18.489C29.2437 18.6579 29.149 18.8869 29.1491 19.1256C29.1492 19.3643 29.2441 19.5932 29.413 19.7619C29.5819 19.9307 29.8109 20.0254 30.0496 20.0253C30.2883 20.0252 30.5172 19.9303 30.6859 19.7614L36.2175 14.2298C36.4237 14.0239 36.5872 13.7795 36.6988 13.5104C36.8104 13.2413 36.8678 12.9528 36.8678 12.6615C36.8678 12.3702 36.8104 12.0818 36.6988 11.8127C36.5872 11.5436 36.4237 11.2991 36.2175 11.0933" fill="#FFD585"/>
</g>
</svg>
