<svg width="24" height="24" viewBox="0 0 24 24" fill="none" xmlns="http://www.w3.org/2000/svg">
<g id="broken_car_icon">
<path id="Vector" d="M11.226 2.42521C11.3494 2.38796 11.4815 2.39142 11.6027 2.43508C11.724 2.47873 11.8279 2.56027 11.8992 2.66761L13.9668 5.76841L17.0676 3.70081C17.1684 3.63385 17.287 3.59891 17.4079 3.60057C17.5289 3.60222 17.6465 3.64038 17.7454 3.71006C17.8442 3.77974 17.9197 3.87767 17.962 3.99101C18.0042 4.10436 18.0112 4.22782 17.982 4.34521L16.968 8.40001H21C21.1189 8.39979 21.2351 8.43487 21.3339 8.50078C21.4328 8.5667 21.5099 8.66048 21.5554 8.77025C21.6009 8.88002 21.6128 9.00082 21.5895 9.11735C21.5663 9.23388 21.509 9.34089 21.4248 9.42481L18.3408 12.5064L21.3324 14.5008C21.4395 14.5722 21.5208 14.6762 21.5643 14.7974C21.6078 14.9185 21.6111 15.0505 21.5739 15.1737C21.5366 15.2969 21.4607 15.4049 21.3574 15.4816C21.254 15.5584 21.1288 15.5999 21 15.6H17.4C17.2409 15.6 17.0883 15.5368 16.9758 15.4243C16.8632 15.3117 16.8 15.1591 16.8 15C16.8 14.8409 16.8632 14.6883 16.9758 14.5757C17.0883 14.4632 17.2409 14.4 17.4 14.4H19.0188L17.0676 13.0992C16.9936 13.0501 16.9314 12.9851 16.8856 12.909C16.8398 12.8328 16.8114 12.7475 16.8025 12.6591C16.7937 12.5707 16.8046 12.4814 16.8345 12.3977C16.8643 12.314 16.9124 12.238 16.9752 12.1752L19.5516 9.60001H16.2C16.1089 9.59998 16.019 9.57919 15.937 9.53922C15.8551 9.49925 15.7834 9.44115 15.7273 9.36932C15.6712 9.29749 15.6322 9.21383 15.6133 9.12468C15.5943 9.03553 15.596 8.94324 15.618 8.85481L16.4412 5.55961L14.1324 7.09921C14 7.18729 13.838 7.21921 13.6821 7.18793C13.5262 7.15665 13.389 7.06475 13.3008 6.93241L12 4.98121V6.60001C12 6.75914 11.9368 6.91175 11.8243 7.02427C11.7118 7.13679 11.5592 7.20001 11.4 7.20001C11.2409 7.20001 11.0883 7.13679 10.9758 7.02427C10.8632 6.91175 10.8 6.75914 10.8 6.60001V3.00001C10.7999 2.87115 10.8413 2.74569 10.918 2.64216C10.9947 2.53864 11.1027 2.46257 11.226 2.42521ZM5.70002 17.4C5.93872 17.4 6.16764 17.3052 6.33642 17.1364C6.5052 16.9676 6.60002 16.7387 6.60002 16.5C6.60002 16.2613 6.5052 16.0324 6.33642 15.8636C6.16764 15.6948 5.93872 15.6 5.70002 15.6C5.46133 15.6 5.23241 15.6948 5.06363 15.8636C4.89485 16.0324 4.80002 16.2613 4.80002 16.5C4.80002 16.7387 4.89485 16.9676 5.06363 17.1364C5.23241 17.3052 5.46133 17.4 5.70002 17.4ZM13.2 16.5C13.2 16.7387 13.1052 16.9676 12.9364 17.1364C12.7676 17.3052 12.5387 17.4 12.3 17.4C12.0613 17.4 11.8324 17.3052 11.6636 17.1364C11.4948 16.9676 11.4 16.7387 11.4 16.5C11.4 16.2613 11.4948 16.0324 11.6636 15.8636C11.8324 15.6948 12.0613 15.6 12.3 15.6C12.5387 15.6 12.7676 15.6948 12.9364 15.8636C13.1052 16.0324 13.2 16.2613 13.2 16.5ZM14.4 13.2C15.1284 13.7472 15.6 14.6184 15.6 15.6V20.4C15.6 20.7183 15.4736 21.0235 15.2486 21.2485C15.0235 21.4736 14.7183 21.6 14.4 21.6C14.0818 21.6 13.7765 21.4736 13.5515 21.2485C13.3265 21.0235 13.2 20.7183 13.2 20.4V19.8H4.80002V20.4C4.80002 20.7183 4.6736 21.0235 4.44855 21.2485C4.22351 21.4736 3.91828 21.6 3.60002 21.6C3.28176 21.6 2.97654 21.4736 2.7515 21.2485C2.52645 21.0235 2.40002 20.7183 2.40002 20.4V15.6C2.40002 14.6184 2.87162 13.7472 3.60002 13.2H3.00002C2.84089 13.2 2.68828 13.1368 2.57576 13.0243C2.46324 12.9117 2.40002 12.7591 2.40002 12.6C2.40002 12.4409 2.46324 12.2883 2.57576 12.1757C2.68828 12.0632 2.84089 12 3.00002 12H3.79202L3.95762 11.0052C4.05105 10.445 4.34009 9.93612 4.77338 9.56897C5.20666 9.20182 5.7561 9.00022 6.32402 9.00001H11.6736C12.2418 8.99994 12.7915 9.20141 13.225 9.56858C13.6585 9.93576 13.9478 10.4448 14.0412 11.0052L14.2068 12H14.9988C15.158 12 15.3106 12.0632 15.4231 12.1757C15.5356 12.2883 15.5988 12.4409 15.5988 12.6C15.5988 12.7591 15.5356 12.9117 15.4231 13.0243C15.3106 13.1368 15.158 13.2 14.9988 13.2H14.4ZM6.32402 10.2C6.03998 10.2001 5.76519 10.301 5.54853 10.4847C5.33188 10.6684 5.18741 10.923 5.14082 11.2032L4.90082 12.6408C5.06402 12.6136 5.23042 12.6 5.40002 12.6H12.6C12.7704 12.6 12.9364 12.6136 13.098 12.6408L12.858 11.2032C12.8115 10.9232 12.6672 10.6688 12.4508 10.4851C12.2344 10.3014 11.9599 10.2004 11.676 10.2H6.32402ZM3.60002 15.6V18.6H14.4V15.6C14.4 15.1226 14.2104 14.6648 13.8728 14.3272C13.5353 13.9896 13.0774 13.8 12.6 13.8H5.40002C4.92263 13.8 4.4648 13.9896 4.12723 14.3272C3.78967 14.6648 3.60002 15.1226 3.60002 15.6Z" fill="#FFD585"/>
</g>
</svg>
