<svg width="25" height="24" viewBox="0 0 25 24" fill="none" xmlns="http://www.w3.org/2000/svg">
<g id="call_icon">
<g id="Vector">
<mask id="path-1-inside-1_2131_1086" fill="white">
<path d="M6.071 7.88745C5.7845 6.00045 7.115 4.30545 9.1475 3.68445C9.50819 3.57492 9.89704 3.60666 10.2352 3.77323C10.5734 3.9398 10.8355 4.22874 10.9685 4.58145L11.621 6.32145C11.726 6.60137 11.745 6.90629 11.6755 7.19708C11.6061 7.48787 11.4512 7.75127 11.231 7.95345L9.29 9.73095C9.1942 9.81866 9.12283 9.92975 9.08286 10.0533C9.04289 10.1769 9.03571 10.3088 9.062 10.4359L9.08 10.5139L9.1265 10.709C9.36849 11.6562 9.73626 12.5668 10.22 13.4165C10.7482 14.3186 11.4028 15.1404 12.164 15.8569L12.224 15.9109C12.3209 15.997 12.4384 16.0564 12.5651 16.0835C12.6918 16.1106 12.8234 16.1043 12.947 16.0654L15.4565 15.2749C15.7417 15.1854 16.0471 15.1831 16.3337 15.2684C16.6202 15.3536 16.8747 15.5225 17.0645 15.7534L18.2525 17.195C18.7475 17.7949 18.6875 18.6769 18.119 19.2064C16.5635 20.6569 14.4245 20.9539 12.9365 19.7584C11.1118 18.288 9.57403 16.4934 8.4005 14.4649C7.21549 12.4391 6.42607 10.2074 6.071 7.88745ZM10.634 10.5349L12.242 9.05895C12.6828 8.65475 12.9927 8.12805 13.1319 7.54646C13.2712 6.96487 13.2334 6.35493 13.0235 5.79495L12.3725 4.05495C12.1054 3.34511 11.5782 2.76354 10.8978 2.42838C10.2175 2.09322 9.43506 2.02961 8.7095 2.25045C6.185 3.02295 4.1585 5.28645 4.5875 8.11395C4.8875 10.0879 5.579 12.599 7.1045 15.221C8.37067 17.4081 10.0294 19.343 11.9975 20.9284C14.2295 22.7209 17.2085 22.1089 19.1435 20.3059C19.6972 19.7904 20.0332 19.0831 20.0831 18.3282C20.133 17.5733 19.893 16.8279 19.412 16.2439L18.224 14.8009C17.844 14.3397 17.3348 14.0024 16.7618 13.8324C16.1888 13.6625 15.5781 13.6675 15.008 13.8469L12.9245 14.5024C12.3865 13.9478 11.9153 13.3321 11.5205 12.6679C11.1395 11.9963 10.8423 11.2804 10.6355 10.5365"/>
</mask>
<path d="M6.071 7.88745C5.7845 6.00045 7.115 4.30545 9.1475 3.68445C9.50819 3.57492 9.89704 3.60666 10.2352 3.77323C10.5734 3.9398 10.8355 4.22874 10.9685 4.58145L11.621 6.32145C11.726 6.60137 11.745 6.90629 11.6755 7.19708C11.6061 7.48787 11.4512 7.75127 11.231 7.95345L9.29 9.73095C9.1942 9.81866 9.12283 9.92975 9.08286 10.0533C9.04289 10.1769 9.03571 10.3088 9.062 10.4359L9.08 10.5139L9.1265 10.709C9.36849 11.6562 9.73626 12.5668 10.22 13.4165C10.7482 14.3186 11.4028 15.1404 12.164 15.8569L12.224 15.9109C12.3209 15.997 12.4384 16.0564 12.5651 16.0835C12.6918 16.1106 12.8234 16.1043 12.947 16.0654L15.4565 15.2749C15.7417 15.1854 16.0471 15.1831 16.3337 15.2684C16.6202 15.3536 16.8747 15.5225 17.0645 15.7534L18.2525 17.195C18.7475 17.7949 18.6875 18.6769 18.119 19.2064C16.5635 20.6569 14.4245 20.9539 12.9365 19.7584C11.1118 18.288 9.57403 16.4934 8.4005 14.4649C7.21549 12.4391 6.42607 10.2074 6.071 7.88745ZM10.634 10.5349L12.242 9.05895C12.6828 8.65475 12.9927 8.12805 13.1319 7.54646C13.2712 6.96487 13.2334 6.35493 13.0235 5.79495L12.3725 4.05495C12.1054 3.34511 11.5782 2.76354 10.8978 2.42838C10.2175 2.09322 9.43506 2.02961 8.7095 2.25045C6.185 3.02295 4.1585 5.28645 4.5875 8.11395C4.8875 10.0879 5.579 12.599 7.1045 15.221C8.37067 17.4081 10.0294 19.343 11.9975 20.9284C14.2295 22.7209 17.2085 22.1089 19.1435 20.3059C19.6972 19.7904 20.0332 19.0831 20.0831 18.3282C20.133 17.5733 19.893 16.8279 19.412 16.2439L18.224 14.8009C17.844 14.3397 17.3348 14.0024 16.7618 13.8324C16.1888 13.6625 15.5781 13.6675 15.008 13.8469L12.9245 14.5024C12.3865 13.9478 11.9153 13.3321 11.5205 12.6679C11.1395 11.9963 10.8423 11.2804 10.6355 10.5365" fill="#FFD585"/>
<path d="M6.071 7.88745L4.58799 8.11261L4.58827 8.11438L6.071 7.88745ZM9.1475 3.68445L8.71165 2.24917L8.7092 2.24991L9.1475 3.68445ZM10.9685 4.58145L12.373 4.05476L12.372 4.05223L10.9685 4.58145ZM11.621 6.32145L10.2165 6.84814L10.2166 6.84844L11.621 6.32145ZM11.231 7.95345L12.244 9.05968L12.2454 9.05846L11.231 7.95345ZM9.29 9.73095L10.3029 10.8373L10.303 10.8372L9.29 9.73095ZM9.062 10.4359L7.59306 10.7396L7.59654 10.7565L7.60041 10.7732L9.062 10.4359ZM9.08 10.5139L7.61837 10.8512L7.62091 10.8619L9.08 10.5139ZM9.1265 10.709L7.66741 11.0569L7.6702 11.0686L7.67317 11.0802L9.1265 10.709ZM10.22 13.4165L8.91647 14.1586L8.92096 14.1665L8.92555 14.1743L10.22 13.4165ZM12.164 15.8569L11.1358 16.9492L11.1481 16.9607L11.1605 16.9719L12.164 15.8569ZM12.224 15.9109L11.2205 17.0259L11.2283 17.0328L12.224 15.9109ZM12.947 16.0654L13.3973 17.4963L13.3977 17.4961L12.947 16.0654ZM15.4565 15.2749L15.0072 13.8438L15.0058 13.8443L15.4565 15.2749ZM17.0645 15.7534L15.9058 16.7061L15.907 16.7074L17.0645 15.7534ZM18.2525 17.195L17.095 18.1489L17.0954 18.1495L18.2525 17.195ZM18.119 19.2064L17.0967 18.1088L17.096 18.1094L18.119 19.2064ZM12.9365 19.7584L11.9953 20.9264L11.997 20.9278L12.9365 19.7584ZM8.4005 14.4649L9.69889 13.7138L9.69525 13.7076L8.4005 14.4649ZM12.242 9.05895L11.2282 7.95343L11.2277 7.9539L12.242 9.05895ZM13.0235 5.79495L11.6186 6.32057L11.6189 6.32143L13.0235 5.79495ZM12.3725 4.05495L13.7774 3.52933L13.7764 3.52674L12.3725 4.05495ZM8.7095 2.25045L8.27272 0.815451L8.27059 0.816102L8.7095 2.25045ZM4.5875 8.11395L3.10447 8.33896L3.10453 8.33933L4.5875 8.11395ZM7.1045 15.221L8.40267 14.4694L8.40103 14.4666L7.1045 15.221ZM11.9975 20.9284L11.0565 22.0966L11.0583 22.098L11.9975 20.9284ZM19.1435 20.3059L18.1213 19.2081L18.1209 19.2085L19.1435 20.3059ZM19.412 16.2439L18.254 17.1973L18.2542 17.1977L19.412 16.2439ZM18.224 14.8009L19.382 13.8476L19.3817 13.8471L18.224 14.8009ZM15.008 13.8469L15.4582 15.2778L15.4583 15.2778L15.008 13.8469ZM12.9245 14.5024L11.8478 15.5468L12.4921 16.211L13.3747 15.9333L12.9245 14.5024ZM11.5205 12.6679L10.2158 13.408L10.2233 13.4213L10.2311 13.4344L11.5205 12.6679ZM7.554 7.66229C7.40942 6.71001 8.05394 5.58702 9.5858 5.11899L8.7092 2.24991C6.17606 3.02388 4.15958 5.29089 4.588 8.11261L7.554 7.66229ZM9.58335 5.11973C9.57971 5.12084 9.57578 5.12052 9.57237 5.11883L10.898 2.42762C10.2183 2.09279 9.43667 2.029 8.71165 2.24917L9.58335 5.11973ZM9.57237 5.11883C9.56895 5.11715 9.5663 5.11423 9.56496 5.11067L12.372 4.05223C12.1047 3.34324 11.5778 2.76244 10.898 2.42762L9.57237 5.11883ZM9.56401 5.10813L10.2165 6.84814L13.0255 5.79477L12.373 4.05476L9.56401 5.10813ZM10.2166 6.84844V6.84844L13.1345 7.54572C13.2734 6.96414 13.2355 6.35429 13.0254 5.79446L10.2166 6.84844ZM10.2166 6.84844L12.2454 9.05846C12.6859 8.65409 12.9955 8.12731 13.1345 7.54572L10.2166 6.84844ZM10.218 6.84722L8.27696 8.62472L10.303 10.8372L12.244 9.05968L10.218 6.84722ZM8.27706 8.62463C7.98967 8.88775 7.77554 9.22101 7.65564 9.59176L10.5101 10.5149C10.4701 10.6385 10.3987 10.7496 10.3029 10.8373L8.27706 8.62463ZM7.65564 9.59176C7.53574 9.96251 7.51418 10.358 7.59306 10.7396L10.5309 10.1323C10.5572 10.2595 10.55 10.3913 10.5101 10.5149L7.65564 9.59176ZM7.60041 10.7732L7.61841 10.8512L10.5416 10.1767L10.5236 10.0987L7.60041 10.7732ZM7.62091 10.8619L7.66741 11.0569L10.5856 10.361L10.5391 10.166L7.62091 10.8619ZM7.67317 11.0802C7.94832 12.1573 8.36647 13.1926 8.91647 14.1586L11.5235 12.6743C11.1061 11.941 10.7887 11.1552 10.5798 10.3377L7.67317 11.0802ZM8.92555 14.1743C9.52608 15.2 10.2704 16.1345 11.1358 16.9492L13.1922 14.7647C12.5352 14.1464 11.9703 13.4371 11.5145 12.6586L8.92555 14.1743ZM11.1605 16.9719L11.2205 17.0259L13.2275 14.796L13.1675 14.742L11.1605 16.9719ZM11.2283 17.0328C11.519 17.2908 11.8716 17.4691 12.2517 17.5504L12.8786 14.6166C13.0053 14.6437 13.1228 14.7031 13.2197 14.7891L11.2283 17.0328ZM12.2517 17.5504C12.6318 17.6316 13.0265 17.613 13.3973 17.4963L12.4967 14.6346C12.6203 14.5957 12.7519 14.5895 12.8786 14.6166L12.2517 17.5504ZM13.3977 17.4961L15.9072 16.7056L15.0058 13.8443L12.4963 14.6348L13.3977 17.4961ZM15.9058 16.7061H15.9058L16.7615 13.8307C16.1885 13.6602 15.5776 13.6647 15.0072 13.8438L15.9058 16.7061ZM15.9058 16.7061L15.9058 16.7061L18.2232 14.8008C17.8435 14.339 17.3345 14.0012 16.7615 13.8307L15.9058 16.7061ZM15.907 16.7074L17.095 18.1489L19.41 16.241L18.222 14.7995L15.907 16.7074ZM17.0954 18.1495C17.094 18.1478 17.0912 18.1433 17.0894 18.1376C17.0879 18.1328 17.0878 18.1293 17.0879 18.1271C17.0881 18.1248 17.0886 18.1218 17.0904 18.118C17.0926 18.1133 17.0955 18.1099 17.0967 18.1088L19.1413 20.3041C20.288 19.2361 20.4116 17.455 19.4096 16.2404L17.0954 18.1495ZM17.096 18.1094C15.9269 19.1996 14.6281 19.1934 13.876 18.5891L11.997 20.9278C14.2209 22.7145 17.2001 22.1143 19.142 20.3035L17.096 18.1094ZM13.8777 18.5905C12.1967 17.2358 10.78 15.5826 9.69888 13.7138L7.10212 15.2161C8.36806 17.4043 10.0269 19.3401 11.9953 20.9264L13.8777 18.5905ZM9.69525 13.7076C8.60611 11.8457 7.88026 9.79396 7.55373 7.66052L4.58827 8.11438C4.97188 10.6208 5.82486 13.0326 7.10575 15.2223L9.69525 13.7076ZM11.6483 11.64L13.2563 10.164L11.2277 7.9539L9.61967 9.4299L11.6483 11.64ZM13.2558 10.1645C13.917 9.55817 14.3818 8.76812 14.5907 7.89573L11.6731 7.19719C11.6035 7.48798 11.4486 7.75133 11.2282 7.95343L13.2558 10.1645ZM14.5907 7.89573C14.7995 7.02335 14.7429 6.10844 14.4281 5.26847L11.6189 6.32143C11.7239 6.60142 11.7428 6.90639 11.6731 7.19719L14.5907 7.89573ZM14.4284 5.26933L13.7774 3.52933L10.9676 4.58057L11.6186 6.32057L14.4284 5.26933ZM13.7764 3.52674C13.3751 2.46019 12.5829 1.58638 11.5607 1.0828L10.2349 3.77397C10.5734 3.94071 10.8357 4.23003 10.9686 4.58316L13.7764 3.52674ZM11.5607 1.0828C10.5385 0.579218 9.36287 0.48363 8.27272 0.815452L9.14628 3.68545C9.50724 3.57558 9.89648 3.60723 10.2349 3.77397L11.5607 1.0828ZM8.27059 0.816102C5.26269 1.73652 2.53151 4.56264 3.10447 8.33896L6.07053 7.88894C5.78549 6.01026 7.10731 4.30938 9.14841 3.6848L8.27059 0.816102ZM3.10453 8.33933C3.42747 10.4643 4.17109 13.1618 5.80797 15.9753L8.40103 14.4666C6.98691 12.0361 6.34753 9.71161 6.07047 7.88857L3.10453 8.33933ZM5.80634 15.9725C7.16493 18.3193 8.94475 20.3954 11.0565 22.0966L12.9385 19.7603C11.1141 18.2906 9.57641 16.497 8.40266 14.4694L5.80634 15.9725ZM11.0583 22.098C14.037 24.4902 17.8573 23.5546 20.1661 21.4034L18.1209 19.2085C16.5597 20.6633 14.422 20.9517 12.9367 19.7589L11.0583 22.098ZM20.1657 21.4038C20.999 20.6279 21.5048 19.5632 21.5799 18.4271L18.5864 18.2293C18.5617 18.6029 18.3954 18.953 18.1213 19.2081L20.1657 21.4038ZM21.5799 18.4271C21.655 17.291 21.2937 16.1691 20.5698 15.2902L18.2542 17.1977C18.4923 17.4867 18.6111 17.8556 18.5864 18.2293L21.5799 18.4271ZM20.57 15.2906L19.382 13.8476L17.066 15.7543L18.254 17.1973L20.57 15.2906ZM19.3817 13.8471C18.8116 13.1552 18.0479 12.6493 17.1884 12.3944L16.3352 15.2705C16.6217 15.3555 16.8763 15.5241 17.0663 15.7548L19.3817 13.8471ZM17.1884 12.3944C16.3289 12.1394 15.4128 12.147 14.5577 12.4161L15.4583 15.2778C15.7434 15.188 16.0487 15.1855 16.3352 15.2705L17.1884 12.3944ZM14.5578 12.4161L12.4743 13.0716L13.3747 15.9333L15.4582 15.2778L14.5578 12.4161ZM14.0012 13.4581C13.5447 12.9875 13.1449 12.4651 12.8099 11.9015L10.2311 13.4344C10.6857 14.1992 11.2283 14.9082 11.8478 15.5468L14.0012 13.4581ZM12.8252 11.9279C12.5047 11.3628 12.2547 10.7606 12.0807 10.1347L9.19029 10.9382C9.42993 11.8003 9.77432 12.6297 10.2158 13.408L12.8252 11.9279Z" fill="#191919" mask="url(#path-1-inside-1_2131_1086)"/>
</g>
</g>
</svg>
