<svg width="16" height="22" viewBox="0 0 16 22" fill="none" xmlns="http://www.w3.org/2000/svg">
<g id="Group">
<path id="Vector" d="M4.07202 3.63998C4.06402 2.93598 4.29602 2.40798 4.95202 2.18398C5.18402 2.10398 5.45602 2.15198 5.69602 2.09598C5.84802 2.05598 6.04802 1.97598 6.12802 1.85598C7.01602 0.391982 8.97602 0.383981 9.82402 1.86398C10 2.17598 10.232 2.09598 10.464 2.10398C11.24 2.11998 11.736 2.46398 11.888 3.12798C11.92 3.27998 11.928 3.43998 11.944 3.63998C12.56 3.63998 13.168 3.63998 13.776 3.63998C14.936 3.64798 15.672 4.37598 15.672 5.54398C15.68 10.152 15.672 14.768 15.672 19.376C15.672 20.52 14.936 21.24 13.792 21.24C9.92802 21.24 6.06402 21.24 2.20002 21.24C1.06402 21.24 0.328023 20.504 0.320023 19.368C0.320023 14.76 0.312023 10.144 0.320023 5.53598C0.320023 4.38398 1.07202 3.64798 2.23202 3.64798C2.83202 3.63998 3.43202 3.63998 4.07202 3.63998ZM4.08002 4.48798C3.46402 4.48798 2.88802 4.48798 2.32002 4.48798C1.48802 4.49598 1.19202 4.78398 1.19202 5.62398C1.19202 10.168 1.19202 14.712 1.19202 19.256C1.19202 20.104 1.46402 20.368 2.32002 20.368C6.08802 20.368 9.86402 20.368 13.632 20.368C14.552 20.368 14.808 20.112 14.808 19.176C14.808 14.688 14.808 10.192 14.808 5.70398C14.808 5.55998 14.816 5.40798 14.8 5.26398C14.752 4.90398 14.536 4.57598 14.2 4.55198C13.456 4.48798 12.696 4.53598 11.928 4.53598C11.928 4.81598 11.928 5.06398 11.928 5.31998C11.928 5.82398 11.8 5.95198 11.288 5.95198C10.144 5.95998 8.99202 5.95198 7.84802 5.95198C6.79202 5.95198 5.74402 5.95198 4.68802 5.95198C4.22402 5.95198 4.09602 5.81598 4.08802 5.35998C4.08002 5.08798 4.08002 4.82398 4.08002 4.48798ZM11.056 5.06398C11.056 4.68798 11.056 4.35198 11.056 4.02398C11.056 2.94398 11.056 2.92798 9.97602 2.95198C9.53602 2.95998 9.25602 2.86398 9.12002 2.39998C8.97602 1.93598 8.60002 1.67998 8.09602 1.63998C7.56802 1.59198 7.07202 1.77598 6.92002 2.26398C6.70402 2.95198 6.26402 2.99998 5.69602 2.95198C5.55202 2.93598 5.38402 2.93598 5.26402 2.99998C5.13602 3.06398 4.97602 3.20798 4.96802 3.31998C4.93602 3.89598 4.95202 4.47998 4.95202 5.07198C7.00002 5.06398 9.00802 5.06398 11.056 5.06398Z" fill="#FFD585"/>
<path id="Vector_2" d="M14.312 11.456C14.344 11.96 14.328 12.464 13.928 12.8C13.696 12.992 13.368 13.08 13.096 13.224C12.952 13.304 12.768 13.376 12.68 13.504C11.992 14.568 10.576 14.568 9.90401 13.48C9.77601 13.272 9.64801 13.224 9.43201 13.224C8.41601 13.232 7.40801 13.232 6.39201 13.224C6.18401 13.224 6.07201 13.288 5.95201 13.472C5.27201 14.576 3.85601 14.568 3.15201 13.48C3.07201 13.352 2.91201 13.24 2.76801 13.2C2.09601 13.016 1.70401 12.544 1.68001 11.856C1.67201 11.64 1.67201 11.432 1.68001 11.216C1.69601 10.552 2.04801 10.08 2.68801 9.88797C3.20001 9.73597 3.72001 9.62397 4.22401 9.46397C4.40801 9.39997 4.60001 9.27197 4.72801 9.12797C5.04001 8.76797 5.31201 8.36797 5.60801 7.99197C5.96001 7.52797 6.42401 7.29597 7.01601 7.30397C8.11201 7.31997 9.20001 7.31197 10.296 7.30397C10.928 7.29597 11.392 7.57597 11.728 8.09597C11.816 8.23197 11.912 8.35997 11.984 8.50397C12.304 9.14397 12.76 9.59997 13.464 9.84797C14.192 10.104 14.376 10.752 14.312 11.456ZM2.88001 12.456C2.97601 12.296 3.01601 12.256 3.03201 12.208C3.33601 11.472 3.85601 11.08 4.56001 11.088C5.30401 11.096 5.80001 11.464 6.09601 12.152C6.13601 12.256 6.32001 12.352 6.44801 12.36C7.42401 12.376 8.39201 12.36 9.36801 12.376C9.60801 12.376 9.72801 12.32 9.83201 12.072C10.088 11.424 10.608 11.104 11.296 11.096C11.984 11.088 12.488 11.424 12.776 12.056C12.848 12.2 12.848 12.464 13.088 12.344C13.24 12.272 13.384 12.088 13.432 11.92C13.488 11.728 13.432 11.496 13.448 11.288C13.488 10.912 13.336 10.664 12.984 10.56C12.224 10.336 11.696 9.85597 11.368 9.14397C11.296 8.99197 11.176 8.85597 11.096 8.70397C10.88 8.27997 10.536 8.13597 10.08 8.15197C9.22401 8.16797 8.37601 8.19197 7.52001 8.14397C6.85601 8.10397 6.34401 8.27997 6.01601 8.87997C5.47201 9.88797 4.61601 10.376 3.49601 10.584C2.48001 10.776 2.48001 10.848 2.56801 11.872C2.58401 12.04 2.74401 12.208 2.88001 12.456ZM11.304 13.424C11.728 13.416 12.064 13.08 12.048 12.656C12.04 12.256 11.704 11.936 11.304 11.928C10.872 11.92 10.552 12.24 10.552 12.68C10.552 13.112 10.864 13.424 11.304 13.424ZM4.56001 13.424C4.99201 13.424 5.31201 13.112 5.31201 12.68C5.31201 12.248 4.98401 11.928 4.55201 11.936C4.13601 11.944 3.83201 12.248 3.82401 12.664C3.81601 13.104 4.12001 13.416 4.56001 13.424Z" fill="#FFD585"/>
<path id="Vector_3" d="M5.03203 15.064C5.60803 15.064 6.17603 15.064 6.75203 15.064C7.12003 15.064 7.28003 15.248 7.28003 15.608C7.28003 16.704 7.28003 17.792 7.28003 18.888C7.28003 19.296 7.13603 19.448 6.72803 19.456C5.59203 19.464 4.46403 19.464 3.32803 19.456C2.89603 19.456 2.76003 19.304 2.76003 18.864C2.75203 17.8 2.75203 16.736 2.76003 15.664C2.76003 15.192 2.88803 15.072 3.36003 15.072C3.91203 15.064 4.47203 15.064 5.03203 15.064ZM3.62403 18.576C4.56003 18.576 5.46403 18.576 6.38403 18.576C6.38403 17.68 6.38403 16.808 6.38403 15.936C5.44803 15.936 4.53603 15.936 3.62403 15.936C3.62403 16.832 3.62403 17.696 3.62403 18.576Z" fill="#FFD585"/>
<path id="Vector_4" d="M10.56 18.544C9.88001 18.544 9.20001 18.544 8.52001 18.544C8.22401 18.544 7.96801 18.472 7.97601 18.12C7.98401 17.76 8.24001 17.712 8.53601 17.712C9.90401 17.712 11.28 17.712 12.648 17.712C12.936 17.712 13.2 17.752 13.208 18.12C13.216 18.512 12.928 18.552 12.632 18.552C11.944 18.544 11.248 18.544 10.56 18.544Z" fill="#FFD585"/>
<path id="Vector_5" d="M9.72804 16.76C9.30404 16.76 8.87204 16.76 8.44804 16.76C8.19204 16.76 8.00004 16.656 7.97604 16.376C7.95204 16.072 8.13604 15.912 8.40804 15.912C9.27204 15.896 10.136 15.896 11.008 15.912C11.248 15.92 11.448 16.048 11.44 16.336C11.432 16.632 11.24 16.76 10.968 16.76C10.552 16.76 10.144 16.76 9.72804 16.76Z" fill="#FFD585"/>
<path id="Vector_6" d="M4.83203 17.088C5.01603 16.88 5.16803 16.696 5.32803 16.528C5.50403 16.344 5.72003 16.288 5.92803 16.464C6.14403 16.656 6.13603 16.88 5.96003 17.096C5.72003 17.384 5.48003 17.664 5.23203 17.944C5.03203 18.168 4.80003 18.176 4.56003 17.992C4.43203 17.896 4.31203 17.792 4.18403 17.696C3.96003 17.52 3.85603 17.288 4.04003 17.04C4.20803 16.808 4.44003 16.824 4.67203 16.992C4.71203 17.016 4.76003 17.048 4.83203 17.088Z" fill="#FFD585"/>
</g>
</svg>
