<svg width="40" height="40" viewBox="0 0 40 40" fill="none" xmlns="http://www.w3.org/2000/svg">
<g id="Group">
<path id="Vector" d="M18.2131 36.1999H15.6895C9.23644 36.1999 6.01084 36.1999 4.00563 34.1569C2.00043 32.1139 2.00043 28.8253 2.00043 22.2498C2.00043 15.6744 2.00043 12.3858 4.00563 10.3428C6.01084 8.29981 9.23644 8.2998 15.6895 8.2998H22.5349C28.9879 8.2998 32.2153 8.29981 34.2205 10.3428C35.2231 11.3652 35.7253 12.699 35.9755 14.5998" stroke="#FFD585" stroke-width="4" stroke-linecap="round" stroke-linejoin="round"/>
<path id="Vector_2" d="M32.8849 34.0923C32.5646 34.7329 32.5119 35.4746 32.7384 36.1541C32.9649 36.8336 33.4521 37.3953 34.0927 37.7157C34.7334 38.036 35.475 38.0887 36.1546 37.8622C36.8341 37.6357 37.3958 37.1485 37.7161 36.5079C37.8747 36.1907 37.9693 35.8453 37.9944 35.4915C38.0196 35.1378 37.9748 34.7825 37.8626 34.446C37.7505 34.1096 37.5732 33.7985 37.3408 33.5306C37.1084 33.2626 36.8255 33.0431 36.5083 32.8845C36.1911 32.7259 35.8457 32.6313 35.492 32.6061C35.1382 32.581 34.7829 32.6258 34.4465 32.7379C34.11 32.8501 33.7989 33.0274 33.531 33.2598C33.2631 33.4922 33.0435 33.7751 32.8849 34.0923ZM32.8849 34.0923L26.9161 31.1079M26.9161 31.1079C26.644 31.6518 26.1963 32.088 25.6454 32.3457C25.0945 32.6034 24.4727 32.6676 23.8808 32.5278C23.2889 32.388 22.7615 32.0525 22.3841 31.5756C22.0066 31.0986 21.8013 30.5083 21.8013 29.9001C21.8013 29.2919 22.0066 28.7015 22.3841 28.2246C22.7615 27.7476 23.2889 27.4121 23.8808 27.2723C24.4727 27.1326 25.0945 27.1967 25.6454 27.4544C26.1963 27.7121 26.644 28.1483 26.9161 28.6923M26.9161 31.1079C27.1037 30.7329 27.2013 30.3193 27.2013 29.9001C27.2013 29.4808 27.1037 29.0673 26.9161 28.6923M32.8849 25.7079C33.0418 26.0278 33.2605 26.3135 33.5284 26.5485C33.7962 26.7835 34.108 26.9632 34.4456 27.0771C34.7832 27.1911 35.1401 27.2371 35.4956 27.2124C35.8511 27.1878 36.1982 27.0931 36.5169 26.9337C36.8356 26.7742 37.1196 26.5533 37.3525 26.2836C37.5854 26.014 37.7626 25.7008 37.8739 25.3623C37.9852 25.0238 38.0284 24.6666 38.001 24.3113C37.9737 23.956 37.8762 23.6097 37.7143 23.2922C37.3906 22.6576 36.8293 22.1765 36.1525 21.954C35.4757 21.7314 34.7384 21.7854 34.1012 22.1041C33.464 22.4228 32.9786 22.9804 32.7508 23.6555C32.523 24.3305 32.5712 25.0682 32.8849 25.7079ZM32.8849 25.7079L26.9161 28.6923M27.2005 8.30001L27.0205 7.74201C26.1295 4.97001 25.6849 3.584 24.6247 2.792C23.5627 2 22.1551 2 19.3345 2H18.8611C16.0441 2 14.6347 2 13.5745 2.792C12.5125 3.584 12.0679 4.97001 11.1769 7.74201L11.0005 8.30001" stroke="#FFD585" stroke-width="4" stroke-linecap="round" stroke-linejoin="round"/>
</g>
</svg>
