<svg width="24" height="24" viewBox="0 0 24 24" fill="none" xmlns="http://www.w3.org/2000/svg">
<g id="message_icon">
<path id="Vector" d="M11.0357 12C11.0357 12.2557 11.1373 12.501 11.3182 12.6819C11.499 12.8627 11.7443 12.9643 12 12.9643C12.2557 12.9643 12.501 12.8627 12.6818 12.6819C12.8627 12.501 12.9643 12.2557 12.9643 12C12.9643 11.7443 12.8627 11.499 12.6818 11.3181C12.501 11.1373 12.2557 11.0357 12 11.0357C11.7443 11.0357 11.499 11.1373 11.3182 11.3181C11.1373 11.499 11.0357 11.7443 11.0357 12ZM15.0535 12C15.0535 12.2557 15.1551 12.501 15.336 12.6819C15.5168 12.8627 15.7621 12.9643 16.0178 12.9643C16.2735 12.9643 16.5188 12.8627 16.6997 12.6819C16.8805 12.501 16.9821 12.2557 16.9821 12C16.9821 11.7443 16.8805 11.499 16.6997 11.3181C16.5188 11.1373 16.2735 11.0357 16.0178 11.0357C15.7621 11.0357 15.5168 11.1373 15.336 11.3181C15.1551 11.499 15.0535 11.7443 15.0535 12ZM7.01792 12C7.01792 12.2557 7.11951 12.501 7.30035 12.6819C7.48119 12.8627 7.72645 12.9643 7.98219 12.9643C8.23794 12.9643 8.4832 12.8627 8.66404 12.6819C8.84488 12.501 8.94647 12.2557 8.94647 12C8.94647 11.7443 8.84488 11.499 8.66404 11.3181C8.4832 11.1373 8.23794 11.0357 7.98219 11.0357C7.72645 11.0357 7.48119 11.1373 7.30035 11.3181C7.11951 11.499 7.01792 11.7443 7.01792 12ZM20.3008 8.5125C19.8468 7.43371 19.1959 6.4654 18.3662 5.63371C17.5423 4.80684 16.5643 4.14958 15.4875 3.69911C14.3826 3.23504 13.2094 3 12 3H11.9598C10.7424 3.00603 9.5632 3.2471 8.45429 3.72121C7.38668 4.17629 6.4178 4.83473 5.60164 5.65982C4.78 6.48951 4.13514 7.45379 3.68917 8.52857C3.22712 9.64152 2.99409 10.8248 3.00011 12.0422C3.00693 13.4373 3.33699 14.8119 3.96439 16.058V19.1116C3.96439 19.3567 4.06175 19.5917 4.23505 19.765C4.40835 19.9384 4.6434 20.0357 4.88848 20.0357H7.94403C9.19014 20.6631 10.5647 20.9932 11.9598 21H12.002C13.2053 21 14.3725 20.767 15.4714 20.3109C16.5428 19.8659 17.5172 19.2162 18.3401 18.3984C19.1698 17.5768 19.8227 16.6165 20.2787 15.5458C20.7528 14.4368 20.9939 13.2576 20.9999 12.0402C21.0059 10.8167 20.7689 9.62946 20.3008 8.5125ZM17.2653 17.3116C15.8571 18.7058 13.9888 19.4732 12 19.4732H11.9658C10.7545 19.4672 9.55115 19.1658 8.48844 18.5993L8.31969 18.5089H5.49115V15.6804L5.40075 15.5116C4.83424 14.4489 4.53291 13.2455 4.52688 12.0342C4.51884 10.0312 5.28424 8.15089 6.68846 6.7346C8.09068 5.3183 9.96498 4.53482 11.9679 4.52679H12.002C13.0065 4.52679 13.9808 4.72165 14.8988 5.10737C15.7948 5.48304 16.5984 6.02344 17.2894 6.71451C17.9785 7.40357 18.5209 8.20915 18.8966 9.10513C19.2863 10.0333 19.4812 11.0176 19.4771 12.0342C19.4651 14.035 18.6796 15.9094 17.2653 17.3116Z" fill="#FFD585"/>
</g>
</svg>
