<svg width="24" height="24" viewBox="0 0 24 24" fill="none" xmlns="http://www.w3.org/2000/svg">
<g id="office_icon">
<path id="Vector" d="M22 12C22 12.1705 21.9298 12.334 21.8047 12.4546C21.6797 12.5751 21.5101 12.6429 21.3333 12.6429H19.9442C19.7854 13.5411 19.3025 14.3563 18.5807 14.9445C17.859 15.5326 16.9449 15.8559 16 15.8571H12.6667V17.7857H14.6667C15.3739 17.7857 16.0522 18.0566 16.5523 18.5389C17.0524 19.0211 17.3333 19.6752 17.3333 20.3571C17.3333 20.5276 17.2631 20.6912 17.1381 20.8117C17.013 20.9323 16.8435 21 16.6667 21C16.4899 21 16.3203 20.9323 16.1953 20.8117C16.0702 20.6912 16 20.5276 16 20.3571C16 20.0161 15.8595 19.6891 15.6095 19.448C15.3594 19.2069 15.0203 19.0714 14.6667 19.0714H12.6667V20.3571C12.6667 20.5276 12.5964 20.6912 12.4714 20.8117C12.3464 20.9323 12.1768 21 12 21C11.8232 21 11.6536 20.9323 11.5286 20.8117C11.4036 20.6912 11.3333 20.5276 11.3333 20.3571V19.0714H9.33333C8.97971 19.0714 8.64057 19.2069 8.39052 19.448C8.14048 19.6891 8 20.0161 8 20.3571C8 20.5276 7.92976 20.6912 7.80474 20.8117C7.67971 20.9323 7.51014 21 7.33333 21C7.15652 21 6.98695 20.9323 6.86193 20.8117C6.7369 20.6912 6.66667 20.5276 6.66667 20.3571C6.66667 19.6752 6.94762 19.0211 7.44772 18.5389C7.94781 18.0566 8.62609 17.7857 9.33333 17.7857H11.3333V15.8571H8C7.05506 15.8559 6.14099 15.5326 5.41927 14.9445C4.69755 14.3563 4.21463 13.5411 4.05583 12.6429H2.66667C2.48986 12.6429 2.32029 12.5751 2.19526 12.4546C2.07024 12.334 2 12.1705 2 12C2 11.8295 2.07024 11.666 2.19526 11.5454C2.32029 11.4249 2.48986 11.3571 2.66667 11.3571H4.66667C4.84348 11.3571 5.01305 11.4249 5.13807 11.5454C5.2631 11.666 5.33333 11.8295 5.33333 12C5.33333 12.682 5.61428 13.336 6.11438 13.8183C6.61448 14.3005 7.29276 14.5714 8 14.5714H16C16.7072 14.5714 17.3855 14.3005 17.8856 13.8183C18.3857 13.336 18.6667 12.682 18.6667 12C18.6667 11.8295 18.7369 11.666 18.8619 11.5454C18.987 11.4249 19.1565 11.3571 19.3333 11.3571H21.3333C21.5101 11.3571 21.6797 11.4249 21.8047 11.5454C21.9298 11.666 22 11.8295 22 12ZM6.9925 12.8421C6.86743 12.703 6.77481 12.5396 6.7209 12.363C6.66698 12.1864 6.65304 12.0007 6.68 11.8184L7.82333 4.10411C7.86999 3.79823 8.02883 3.51862 8.27103 3.31604C8.51322 3.11345 8.82272 3.00132 9.14333 3H14.8567C15.1773 3.00132 15.4868 3.11345 15.729 3.31604C15.9712 3.51862 16.13 3.79823 16.1767 4.10411L17.32 11.8184C17.347 12.0007 17.333 12.1865 17.2791 12.3632C17.2251 12.5399 17.1324 12.7034 17.0072 12.8425C16.8821 12.9816 16.7273 13.0932 16.5536 13.1697C16.3798 13.2461 16.191 13.2857 16 13.2857H8C7.80891 13.2857 7.62006 13.2461 7.44623 13.1696C7.2724 13.093 7.11766 12.9814 6.9925 12.8421ZM8 12H16L14.8567 4.28571H9.1425L8 12Z" fill="#FFD585"/>
</g>
</svg>
