<svg width="49" height="63" viewBox="0 0 49 63" fill="none" xmlns="http://www.w3.org/2000/svg">
<g id="Group">
<g id="Group_2">
<g id="Group_3">
<path id="Vector" d="M45.3089 17.8218C41.684 19.5172 38.0462 21.2126 34.4084 22.9081C34.4978 23.1248 34.5999 23.3415 34.6893 23.5582C38.3525 21.9265 42.0286 20.3076 46.1131 18.4847C46.9045 22.2707 47.6575 25.789 48.3978 29.3074L48.3723 29.1671C48.0149 29.9065 47.6448 30.6586 47.4788 31.0155C48.7297 31.4745 48.6787 33.8965 46.3045 43.2277C44.6707 46.6568 43.0497 50.0859 41.4159 53.515C38.8631 55.6949 36.5145 58.1934 33.7064 60.0036C29.0093 63.0248 23.7377 63.7386 18.4279 61.7372C16.041 60.8322 13.8966 59.2642 11.6502 57.9895C9.53133 55.4909 7.39974 53.0051 5.28091 50.5066C4.22149 46.95 2.97061 43.4317 2.17924 39.8114C1.48998 36.6627 1.34957 33.3866 0.902832 29.6388C4.92351 30.4546 8.34428 31.1558 11.7778 31.8314C13.4754 32.1628 15.1858 32.5835 16.8962 32.6727C18.7342 32.7747 20.1383 33.3483 20.9807 35.031C21.5168 36.0126 21.8869 37.1471 22.6272 37.9375C23.9164 39.3142 25.4481 40.4615 26.5458 41.4303C26.3543 40.9077 25.9714 39.7731 25.5757 38.6768C29.2263 36.3568 30.4388 36.752 35.8253 41.9147C34.6765 38.1669 29.941 35.5919 26.2905 36.9049C23.9036 37.759 22.5507 36.1656 20.9169 35.0948C20.8658 33.871 20.802 32.6345 20.7765 31.8951C14.0753 32.3413 8.01241 29.8173 1.78355 28.721C1.78355 26.8726 1.78355 25.2536 1.78355 23.6474C2.06436 22.4364 2.192 21.1744 2.63874 20.0271C5.2809 13.1689 9.31435 7.3305 15.4156 3.06006C16.8451 2.66488 18.2875 2.25696 19.9596 1.79805C20.5978 9.28089 21.236 16.6108 21.8614 23.9406C22.0401 23.9279 22.206 23.9024 22.3847 23.8896C21.8231 16.5215 21.2615 9.15341 20.7126 1.79805C25.2566 -0.369046 29.239 1.73431 33.2852 2.49916L33.1703 2.42268C35.9146 4.87022 38.6589 7.30501 41.4031 9.75255C42.5519 11.4735 43.7007 13.2071 44.8494 14.9281C45.0154 15.8714 45.1558 16.802 45.3089 17.8218ZM21.8742 41.3156C22.0273 40.2321 21.4274 39.0465 20.5084 37.861C19.9595 39.1867 19.4107 40.5125 18.8619 41.8383C19.0278 42.0422 19.1937 42.2462 19.3469 42.4501C20.2404 42.0805 21.8103 41.8 21.8742 41.3156Z" fill="#5C4D30" fill-opacity="0.6"/>
</g>
</g>
</g>
</svg>
