<svg width="24" height="24" viewBox="0 0 24 24" fill="none" xmlns="http://www.w3.org/2000/svg">
<g id="property_icon">
<path id="Vector" d="M20.1002 11.5501C20.1002 7.51985 20.1002 5.50383 18.8483 4.25191C17.5964 3 15.5812 3 11.5501 3C7.51985 3 5.50383 3 4.25191 4.25191C3 5.50383 3 7.51895 3 11.5501C3 15.5803 3 17.5963 4.25191 18.8483C5.45703 20.0525 7.36775 20.0984 11.1001 20.0993M3 7.50005H20.1002M10.2001 15.6001H11.5501M6.60004 15.6001H7.50005M10.2001 12.0001H15.6001M6.60004 12.0001H7.50005M20.3369 14.5849C19.5269 13.6786 19.0391 13.7326 18.4991 13.8946C18.1211 13.9486 16.8224 15.4579 16.2824 15.9385C15.394 16.8133 14.503 17.7133 14.4436 17.8304C14.2753 18.1031 14.1196 18.5864 14.044 19.1246C13.9027 19.9337 13.6237 20.804 13.9576 20.9219C14.1196 21.1379 14.9296 20.8499 15.7414 20.732C16.2815 20.6348 16.6604 20.5268 16.9313 20.3648C17.3093 20.1389 18.0122 19.3406 19.2236 18.1544C19.9832 17.3569 20.7158 16.8061 20.9318 16.267C21.1478 15.4579 20.8238 15.0268 20.3378 14.584" stroke="#FFD585" stroke-width="1.5" stroke-linecap="round" stroke-linejoin="round"/>
</g>
</svg>
