<svg width="48" height="48" viewBox="0 0 48 48" fill="none" xmlns="http://www.w3.org/2000/svg">
<g id="search_icon">
<path id="Vector" d="M42 42.0004L33.314 33.3144M33.314 33.3144C34.7998 31.8286 35.9783 30.0648 36.7824 28.1235C37.5865 26.1822 38.0004 24.1016 38.0004 22.0004C38.0004 19.8992 37.5865 17.8186 36.7824 15.8773C35.9783 13.9361 34.7998 12.1722 33.314 10.6864C31.8282 9.20064 30.0643 8.02205 28.1231 7.21796C26.1818 6.41386 24.1012 6 22 6C19.8988 6 17.8182 6.41386 15.8769 7.21796C13.9356 8.02205 12.1718 9.20064 10.686 10.6864C7.68533 13.6871 5.99957 17.7568 5.99957 22.0004C5.99957 26.244 7.68533 30.3138 10.686 33.3144C13.6866 36.3151 17.7564 38.0008 22 38.0008C26.2436 38.0008 30.3133 36.3151 33.314 33.3144Z" stroke="#FFD585" stroke-width="1.5" stroke-linecap="round" stroke-linejoin="round"/>
</g>
</svg>
