<svg width="24" height="24" viewBox="0 0 24 24" fill="none" xmlns="http://www.w3.org/2000/svg">
<g id="fluent:arrow-up-48-regular">
<path id="Vector" d="M21.1167 11.6165C21.1167 11.9615 20.8367 12.2415 20.4917 12.2415L4.26871 12.2415L10.6797 18.5465C10.7409 18.6034 10.7901 18.672 10.8244 18.7482C10.8586 18.8244 10.8772 18.9067 10.8791 18.9903C10.881 19.0738 10.8661 19.1569 10.8354 19.2346C10.8046 19.3123 10.7585 19.383 10.7 19.4426C10.6414 19.5022 10.5714 19.5494 10.4943 19.5815C10.4171 19.6136 10.3343 19.6299 10.2508 19.6294C10.1672 19.6289 10.0846 19.6117 10.0078 19.5787C9.93102 19.5458 9.86162 19.4978 9.80371 19.4375L2.30971 12.068L2.29621 12.055C2.23141 11.9892 2.18201 11.9098 2.15158 11.8225C2.12115 11.7353 2.11043 11.6424 2.12021 11.5505C2.1361 11.4002 2.20591 11.2608 2.31671 11.158L9.80371 3.79604C9.86162 3.7358 9.93102 3.68778 10.0078 3.65483C10.0846 3.62188 10.1672 3.60466 10.2508 3.60419C10.3343 3.60372 10.4171 3.62001 10.4943 3.6521C10.5714 3.68418 10.6414 3.73142 10.7 3.791C10.7585 3.85059 10.8046 3.92132 10.8354 3.999C10.8661 4.07669 10.881 4.15976 10.8791 4.2433C10.8772 4.32684 10.8586 4.40915 10.8244 4.48537C10.7901 4.56158 10.7409 4.63016 10.6797 4.68704L4.26871 10.992L20.4917 10.992C20.8367 10.992 21.1167 11.271 21.1167 11.6165Z" fill="#FFD585"/>
</g>
</svg>
