<svg width="25" height="24" viewBox="0 0 25 24" fill="none" xmlns="http://www.w3.org/2000/svg">
<g id="telegram_icon">
<path id="Vector" d="M3.48451 10.9763L20.2093 4.41496L20.2292 4.40653L20.3226 4.36701H20.3341C20.4133 4.33881 20.4938 4.31461 20.5755 4.29451L21.3383 4.10669L21.1854 4.87727L18.2955 19.4503L18.2478 19.6908L18.1312 19.749C18.098 19.7871 18.0619 19.8228 18.0231 19.8556L18.0222 19.8563C17.9165 19.9454 17.7878 20.0026 17.6509 20.0214L17.6368 20.0233L17.6227 20.0244C17.4578 20.0376 17.292 20.0112 17.1393 19.9474L17.0794 19.9223L17.0278 19.8828L11.1558 15.3808L10.6956 15.028L11.1123 14.6247L11.5773 14.1747L11.5779 14.1741L14.1908 11.6542C14.1908 11.6542 14.1909 11.6542 14.1909 11.6541C16.1066 9.80532 18.0578 7.92426 18.2118 7.78048M3.48451 10.9763L18.553 8.14601M3.48451 10.9763L3.48293 10.9769M3.48451 10.9763L3.48293 10.9769M18.2118 7.78048L18.553 8.14601M18.2118 7.78048C18.2116 7.78071 18.2113 7.78095 18.2111 7.78118L18.553 8.14601M18.2118 7.78048C18.3719 7.63034 18.4724 7.4992 18.5054 7.37001M18.553 8.14601C18.728 7.98201 18.92 7.76801 18.99 7.49301M18.5054 7.37001C18.5053 7.37009 18.5053 7.37017 18.5053 7.37024L18.99 7.49301M18.5054 7.37001C18.5196 7.31372 18.5191 7.25471 18.5041 7.19862L18.4965 7.17018L18.4922 7.14103C18.4827 7.07572 18.4549 7.01443 18.4121 6.96424C18.3693 6.91404 18.3131 6.87698 18.2501 6.85732L18.2453 6.85584L18.2454 6.85582C18.1146 6.81358 17.9774 6.84815 17.9025 6.87144L17.901 6.8719C17.8095 6.90007 17.7232 6.94008 17.6655 6.96972L17.6618 6.97166L17.6618 6.97164C17.6302 6.98754 17.5992 7.00455 17.5688 7.02264L17.553 7.03202L17.5414 7.03784M18.5054 7.37001C18.5054 7.3699 18.5054 7.36979 18.5055 7.36967L18.99 7.49301M18.99 7.49301L17.5414 7.03784M17.5414 7.03784L17.5556 7.0295L17.3887 6.74433L17.3179 6.62348L17.3265 6.62009L17.3286 6.61927L17.4587 6.56822L17.4591 6.56807L17.77 6.4461L17.7702 6.44604L18.0454 6.33809C18.1504 6.33152 18.2727 6.33922 18.399 6.38001C18.552 6.42774 18.6884 6.51775 18.7924 6.63966C18.8965 6.76157 18.9639 6.91041 18.987 7.06901L17.5414 7.03784ZM17.5414 7.03784L7.17861 13.1045L6.92528 13.2528L6.67232 13.1039C6.64861 13.0899 6.6238 13.0779 6.59813 13.0681L3.46444 12.0129L3.44292 12.0056L3.42215 11.9965C3.37814 11.977 3.33509 11.9555 3.29315 11.932L2.47509 11.4725L3.31267 11.0497C3.35666 11.0275 3.40172 11.0074 3.44769 10.9897L3.46578 10.9827L3.4762 10.9795L3.48293 10.9769M17.5414 7.03784L17.5366 7.04022L17.5266 7.04522L17.3161 6.62419L17.1408 6.69295L3.48293 10.9769M11.46 14.984L11.7642 14.5872L11.8233 14.6325L11.46 14.984ZM11.46 14.984L11.8077 15.3433L11.8612 15.2916L11.46 14.984ZM20.7939 3.75449C20.9858 3.73988 21.2242 3.7555 21.4224 3.88416C21.6339 4.02173 21.7485 4.25773 21.75 4.57097C21.7493 4.59191 21.7473 4.61278 21.744 4.63347L18.7721 19.6178L18.715 19.6749V19.7748C18.6196 19.9607 18.4863 20.1249 18.3235 20.2565C18.1714 20.3781 17.9712 20.4829 17.7191 20.5186C17.4665 20.5522 17.1802 20.5131 16.8602 20.3751C16.8395 20.3655 16.8213 20.3545 16.8049 20.3419C16.8048 20.3419 16.8046 20.3418 16.8045 20.3417L13.5401 17.8401L13.2653 17.6295L12.9715 17.8127L10.1831 19.5513L10.1707 19.5562L10.1272 19.5853C10.0695 19.6238 10.0071 19.6547 9.9414 19.6772C9.82641 19.7152 9.65932 19.7405 9.48156 19.6738L9.4816 19.6738L9.4722 19.6704C9.44086 19.6594 9.4107 19.6453 9.38216 19.6282C9.33081 19.5956 9.27781 19.5473 9.22213 19.4778C9.11457 19.34 8.9915 19.1059 8.86193 18.6979C8.74117 18.3115 8.22169 17.0453 7.72524 15.859L7.72519 15.8589C7.44514 15.1901 7.1635 14.5221 6.88027 13.8547L6.77272 13.6012L6.50105 13.5566C6.4805 13.5532 6.46018 13.5486 6.44021 13.5427L3.28211 12.4803C3.27615 12.4779 3.27026 12.4754 3.26479 12.4732L3.22133 12.4551C3.2069 12.4491 3.19424 12.4437 3.18379 12.4392C3.17524 12.4354 3.1709 12.4334 3.16972 12.4328C3.16968 12.4328 3.16965 12.4328 3.16962 12.4328L3.16965 12.4327L3.16155 12.4289C3.08923 12.3943 2.99387 12.3433 2.89572 12.2735L2.89448 12.2726C2.70203 12.1367 2.45713 11.8999 2.41314 11.548L2.41305 11.5473C2.36275 11.1494 2.65283 10.8795 2.85936 10.7383C2.95537 10.6733 3.05686 10.6167 3.16268 10.5692L3.1627 10.5693L3.16961 10.566C3.21056 10.5469 3.25236 10.5296 3.29486 10.5143L3.32245 10.5043L3.33054 10.5003L20.0236 3.95248L20.0359 3.94766L20.0479 3.94219L20.0483 3.94202C20.1195 3.9137 20.1917 3.88773 20.2646 3.86415C20.4019 3.82048 20.595 3.77036 20.7939 3.75449ZM12.2294 17.6854L12.8425 17.3035L12.2691 16.8641L11.0971 15.9661L10.4298 15.4548L10.2991 16.2853L10.0151 18.0903L9.84509 19.1707L10.7734 18.5924L12.2294 17.6854ZM10.0581 14.9475L10.0582 14.9476L10.0653 14.9407L11.2302 13.8158L11.2303 13.8157L13.843 11.294L13.8432 11.2938L14.816 10.356L14.2164 9.56451L7.69639 13.3815L7.31619 13.6041L7.48914 14.0093L7.52356 14.0899C7.52365 14.0901 7.52374 14.0904 7.52383 14.0906C7.93434 15.0603 8.34032 16.032 8.74176 17.0056L9.42113 18.6532L9.69793 16.8927L9.98094 15.0927L9.98112 15.0915C9.98957 15.0369 10.0161 14.9865 10.0581 14.9475Z" fill="#FFD585" stroke="#191919"/>
</g>
</svg>
