<svg width="24" height="24" viewBox="0 0 24 24" fill="none" xmlns="http://www.w3.org/2000/svg">
<g id="telegram_icon">
<path id="Vector" fill-rule="evenodd" clip-rule="evenodd" d="M5.78801 14.02C5.83126 14.0333 5.87536 14.0437 5.92001 14.051C6.20293 14.7176 6.48427 15.385 6.76401 16.053C7.26701 17.255 7.77401 18.493 7.88501 18.849C8.02401 19.287 8.17001 19.585 8.33001 19.789C8.41301 19.893 8.50801 19.985 8.62001 20.055C8.67882 20.0906 8.74115 20.1201 8.80601 20.143C9.12601 20.263 9.41801 20.213 9.60101 20.152C9.70846 20.1155 9.81066 20.065 9.90501 20.002L9.91001 20L12.736 18.238L16.001 20.74C16.049 20.7767 16.101 20.8077 16.157 20.833C16.549 21.003 16.929 21.063 17.287 21.015C17.643 20.965 17.926 20.816 18.137 20.647C18.3791 20.4515 18.5722 20.2022 18.701 19.919L18.71 19.897L18.713 19.889L18.715 19.885V19.883L18.716 19.882C18.7324 19.8386 18.7458 19.7942 18.756 19.749L21.736 4.72399C21.7442 4.67573 21.7489 4.62693 21.75 4.57799C21.75 4.13799 21.584 3.71899 21.195 3.46599C20.861 3.24899 20.49 3.23899 20.255 3.25699C20.003 3.27699 19.769 3.33899 19.612 3.38899C19.5243 3.41731 19.4376 3.44867 19.352 3.48299L19.341 3.48799L2.62701 10.044L2.62501 10.045C2.56833 10.0655 2.51261 10.0885 2.45801 10.114C2.32542 10.1735 2.19827 10.2444 2.07801 10.326C1.85101 10.481 1.32801 10.907 1.41701 11.611C1.48701 12.171 1.87101 12.516 2.10601 12.682C2.23401 12.773 2.35601 12.838 2.44601 12.881C2.48601 12.901 2.57201 12.935 2.60901 12.951L2.61901 12.954L5.78801 14.02ZM19.926 4.86799H19.924L19.898 4.87899L3.16401 11.444L3.13801 11.454L3.12801 11.457C3.09737 11.4688 3.06733 11.4822 3.03801 11.497C3.06597 11.5127 3.09467 11.527 3.12401 11.54L6.26601 12.598C6.32149 12.6185 6.37503 12.644 6.42601 12.674L16.803 6.59899L16.813 6.59399C16.8535 6.56986 16.8949 6.54718 16.937 6.52599C17.009 6.48899 17.124 6.43499 17.254 6.39499C17.344 6.36699 17.611 6.28799 17.899 6.38099C18.052 6.42872 18.1884 6.51873 18.2924 6.64064C18.3965 6.76255 18.4639 6.91139 18.487 7.06999C18.5243 7.20874 18.5253 7.35472 18.49 7.49399C18.42 7.76899 18.228 7.98299 18.053 8.14699C17.903 8.28699 15.957 10.163 14.038 12.015L11.425 14.535L10.96 14.985L16.832 19.487C16.9113 19.5201 16.9974 19.5338 17.083 19.527C17.1261 19.5211 17.1667 19.503 17.2 19.475C17.2405 19.4407 17.2753 19.4002 17.303 19.355L17.305 19.354L20.195 4.78099C20.1041 4.80337 20.0149 4.83211 19.928 4.86699L19.926 4.86799ZM11.465 17.262L10.293 16.364L10.009 18.169L11.465 17.262ZM9.21801 14.582L10.383 13.457L12.996 10.935L13.969 9.99699L7.44901 13.814L7.48401 13.896C7.89522 14.8674 8.30189 15.8408 8.70401 16.816L8.98701 15.016C9.01285 14.8491 9.09424 14.6968 9.21801 14.582Z" fill="#FFD585"/>
</g>
</svg>
