<svg width="24" height="24" viewBox="0 0 24 24" fill="none" xmlns="http://www.w3.org/2000/svg">
<g id="work_icon">
<path id="Vector" d="M16.9524 19.381C17.0603 19.381 17.1548 19.3405 17.2357 19.2595C17.3167 19.1786 17.3571 19.0841 17.3571 18.9762C17.3571 18.8683 17.3167 18.7738 17.2357 18.6929C17.1548 18.6119 17.0603 18.5714 16.9524 18.5714C16.8444 18.5714 16.75 18.6119 16.669 18.6929C16.5881 18.7738 16.5476 18.8683 16.5476 18.9762C16.5476 19.0841 16.5881 19.1786 16.669 19.2595C16.75 19.3405 16.8444 19.381 16.9524 19.381ZM16.9524 17.7619C17.0603 17.7619 17.1548 17.7214 17.2357 17.6405C17.3167 17.5595 17.3571 17.4651 17.3571 17.3571V14.9286C17.3571 14.8206 17.3167 14.7262 17.2357 14.6452C17.1548 14.5643 17.0603 14.5238 16.9524 14.5238C16.8444 14.5238 16.75 14.5643 16.669 14.6452C16.5881 14.7262 16.5476 14.8206 16.5476 14.9286V17.3571C16.5476 17.4651 16.5881 17.5595 16.669 17.6405C16.75 17.7214 16.8444 17.7619 16.9524 17.7619ZM5.61905 19.381C5.17381 19.381 4.79279 19.2226 4.476 18.9058C4.15921 18.589 4.00054 18.2077 4 17.7619V8.85714C4 8.4119 4.15867 8.03089 4.476 7.71409C4.79333 7.3973 5.17435 7.23863 5.61905 7.2381H8.85714V5.61905C8.85714 5.17381 9.01581 4.79279 9.33314 4.476C9.65048 4.15921 10.0315 4.00054 10.4762 4H13.7143C14.1595 4 14.5408 4.15867 14.8581 4.476C15.1755 4.79333 15.3339 5.17435 15.3333 5.61905V7.2381H18.5714C19.0167 7.2381 19.3979 7.39676 19.7153 7.71409C20.0326 8.03143 20.191 8.41244 20.1905 8.85714V11.2857C20.1905 11.5151 20.1128 11.704 19.9573 11.8524C19.8019 12.0008 19.6098 12.075 19.3809 12.075C19.1521 12.075 18.96 11.9976 18.8046 11.8427C18.6491 11.6878 18.5714 11.4954 18.5714 11.2655V8.85714H5.61905V17.7619H10.881C11.1103 17.7619 11.3027 17.8396 11.4581 17.995C11.6136 18.1505 11.691 18.3426 11.6905 18.5714C11.6899 18.8003 11.6122 18.9926 11.4573 19.1486C11.3024 19.3046 11.1103 19.382 10.881 19.381H5.61905ZM10.4762 7.2381H13.7143V5.61905H10.4762V7.2381ZM16.9524 21C15.8325 21 14.8781 20.6052 14.0891 19.8157C13.3001 19.0261 12.9053 18.0717 12.9048 16.9524C12.9042 15.8331 13.299 14.8787 14.0891 14.0891C14.8792 13.2995 15.8336 12.9048 16.9524 12.9048C18.0711 12.9048 19.0258 13.2995 19.8165 14.0891C20.6071 14.8787 21.0016 15.8331 21 16.9524C20.9984 18.0717 20.6036 19.0264 19.8157 19.8165C19.0277 20.6066 18.0733 21.0011 16.9524 21Z" fill="#FFD585"/>
</g>
</svg>
