<svg width="28" height="28" viewBox="0 0 28 28" fill="none" xmlns="http://www.w3.org/2000/svg">
<path d="M19.6659 23.2898C18.5663 24.3556 17.3659 24.1873 16.2102 23.6824C14.9873 23.1664 13.8654 23.1439 12.5751 23.6824C10.9595 24.3781 10.1068 24.1761 9.14195 23.2898C3.66683 17.6464 4.47464 9.05221 10.6902 8.73806C12.2049 8.8166 13.2595 9.5683 14.1459 9.63562C15.4698 9.36635 16.7376 8.59221 18.1512 8.69318C19.8454 8.82782 21.1244 9.50099 21.9659 10.7127C18.4654 12.8107 19.2956 17.422 22.5044 18.7122C21.8649 20.3951 21.0346 22.0668 19.6546 23.301L19.6659 23.2898ZM14.0337 8.67074C13.8654 6.16879 15.8961 4.1044 18.2298 3.90245C18.5551 6.79708 15.6044 8.95123 14.0337 8.67074Z" fill="#FFD585"/>
</svg>
