<svg width="24" height="24" viewBox="0 0 24 24" fill="none" xmlns="http://www.w3.org/2000/svg">
<path d="M21.75 12.2312C21.75 11.5098 21.6853 10.8162 21.565 10.1503H11.9835V14.0902H17.4586C17.2182 15.3572 16.4968 16.4301 15.4147 17.1515V19.7133H18.7164C20.6402 17.9376 21.75 15.3295 21.75 12.2312Z" fill="#4285F4"/>
<path d="M11.9834 22.1735C14.7303 22.1735 17.0332 21.2671 18.7164 19.7133L15.4147 17.1515C14.5083 17.7619 13.3522 18.1318 11.9834 18.1318C9.33834 18.1318 7.09093 16.3468 6.2863 13.9422H2.90131V16.5688C4.5753 19.8891 8.00654 22.1735 11.9834 22.1735Z" fill="#34A853"/>
<path d="M6.28632 13.933C6.08286 13.3225 5.96262 12.6751 5.96262 12C5.96262 11.3248 6.08286 10.6774 6.28632 10.067V7.44043H2.90133C2.20769 8.80922 1.81 10.3537 1.81 12C1.81 13.6462 2.20769 15.1908 2.90133 16.5596L5.53719 14.5064L6.28632 13.933Z" fill="#FBBC05"/>
<path d="M11.9834 5.87743C13.4817 5.87743 14.8135 6.39535 15.8771 7.3942L18.7904 4.48089C17.0239 2.83464 14.7303 1.82654 11.9834 1.82654C8.00654 1.82654 4.5753 4.11095 2.90131 7.44044L6.2863 10.067C7.09093 7.66241 9.33834 5.87743 11.9834 5.87743Z" fill="#EA4335"/>
</svg>
