<svg width="232" height="64" viewBox="0 0 232 64" fill="none" xmlns="http://www.w3.org/2000/svg">
<g id="Group">
<g id="Clip path group">
<mask id="mask0_2001_126" style="mask-type:luminance" maskUnits="userSpaceOnUse" x="0" y="0" width="232" height="64">
<g id="SVGID_2_">
<path id="Vector" d="M231.833 0H0V64H231.833V0Z" fill="white"/>
</g>
</mask>
<g mask="url(#mask0_2001_126)">
<g id="Group_2">
<g id="Group_3">
<path id="Vector_2" d="M86.1992 24.5609L81.3185 37.0775H81.2398L76.4379 24.5609H73.7614V39.754H75.4145V30.0713C75.4145 28.7331 75.4145 27.631 75.3358 26.6076C75.3358 26.4502 75.3358 26.3715 75.3358 26.214H75.4145L80.5313 39.6753H81.9483L87.1439 26.214H87.2226C87.2226 26.3715 87.2226 26.4502 87.2226 26.6076C87.1439 27.7884 87.0652 28.8905 87.0652 29.9139V39.6753H88.797V24.5609H86.1992Z" fill="#FFD585"/>
<path id="Vector_3" d="M93.048 24.5609V39.754H94.7798V24.5609H93.048Z" fill="#FFD585"/>
<path id="Vector_4" d="M100.763 38.1796V24.5609H99.0307V39.754H107.533V38.1796H100.763Z" fill="#FFD585"/>
<path id="Vector_5" d="M111.783 38.1796V24.5609H110.052V39.754H118.553V38.1796H111.783Z" fill="#FFD585"/>
<path id="Vector_6" d="M121.073 24.5609V39.754H122.804V24.5609H121.073Z" fill="#FFD585"/>
<path id="Vector_7" d="M137.604 26.3714C136.344 24.9545 134.691 24.3247 132.487 24.3247C130.204 24.3247 128.472 25.0332 127.291 26.3714C126.032 27.7097 125.481 29.6777 125.481 32.1181C125.481 32.1968 125.481 32.2755 125.481 32.2755C125.481 34.7159 126.111 36.5264 127.291 37.8647C128.472 39.2029 130.204 39.9114 132.487 39.9114C134.691 39.9114 136.344 39.2029 137.604 37.786C138.785 36.4477 139.414 34.5584 139.414 32.1968C139.414 32.1181 139.414 32.0393 139.414 32.0393C139.493 29.6777 138.863 27.7884 137.604 26.3714ZM137.604 32.3542C137.604 34.3222 137.132 35.8179 136.344 36.8413C135.478 37.8647 134.219 38.4157 132.566 38.4157C130.913 38.4157 129.653 37.8647 128.708 36.8413C127.843 35.8179 127.449 34.3222 127.37 32.3542V32.1968C127.37 30.15 127.843 28.6544 128.708 27.5523C129.574 26.4502 130.834 25.9778 132.566 25.9778C134.219 25.9778 135.478 26.5289 136.344 27.5523C137.21 28.5756 137.604 30.15 137.604 32.1968V32.3542Z" fill="#FFD585"/>
<path id="Vector_8" d="M152.325 24.5609V33.2989C152.325 33.3776 152.325 33.5351 152.325 33.6925V33.8499C152.325 34.2435 152.325 34.7946 152.403 35.5031C152.482 36.5264 152.482 37.1562 152.482 37.3136H152.403L144.138 24.6396H142.17V39.8327H143.823V31.1734C143.823 29.9926 143.744 28.8118 143.665 27.3948C143.665 27.2374 143.665 27.1587 143.665 27.0012H143.744L152.01 39.754H154.057V24.5609H152.325Z" fill="#FFD585"/>
<path id="Vector_9" d="M169.092 24.4821H167.597L161.614 39.754H163.424L165.314 34.952H171.375L173.264 39.754H175.075L169.092 24.4821ZM165.943 33.3776L167.754 28.6543C168.069 27.8671 168.226 27.1587 168.384 26.4502C168.62 27.3161 168.856 28.0246 169.092 28.6543L170.903 33.3776H165.943Z" fill="#FFD585"/>
<path id="Vector_10" d="M186.175 24.5609V34.4797C186.175 35.7392 185.86 36.7626 185.151 37.3924C184.443 38.1009 183.498 38.4157 182.16 38.4157C180.822 38.4157 179.798 38.1009 179.09 37.3924C178.381 36.6839 178.066 35.7392 178.066 34.4797V24.5609H176.335V34.3223C176.335 36.0541 176.807 37.4711 177.83 38.4157C178.854 39.4391 180.271 39.9114 182.081 39.9114C183.892 39.9114 185.387 39.4391 186.411 38.4157C187.434 37.3924 187.985 36.0541 187.985 34.3223V24.5609H186.175Z" fill="#FFD585"/>
<path id="Vector_11" d="M190.032 24.5609V26.1353H194.834V39.754H196.566V26.1353H201.368V24.5609H190.032Z" fill="#FFD585"/>
<path id="Vector_12" d="M214.75 26.3714C213.491 24.9545 211.838 24.3247 209.633 24.3247C207.351 24.3247 205.619 25.0332 204.438 26.3714C203.178 27.7097 202.627 29.6777 202.627 32.1181C202.627 32.1968 202.627 32.2755 202.627 32.2755C202.627 34.7159 203.257 36.5264 204.438 37.8647C205.619 39.2029 207.351 39.9114 209.633 39.9114C211.838 39.9114 213.569 39.2029 214.75 37.786C215.931 36.4477 216.561 34.5584 216.561 32.1968C216.561 32.1181 216.561 32.0393 216.561 32.0393C216.561 29.6777 215.931 27.7884 214.75 26.3714ZM214.672 32.3542C214.672 34.3222 214.199 35.8179 213.412 36.8413C212.546 37.8647 211.287 38.4157 209.633 38.4157C207.98 38.4157 206.721 37.8647 205.776 36.8413C204.91 35.8179 204.517 34.3222 204.438 32.3542V32.1968C204.438 30.15 204.91 28.6544 205.776 27.5523C206.642 26.4502 207.902 25.9778 209.633 25.9778C211.287 25.9778 212.546 26.5289 213.412 27.5523C214.278 28.5756 214.672 30.15 214.672 32.1968V32.3542Z" fill="#FFD585"/>
</g>
<path id="Vector_13" d="M66.0467 39.5965C63.5277 34.3223 60.0639 29.5203 55.9705 25.4268C51.877 21.412 47.2325 18.1058 42.0369 15.5867C41.2497 15.1931 40.2263 15.1931 39.4391 15.5867C34.2435 18.2632 29.599 21.8057 25.5055 25.8991C21.5695 29.9139 18.1845 34.4797 15.5867 39.5178C15.3505 39.9902 15.1931 40.6199 15.2718 41.171C15.2718 41.4071 15.3505 41.5646 15.4293 41.8007C15.6654 42.5879 16.2165 43.139 16.925 43.4539C17.8696 43.8475 18.8143 44.3198 19.7589 44.6347C19.9951 44.7134 20.31 44.8708 20.5461 44.9496C21.6482 45.3432 22.829 45.7368 23.9311 46.1304C29.3628 47.7835 35.0307 48.6494 40.6986 48.6494C46.3665 48.6494 52.0344 47.7835 57.4662 46.1304C57.7023 46.0516 57.9385 45.9729 58.1747 45.8942C59.0406 45.658 59.8278 45.3432 60.6937 45.0283C60.8512 44.9496 61.0873 44.8708 61.2448 44.7921C61.5596 44.7134 61.7958 44.556 62.1107 44.4772C62.8979 44.1624 63.7638 43.7687 64.551 43.4539C65.2595 43.139 65.8106 42.5092 66.0467 41.8007C66.1254 41.5646 66.2042 41.4071 66.2042 41.171C66.3616 40.6986 66.2829 40.1476 66.0467 39.5965ZM64.3149 41.171C64.2361 41.4071 64.0787 41.5646 63.8425 41.722C61.6384 42.7454 58.8831 43.7687 55.6556 44.7134V27.9459C59.1193 31.6457 62.032 35.818 64.2361 40.4625C64.3936 40.6986 64.3936 40.9348 64.3149 41.171ZM46.1304 39.5178L40.8561 46.8389L40.7774 46.9176L40.6986 46.8389L35.4243 39.5178L35.1882 39.2029L35.2669 38.8093H46.1304L46.2091 39.1242L46.1304 39.5178ZM27.0799 27.7884L26.7651 27.4735C26.8438 27.3948 26.8438 27.3948 26.9225 27.3161C30.3862 23.7737 34.3222 20.7823 38.6519 18.2632L38.4157 19.0504L33.2202 36.2903L28.4969 29.7564L27.0799 27.7884ZM36.0541 36.2903L40.7774 19.6802L45.5006 36.2903H36.0541ZM25.8991 44.7134C22.6716 43.7687 19.9163 42.7454 17.7122 41.722C17.476 41.6433 17.3186 41.4071 17.2398 41.171C17.1611 40.9348 17.1611 40.6199 17.3186 40.4625C19.6015 36.0541 22.5141 31.9606 25.8991 28.3395V44.7134ZM32.1181 39.8327L30.3075 45.7368C29.6777 45.5793 29.048 45.5006 28.4969 45.3432V34.1648L32.2755 39.3604L32.1181 39.8327ZM37.0775 46.6814C35.8179 46.6027 34.5584 46.4453 33.3776 46.2878C33.2989 46.2878 33.2989 46.2878 33.2202 46.2878L34.401 42.3518L37.5498 46.7601C37.3924 46.6814 37.2349 46.6814 37.0775 46.6814ZM48.1771 46.2878C46.9963 46.4453 45.8155 46.6027 44.556 46.6814C44.3985 46.6814 44.2411 46.6814 44.0836 46.6814L47.2325 42.2731L48.3346 46.2091C48.3346 46.2878 48.2558 46.2878 48.1771 46.2878ZM53.1365 45.4219C52.5855 45.5793 52.0344 45.658 51.4834 45.7368L49.6728 39.5965L49.5154 39.1242L53.1365 34.1648V45.4219ZM54.7109 27.631L53.1365 29.8352L48.6494 36.1328L43.6113 19.2079L43.3751 18.4207C47.5473 20.7036 51.3259 23.5375 54.6322 26.8438C54.7897 27.0012 54.8684 27.0799 55.0258 27.2374L54.7109 27.631Z" fill="#FFD585"/>
</g>
</g>
</g>
</g>
</svg>
