<svg width="257" height="43" viewBox="0 0 257 43" fill="none" xmlns="http://www.w3.org/2000/svg">
<g id="Group">
<g id="Group_2">
<path id="Vector" d="M90.5679 12.2L84.368 28.0999H84.2679L78.1679 12.2H74.7679V31.5H76.868V19.2C76.868 17.5 76.8679 16.0999 76.7679 14.7999C76.7679 14.5999 76.7679 14.4999 76.7679 14.2999H76.868L83.368 31.4H85.1679L91.7679 14.2999H91.868C91.868 14.4999 91.868 14.5999 91.868 14.7999C91.768 16.2999 91.6679 17.7 91.6679 19V31.4H93.868V12.2H90.5679Z" fill="#CFB53B"/>
<path id="Vector_2" d="M99.2679 12.2V31.5H101.468V12.2H99.2679Z" fill="#CFB53B"/>
<path id="Vector_3" d="M109.068 29.5V12.2H106.868V31.5H117.668V29.5H109.068Z" fill="#CFB53B"/>
<path id="Vector_4" d="M123.068 29.5V12.2H120.868V31.5H131.668V29.5H123.068Z" fill="#CFB53B"/>
<path id="Vector_5" d="M134.868 12.2V31.5H137.068V12.2H134.868Z" fill="#CFB53B"/>
<path id="Vector_6" d="M155.868 14.5C154.268 12.7 152.168 11.9 149.368 11.9C146.468 11.9 144.268 12.8 142.768 14.5C141.168 16.2 140.468 18.7 140.468 21.8C140.468 21.9 140.468 22 140.468 22C140.468 25.1 141.268 27.4 142.768 29.1C144.268 30.8 146.468 31.7 149.368 31.7C152.168 31.7 154.268 30.8 155.868 29C157.368 27.3 158.168 24.9 158.168 21.9C158.168 21.8 158.168 21.7 158.168 21.7C158.268 18.7 157.468 16.3 155.868 14.5ZM155.868 22.1C155.868 24.6 155.268 26.5 154.268 27.8C153.168 29.1 151.568 29.8 149.468 29.8C147.368 29.8 145.768 29.1 144.568 27.8C143.468 26.5 142.968 24.6 142.868 22.1V21.9C142.868 19.3 143.468 17.4 144.568 16C145.668 14.6 147.268 14 149.468 14C151.568 14 153.168 14.7 154.268 16C155.368 17.3 155.868 19.3 155.868 21.9V22.1Z" fill="#CFB53B"/>
<path id="Vector_7" d="M174.568 12.2V23.2999C174.568 23.4 174.568 23.5999 174.568 23.7999V24C174.568 24.5 174.568 25.1999 174.668 26.0999C174.768 27.3999 174.768 28.2 174.768 28.4H174.668L164.168 12.2999H161.668V31.5999H163.768V20.5999C163.768 19.0999 163.668 17.5999 163.568 15.7999C163.568 15.5999 163.568 15.4999 163.568 15.2999H163.668L174.168 31.5H176.768V12.2H174.568Z" fill="#CFB53B"/>
<path id="Vector_8" d="M195.868 12.1H193.968L186.368 31.5H188.668L191.068 25.4H198.768L201.168 31.5H203.468L195.868 12.1ZM191.868 23.4L194.168 17.4C194.568 16.4 194.768 15.5 194.968 14.6C195.268 15.7 195.568 16.6 195.868 17.4L198.168 23.4H191.868Z" fill="#CFB53B"/>
<path id="Vector_9" d="M217.568 12.2V24.7999C217.568 26.4 217.168 27.7 216.268 28.5C215.368 29.4 214.168 29.7999 212.468 29.7999C210.768 29.7999 209.468 29.4 208.568 28.5C207.668 27.6 207.268 26.4 207.268 24.7999V12.2H205.068V24.5999C205.068 26.7999 205.668 28.5999 206.968 29.7999C208.268 31.0999 210.068 31.7 212.368 31.7C214.668 31.7 216.568 31.0999 217.868 29.7999C219.168 28.5 219.868 26.7999 219.868 24.5999V12.2H217.568Z" fill="#CFB53B"/>
<path id="Vector_10" d="M222.468 12.2V14.2H228.568V31.5H230.768V14.2H236.868V12.2H222.468Z" fill="#CFB53B"/>
<path id="Vector_11" d="M253.868 14.5C252.268 12.7 250.168 11.9 247.368 11.9C244.468 11.9 242.268 12.8 240.768 14.5C239.168 16.2 238.468 18.7 238.468 21.8C238.468 21.9 238.468 22 238.468 22C238.468 25.1 239.268 27.4 240.768 29.1C242.268 30.8 244.468 31.7 247.368 31.7C250.168 31.7 252.368 30.8 253.868 29C255.368 27.3 256.168 24.9 256.168 21.9C256.168 21.8 256.168 21.7 256.168 21.7C256.168 18.7 255.368 16.3 253.868 14.5ZM253.768 22.1C253.768 24.6 253.168 26.5 252.168 27.8C251.068 29.1 249.468 29.8 247.368 29.8C245.268 29.8 243.668 29.1 242.468 27.8C241.368 26.5 240.868 24.6 240.768 22.1V21.9C240.768 19.3 241.368 17.4 242.468 16C243.568 14.6 245.168 14 247.368 14C249.468 14 251.068 14.7 252.168 16C253.268 17.3 253.768 19.3 253.768 21.9V22.1Z" fill="#CFB53B"/>
</g>
<path id="Vector_12" d="M64.9679 31.3C61.7679 24.6 57.3679 18.5 52.1679 13.3C46.9679 8.19999 41.0679 3.99999 34.4679 0.799988C33.4679 0.299988 32.1679 0.299988 31.1679 0.799988C24.5679 4.19999 18.6679 8.69999 13.4679 13.9C8.46794 19 4.16794 24.8 0.867938 31.2C0.567938 31.8 0.367938 32.6 0.467938 33.3C0.467938 33.6 0.567939 33.8 0.667939 34.1C0.967939 35.1 1.66794 35.8 2.56794 36.2C3.76794 36.7 4.96794 37.3 6.16794 37.7C6.46794 37.8 6.86794 38 7.16794 38.1C8.56794 38.6 10.0679 39.1 11.4679 39.6C18.3679 41.7 25.5679 42.8 32.7679 42.8C39.9679 42.8 47.1679 41.7 54.0679 39.6C54.3679 39.5 54.6679 39.4 54.9679 39.3C56.0679 39 57.0679 38.6 58.1679 38.2C58.3679 38.1 58.6679 38 58.8679 37.9C59.2679 37.8 59.5679 37.6 59.9679 37.5C60.9679 37.1 62.0679 36.6 63.0679 36.2C63.9679 35.8 64.6679 35 64.9679 34.1C65.0679 33.8 65.1679 33.6 65.1679 33.3C65.3679 32.7 65.2679 32 64.9679 31.3ZM62.7679 33.3C62.6679 33.6 62.4679 33.8 62.1679 34C59.3679 35.3 55.8679 36.6 51.7679 37.8V16.5C56.1679 21.2 59.8679 26.5 62.6679 32.4C62.8679 32.7 62.8679 33 62.7679 33.3ZM39.6679 31.2L32.9679 40.5L32.8679 40.6L32.7679 40.5L26.0679 31.2L25.7679 30.8L25.8679 30.3H39.6679L39.7679 30.7L39.6679 31.2ZM15.4679 16.3L15.0679 15.9C15.1679 15.8 15.1679 15.8 15.2679 15.7C19.6679 11.2 24.6679 7.39999 30.1679 4.19999L29.8679 5.19999L23.2679 27.1L17.2679 18.8L15.4679 16.3ZM26.8679 27.1L32.8679 5.99999L38.8679 27.1H26.8679ZM13.9679 37.8C9.86794 36.6 6.36794 35.3 3.56794 34C3.26794 33.9 3.06794 33.6 2.96794 33.3C2.86794 33 2.86794 32.6 3.06794 32.4C5.96794 26.8 9.66794 21.6 13.9679 17V37.8ZM21.8679 31.6L19.5679 39.1C18.7679 38.9 17.9679 38.8 17.2679 38.6V24.4L22.0679 31L21.8679 31.6ZM28.1679 40.3C26.5679 40.2 24.9679 40 23.4679 39.8C23.3679 39.8 23.3679 39.8 23.2679 39.8L24.7679 34.8L28.7679 40.4C28.5679 40.3 28.3679 40.3 28.1679 40.3ZM42.2679 39.8C40.7679 40 39.2679 40.2 37.6679 40.3C37.4679 40.3 37.2679 40.3 37.0679 40.3L41.0679 34.7L42.4679 39.7C42.4679 39.8 42.3679 39.8 42.2679 39.8ZM48.5679 38.7C47.8679 38.9 47.1679 39 46.4679 39.1L44.1679 31.3L43.9679 30.7L48.5679 24.4V38.7ZM50.5679 16.1L48.5679 18.9L42.8679 26.9L36.4679 5.39999L36.1679 4.39999C41.4679 7.29999 46.2679 10.9 50.4679 15.1C50.6679 15.3 50.7679 15.4 50.9679 15.6L50.5679 16.1Z" fill="#CFB53B"/>
</g>
</svg>
