<svg width="24" height="24" viewBox="0 0 24 24" fill="none" xmlns="http://www.w3.org/2000/svg">
<g filter="url(#filter0_d_62_1008)">
<path d="M17 17L21 21M3 11C3 13.1217 3.84285 15.1566 5.34315 16.6569C6.84344 18.1571 8.87827 19 11 19C13.1217 19 15.1566 18.1571 16.6569 16.6569C18.1571 15.1566 19 13.1217 19 11C19 8.87827 18.1571 6.84344 16.6569 5.34315C15.1566 3.84285 13.1217 3 11 3C8.87827 3 6.84344 3.84285 5.34315 5.34315C3.84285 6.84344 3 8.87827 3 11Z" stroke="#FFD585" stroke-width="1.5" stroke-linecap="round" stroke-linejoin="round" shape-rendering="crispEdges"/>
</g>
<defs>
<filter id="filter0_d_62_1008" x="-32.75" y="-32.75" width="89.5" height="89.5" filterUnits="userSpaceOnUse" color-interpolation-filters="sRGB">
<feFlood flood-opacity="0" result="BackgroundImageFix"/>
<feColorMatrix in="SourceAlpha" type="matrix" values="0 0 0 0 0 0 0 0 0 0 0 0 0 0 0 0 0 0 127 0" result="hardAlpha"/>
<feMorphology radius="10" operator="dilate" in="SourceAlpha" result="effect1_dropShadow_62_1008"/>
<feOffset/>
<feGaussianBlur stdDeviation="12.5"/>
<feComposite in2="hardAlpha" operator="out"/>
<feColorMatrix type="matrix" values="0 0 0 0 1 0 0 0 0 0.835294 0 0 0 0 0.521569 0 0 0 0.4 0"/>
<feBlend mode="normal" in2="BackgroundImageFix" result="effect1_dropShadow_62_1008"/>
<feBlend mode="normal" in="SourceGraphic" in2="effect1_dropShadow_62_1008" result="shape"/>
</filter>
</defs>
</svg>
