<svg width="22" height="22" viewBox="0 0 22 22" fill="none" xmlns="http://www.w3.org/2000/svg">
<path fill-rule="evenodd" clip-rule="evenodd" d="M10.948 0.25H11.052C11.951 0.25 12.7 0.25 13.294 0.33C13.922 0.414 14.489 0.6 14.944 1.055C15.4 1.511 15.586 2.078 15.67 2.705C15.73 3.145 15.745 3.669 15.749 4.275C16.397 4.296 16.975 4.335 17.489 4.403C18.661 4.561 19.61 4.893 20.359 5.641C21.107 6.39 21.439 7.339 21.597 8.511C21.75 9.651 21.75 11.106 21.75 12.944V13.056C21.75 14.894 21.75 16.35 21.597 17.489C21.439 18.661 21.107 19.61 20.359 20.359C19.61 21.107 18.661 21.439 17.489 21.597C16.349 21.75 14.894 21.75 13.056 21.75H8.944C7.106 21.75 5.65 21.75 4.511 21.597C3.339 21.439 2.39 21.107 1.641 20.359C0.893 19.61 0.561 18.661 0.403 17.489C0.25 16.349 0.25 14.894 0.25 13.056V12.944C0.25 11.106 0.25 9.65 0.403 8.511C0.561 7.339 0.893 6.39 1.641 5.641C2.39 4.893 3.339 4.561 4.511 4.403C5.08859 4.33223 5.66927 4.28952 6.251 4.275C6.255 3.669 6.271 3.145 6.33 2.705C6.414 2.078 6.6 1.511 7.055 1.055C7.511 0.6 8.078 0.415 8.705 0.33C9.3 0.25 10.05 0.25 10.948 0.25ZM7.752 4.252C8.13 4.25 8.52733 4.24933 8.944 4.25H13.056C13.4727 4.25 13.87 4.25067 14.248 4.252C14.244 3.682 14.23 3.252 14.184 2.905C14.121 2.444 14.014 2.246 13.884 2.116C13.754 1.986 13.556 1.879 13.094 1.816C12.612 1.752 11.964 1.75 11 1.75C10.036 1.75 9.388 1.752 8.905 1.817C8.444 1.879 8.246 1.986 8.116 2.117C7.986 2.248 7.879 2.444 7.816 2.905C7.77 3.251 7.756 3.681 7.752 4.252ZM4.71 5.89C3.704 6.025 3.124 6.279 2.7 6.702C2.278 7.125 2.024 7.705 1.889 8.711C1.751 9.738 1.749 11.093 1.749 13C1.749 14.907 1.751 16.262 1.889 17.29C2.024 18.295 2.278 18.875 2.701 19.298C3.124 19.721 3.704 19.975 4.71 20.11C5.738 20.248 7.092 20.25 8.999 20.25H12.999C14.906 20.25 16.261 20.248 17.289 20.11C18.294 19.975 18.874 19.721 19.297 19.298C19.72 18.875 19.974 18.295 20.109 17.289C20.247 16.262 20.249 14.907 20.249 13C20.249 11.093 20.247 9.739 20.109 8.71C19.974 7.705 19.72 7.125 19.297 6.702C18.874 6.279 18.294 6.025 17.288 5.89C16.261 5.752 14.906 5.75 12.999 5.75H8.999C7.092 5.75 5.739 5.752 4.71 5.89ZM11 8.25C11.1989 8.25 11.3897 8.32902 11.5303 8.46967C11.671 8.61032 11.75 8.80109 11.75 9V9.01C12.839 9.284 13.75 10.143 13.75 11.333C13.75 11.5319 13.671 11.7227 13.5303 11.8633C13.3897 12.004 13.1989 12.083 13 12.083C12.8011 12.083 12.6103 12.004 12.4697 11.8633C12.329 11.7227 12.25 11.5319 12.25 11.333C12.25 10.949 11.824 10.417 11 10.417C10.176 10.417 9.75 10.949 9.75 11.333C9.75 11.717 10.176 12.25 11 12.25C12.385 12.25 13.75 13.21 13.75 14.667C13.75 15.857 12.839 16.715 11.75 16.99V17C11.75 17.1989 11.671 17.3897 11.5303 17.5303C11.3897 17.671 11.1989 17.75 11 17.75C10.8011 17.75 10.6103 17.671 10.4697 17.5303C10.329 17.3897 10.25 17.1989 10.25 17V16.99C9.161 16.716 8.25 15.857 8.25 14.667C8.25 14.4681 8.32902 14.2773 8.46967 14.1367C8.61032 13.996 8.80109 13.917 9 13.917C9.19891 13.917 9.38968 13.996 9.53033 14.1367C9.67098 14.2773 9.75 14.4681 9.75 14.667C9.75 15.051 10.176 15.583 11 15.583C11.824 15.583 12.25 15.051 12.25 14.667C12.25 14.283 11.824 13.75 11 13.75C9.615 13.75 8.25 12.79 8.25 11.333C8.25 10.143 9.161 9.284 10.25 9.01V9C10.25 8.80109 10.329 8.61032 10.4697 8.46967C10.6103 8.32902 10.8011 8.25 11 8.25Z" fill="#FFD585"/>
</svg>
