<svg width="22" height="20" viewBox="0 0 22 20" fill="none" xmlns="http://www.w3.org/2000/svg">
<path d="M18 9.142C17.6681 9.09437 17.3345 9.05868 17 9.035M5 10.965C4.65867 10.941 4.32533 10.9053 4 10.858M13.5 10C13.5 10.663 13.2366 11.2989 12.7678 11.7678C12.2989 12.2366 11.663 12.5 11 12.5C10.337 12.5 9.70107 12.2366 9.23223 11.7678C8.76339 11.2989 8.5 10.663 8.5 10C8.5 9.33696 8.76339 8.70107 9.23223 8.23223C9.70107 7.76339 10.337 7.5 11 7.5C11.663 7.5 12.2989 7.76339 12.7678 8.23223C13.2366 8.70107 13.5 9.33696 13.5 10Z" stroke="#FFD585" stroke-width="1.5" stroke-linecap="round" stroke-linejoin="round"/>
<path d="M11 17.5C9.668 18.122 7.917 18.5 6 18.5C4.934 18.5 3.92 18.383 3 18.173C1.5 17.829 1 16.926 1 15.386V4.614C1 3.629 2.04 2.953 3 3.173C3.92 3.383 4.934 3.5 6 3.5C7.917 3.5 9.668 3.122 11 2.5C12.332 1.878 14.083 1.5 16 1.5C17.066 1.5 18.08 1.617 19 1.827C20.582 2.19 21 3.12 21 4.614V15.386C21 16.371 19.96 17.047 19 16.827C18.08 16.617 17.066 16.5 16 16.5C14.083 16.5 12.332 16.878 11 17.5Z" stroke="#FFD585" stroke-width="1.5" stroke-linecap="round" stroke-linejoin="round"/>
</svg>
