<svg width="80" height="80" viewBox="0 0 80 80" fill="none" xmlns="http://www.w3.org/2000/svg">
<circle cx="40" cy="40" r="40" fill="white" fill-opacity="0.5"/>
<path d="M40.8383 31.6833L40.7283 31.6166C39.4817 30.8583 38.385 30.19 37.445 29.8533C36.9268 29.6541 36.3728 29.565 35.8183 29.5916C35.2346 29.6362 34.6767 29.8505 34.2133 30.2083C33.2483 30.9316 32.8317 31.9966 32.6033 33.175C32.3817 34.3166 32.2967 35.8033 32.1917 37.6133L32.1867 37.7066C32.1233 38.79 32.0833 39.8616 32.0833 40.8333C32.0833 41.805 32.1233 42.8783 32.1867 43.9616L32.1917 44.0533C32.2967 45.8633 32.3817 47.35 32.6033 48.49C32.8317 49.67 33.2483 50.7333 34.2133 51.4583C34.69 51.8166 35.225 52.03 35.8183 52.075C36.3883 52.1166 36.935 51.9966 37.445 51.8133C38.385 51.4766 39.4817 50.8083 40.7283 50.0516L40.8383 49.985C41.5483 49.5516 42.245 49.1066 42.8667 48.6683C43.628 48.1267 44.3701 47.5586 45.0917 46.965L45.175 46.8966C46.4483 45.8583 47.5283 44.9766 48.275 44.11C49.0883 43.16 49.5833 42.14 49.5833 40.8333C49.5833 39.5266 49.0883 38.505 48.2733 37.5566C47.5283 36.69 46.4483 35.8066 45.1767 34.77L45.0933 34.7016C44.3367 34.085 43.5767 33.495 42.8667 32.9983C42.2046 32.5382 41.5281 32.0991 40.8383 31.6816" fill="#5C4D30"/>
</svg>
