<svg width="18" height="18" viewBox="0 0 18 18" fill="none" xmlns="http://www.w3.org/2000/svg">
<path d="M9.07 15.577L11.477 13.175L9.069 10.773L8.442 11.4L9.825 12.783C9.051 12.787 8.363 12.696 7.761 12.51C7.159 12.3233 6.67667 12.0487 6.314 11.686C5.942 11.3147 5.662 10.893 5.474 10.421C5.286 9.949 5.192 9.47733 5.192 9.006C5.192 8.72267 5.22333 8.43933 5.286 8.156C5.34867 7.87267 5.44 7.604 5.56 7.35L4.883 6.75C4.68967 7.10267 4.54533 7.468 4.45 7.846C4.35467 8.224 4.30733 8.60867 4.308 9C4.308 9.594 4.42333 10.1803 4.654 10.759C4.88467 11.3377 5.22567 11.856 5.677 12.314C6.12833 12.772 6.72133 13.112 7.456 13.334C8.19067 13.556 8.945 13.669 9.719 13.673L8.442 14.95L9.07 15.577ZM13.137 11.25C13.3303 10.8973 13.4743 10.532 13.569 10.154C13.6637 9.776 13.7113 9.39133 13.712 9C13.712 8.408 13.5973 7.81967 13.368 7.235C13.1387 6.65033 12.7953 6.13233 12.338 5.681C11.8933 5.223 11.3017 4.884 10.563 4.664C9.82367 4.44333 9.06933 4.333 8.3 4.333L9.577 3.05L8.95 2.423L6.542 4.825L8.95 7.227L9.577 6.6L8.189 5.212C8.959 5.212 9.648 5.30567 10.256 5.493C10.864 5.68033 11.349 5.95633 11.711 6.321C12.073 6.68567 12.3497 7.104 12.541 7.576C12.7323 8.048 12.8277 8.52067 12.827 8.994C12.827 9.27733 12.796 9.56067 12.734 9.844C12.672 10.1273 12.5807 10.396 12.46 10.65L13.137 11.25ZM9.003 18C7.759 18 6.589 17.764 5.493 17.292C4.39767 16.8193 3.44467 16.178 2.634 15.368C1.82333 14.558 1.18167 13.606 0.709 12.512C0.236333 11.418 0 10.2483 0 9.003C0 7.75767 0.236333 6.58767 0.709 5.493C1.181 4.39767 1.82133 3.44467 2.63 2.634C3.43867 1.82333 4.391 1.18167 5.487 0.709C6.583 0.236333 7.753 0 8.997 0C10.241 0 11.411 0.236333 12.507 0.709C13.6023 1.181 14.5553 1.82167 15.366 2.631C16.1767 3.44033 16.8183 4.39267 17.291 5.488C17.7637 6.58333 18 7.753 18 8.997C18 10.241 17.764 11.411 17.292 12.507C16.82 13.603 16.1787 14.556 15.368 15.366C14.5573 16.176 13.6053 16.8177 12.512 17.291C11.4187 17.7643 10.249 18.0007 9.003 18ZM9 17C11.2333 17 13.125 16.225 14.675 14.675C16.225 13.125 17 11.2333 17 9C17 6.76667 16.225 4.875 14.675 3.325C13.125 1.775 11.2333 1 9 1C6.76667 1 4.875 1.775 3.325 3.325C1.775 4.875 1 6.76667 1 9C1 11.2333 1.775 13.125 3.325 14.675C4.875 16.225 6.76667 17 9 17Z" fill="#FFD585"/>
</svg>
