<svg viewBox="0 0 24 24" xmlns="http://www.w3.org/2000/svg"><svg viewBox="0 0 24 24" fill="none" id="add"><path d="M11.5 13V12.5H11H6C5.84287 12.5 5.73505 12.4523 5.64217 12.3591C5.54829 12.2649 5.50037 12.1559 5.5 11.9988C5.49964 11.8436 5.54677 11.736 5.64094 11.6422C5.73612 11.5473 5.84488 11.5 6 11.5H11H11.5V11V6C11.5 5.84287 11.5477 5.73505 11.6409 5.64217C11.7351 5.54829 11.8441 5.50037 12.0012 5.5C12.1564 5.49964 12.2647 5.54681 12.3595 5.64156C12.4541 5.73625 12.5007 5.84384 12.5 5.99764L12.5 5.99764V6V11V11.5H13H18C18.1572 11.5 18.2657 11.5478 18.3595 11.6416C18.4532 11.7353 18.5004 11.8431 18.5 11.9988C18.4996 12.1559 18.4517 12.2656 18.3572 12.3607C18.2648 12.4537 18.1582 12.5007 18.0024 12.5H18H13H12.5V13V18C12.5 18.1572 12.4522 18.2657 12.3584 18.3595C12.2647 18.4532 12.1569 18.5004 12.0012 18.5C11.8441 18.4996 11.7351 18.4517 11.6409 18.3578C11.5477 18.265 11.5 18.1571 11.5 18V13ZM13 6V10.5V11H13.5H18C18.2833 11 18.521 11.096 18.713 11.288C18.905 11.48 19.0007 11.7173 19 12C18.9993 12.2827 18.9033 12.5203 18.712 12.713C18.5207 12.9057 18.2833 13.0013 18 13H13.5H13V13.5V18C13 18.2833 12.904 18.521 12.712 18.713C12.52 18.905 12.2827 19.0007 12 19C11.7173 18.9993 11.48 18.9033 11.288 18.712C11.096 18.5207 11 18.2833 11 18V13.5V13H10.5L13 6Z"  stroke="currentColor"/></svg>	<svg fill="currentColor" viewBox="0 0 24 24" id="calendar"><path d="M17 14a1 1 0 1 0 0-2 1 1 0 0 0 0 2Zm0 4a1 1 0 1 0 0-2 1 1 0 0 0 0 2Zm-4-5a1 1 0 1 1-2 0 1 1 0 0 1 2 0Zm0 4a1 1 0 1 1-2 0 1 1 0 0 1 2 0Zm-6-3a1 1 0 1 0 0-2 1 1 0 0 0 0 2Zm0 4a1 1 0 1 0 0-2 1 1 0 0 0 0 2Z"/><path fill-rule="evenodd" clip-rule="evenodd" d="M7 1.75a.75.75 0 0 1 .75.75v.763c.662-.013 1.391-.013 2.193-.013h4.113c.803 0 1.532 0 2.194.013V2.5a.75.75 0 1 1 1.5 0v.827c.26.02.506.045.739.076 1.172.158 2.121.49 2.87 1.238.748.749 1.08 1.698 1.238 2.87.153 1.14.153 2.595.153 4.433v2.112c0 1.838 0 3.294-.153 4.433-.158 1.172-.49 2.121-1.238 2.87-.749.748-1.698 1.08-2.87 1.238-1.14.153-2.595.153-4.433.153H9.945c-1.838 0-3.294 0-4.433-.153-1.172-.158-2.121-.49-2.87-1.238-.748-.749-1.08-1.698-1.238-2.87-.153-1.14-.153-2.595-.153-4.433v-2.112c0-1.838 0-3.294.153-4.433.158-1.172.49-2.121 1.238-2.87.749-.748 1.698-1.08 2.87-1.238.233-.03.48-.056.739-.076V2.5A.75.75 0 0 1 7 1.75ZM5.71 4.89c-1.005.135-1.585.389-2.008.812-.423.423-.677 1.003-.812 2.008-.023.17-.042.35-.058.539h18.336c-.016-.19-.035-.37-.058-.54-.135-1.005-.389-1.585-.812-2.008-.423-.423-1.003-.677-2.009-.812-1.027-.138-2.382-.14-4.289-.14h-4c-1.907 0-3.261.003-4.29.141ZM2.75 12c0-.854 0-1.597.013-2.25h18.474c.013.653.013 1.396.013 2.25v2c0 1.907-.002 3.262-.14 4.29-.135 1.005-.389 1.585-.812 2.008-.423.423-1.003.677-2.009.812-1.027.138-2.382.14-4.289.14h-4c-1.907 0-3.261-.002-4.29-.14-1.005-.135-1.585-.389-2.008-.812-.423-.423-.677-1.003-.812-2.009-.138-1.027-.14-2.382-.14-4.289v-2Z"/></svg><svg fill="currentColor" viewBox="0 0 24 24" id="call"><mask id="ca" fill="#fff"><path d="M5.57 7.887C5.285 6 6.616 4.305 8.648 3.684a1.485 1.485 0 0 1 1.821.897l.653 1.74a1.5 1.5 0 0 1-.39 1.632L8.79 9.73a.75.75 0 0 0-.228.705l.018.079.046.195c.242.947.61 1.857 1.094 2.707a10.952 10.952 0 0 0 1.944 2.44l.06.055a.75.75 0 0 0 .723.154l2.51-.79a1.499 1.499 0 0 1 1.607.478l1.188 1.442a1.47 1.47 0 0 1-.133 2.011c-1.556 1.45-3.695 1.747-5.183.552A19.052 19.052 0 0 1 7.9 14.465a18.597 18.597 0 0 1-2.33-6.578Zm4.564 2.647 1.608-1.476a3 3 0 0 0 .781-3.264l-.65-1.74A2.985 2.985 0 0 0 8.208 2.25c-2.524.772-4.55 3.036-4.122 5.863.3 1.975.992 4.486 2.517 7.107a20.552 20.552 0 0 0 4.893 5.708c2.232 1.793 5.211 1.18 7.146-.623a2.97 2.97 0 0 0 .269-4.061L17.724 14.8a3 3 0 0 0-3.216-.954l-2.084.656a9.902 9.902 0 0 1-1.404-1.835 9.45 9.45 0 0 1-.885-2.131"/></mask><path d="M5.57 7.887C5.285 6 6.616 4.305 8.648 3.684a1.485 1.485 0 0 1 1.821.897l.653 1.74a1.5 1.5 0 0 1-.39 1.632L8.79 9.73a.75.75 0 0 0-.228.705l.018.079.046.195c.242.947.61 1.857 1.094 2.707a10.952 10.952 0 0 0 1.944 2.44l.06.055a.75.75 0 0 0 .723.154l2.51-.79a1.499 1.499 0 0 1 1.607.478l1.188 1.442a1.47 1.47 0 0 1-.133 2.011c-1.556 1.45-3.695 1.747-5.183.552A19.052 19.052 0 0 1 7.9 14.465a18.597 18.597 0 0 1-2.33-6.578Zm4.564 2.647 1.608-1.476a3 3 0 0 0 .781-3.264l-.65-1.74A2.985 2.985 0 0 0 8.208 2.25c-2.524.772-4.55 3.036-4.122 5.863.3 1.975.992 4.486 2.517 7.107a20.552 20.552 0 0 0 4.893 5.708c2.232 1.793 5.211 1.18 7.146-.623a2.97 2.97 0 0 0 .269-4.061L17.724 14.8a3 3 0 0 0-3.216-.954l-2.084.656a9.902 9.902 0 0 1-1.404-1.835 9.45 9.45 0 0 1-.885-2.131"/><path d="m5.57 7.887-1.482.225v.002l1.483-.227Zm3.077-4.203-.435-1.435h-.003l.438 1.435Zm1.821.897 1.405-.527-.001-.002-1.404.529Zm.653 1.74-1.405.527 1.405-.527Zm-.39 1.632 1.013 1.106.001-.001-1.014-1.105ZM8.79 9.73l1.013 1.107L8.79 9.73Zm-.228.705-1.47.304.004.017.004.017 1.462-.338Zm.018.079-1.462.337.003.01 1.459-.348Zm.046.195-1.459.347.003.012.003.012 1.453-.371Zm1.094 2.707-1.304.742.005.008.004.008 1.295-.758Zm1.944 2.44-1.028 1.093.012.011.012.011 1.004-1.114Zm.06.055-1.004 1.114.008.007.996-1.121Zm.723.154.45 1.43-.45-1.43Zm2.51-.79-.45-1.432h-.001l.45 1.431Zm1.607.478-1.158.953 1.158-.953Zm1.188 1.442-1.157.953v.001l1.157-.954Zm-.133 2.011-1.023-1.098 1.023 1.098Zm-5.183.552-.94 1.168v.001l.94-1.169ZM7.9 14.465l1.299-.752-.004-.006-1.295.757Zm3.842-5.407-1.014-1.105 1.014 1.105Zm.781-3.264-1.405.526 1.405-.526Zm-.65-1.74 1.404-.525v-.003l-1.405.528ZM8.208 2.25 7.773.815H7.77l.44 1.435ZM4.087 8.113l-1.483.225 1.483-.225Zm2.517 7.107 1.299-.751-.002-.003-1.297.755Zm4.893 5.708-.94 1.168.001.002.94-1.17Zm7.146-.623-1.022-1.097 1.022 1.098Zm.269-4.061-1.158.953 1.158-.953ZM17.724 14.8l1.158-.953-1.158.954Zm-3.216-.954.45 1.431-.45-1.43Zm-2.084.656-1.076 1.044.644.665.882-.278-.45-1.431Zm-1.404-1.835-1.304.74.007.014.008.013 1.29-.766ZM7.054 7.663c-.145-.952.5-2.075 2.032-2.543l-.877-2.87c-2.533.774-4.55 3.041-4.121 5.863l2.966-.45Zm2.03-2.543a.015.015 0 0 1-.012 0l1.326-2.692a2.985 2.985 0 0 0-2.186-.178l.871 2.87Zm-.012 0a.015.015 0 0 1-.007-.009l2.807-1.058a2.985 2.985 0 0 0-1.474-1.625L9.072 5.118Zm-.008-.011.652 1.74 2.81-1.054-.653-1.74-2.81 1.054Zm.652 1.74 2.918.697a3 3 0 0 0-.109-1.751L9.716 6.848Zm0 0 2.03 2.21a3 3 0 0 0 .888-1.513l-2.918-.697Zm.002-.001L7.777 8.624l2.026 2.213 1.94-1.778-2.025-2.212ZM7.777 8.624a2.25 2.25 0 0 0-.621.967l2.854.923a.75.75 0 0 1-.207.323L7.777 8.624Zm-.621.967a2.25 2.25 0 0 0-.063 1.148l2.938-.607a.75.75 0 0 1-.021.382l-2.854-.923ZM7.1 10.773l.018.078 2.923-.675-.018-.078-2.923.675Zm.02.088.047.195 2.918-.695-.046-.196-2.918.696Zm.053.219a12.449 12.449 0 0 0 1.243 3.078l2.607-1.484a9.447 9.447 0 0 1-.943-2.337l-2.907.743Zm1.252 3.094a12.45 12.45 0 0 0 2.21 2.775l2.057-2.185a9.454 9.454 0 0 1-1.678-2.106l-2.589 1.516Zm2.235 2.797.06.054 2.007-2.23-.06-.053-2.007 2.23Zm.068.061c.29.258.643.437 1.024.518l.627-2.934a.75.75 0 0 1 .34.173l-1.99 2.243Zm1.024.518c.38.081.774.063 1.145-.054l-.9-2.862a.75.75 0 0 1 .382-.018l-.627 2.934Zm1.146-.054 2.51-.79-.902-2.862-2.51.79.902 2.862Zm2.508-.79.855-2.876a3 3 0 0 0-1.754.013l.899 2.863Zm0 0 2.317-1.906a3 3 0 0 0-1.462-.97l-.855 2.876Zm0 0 1.189 1.442 2.315-1.907-1.188-1.442-2.315 1.908Zm1.19 1.443a.04.04 0 0 1-.007-.012l-.001-.01c0-.003 0-.006.002-.01a.035.035 0 0 1 .006-.009l2.045 2.196a2.97 2.97 0 0 0 .268-4.064l-2.314 1.909Zm0-.04c-1.17 1.09-2.468 1.084-3.22.48l-1.88 2.338c2.225 1.787 5.204 1.187 7.146-.624l-2.046-2.194Zm-3.218.481a17.55 17.55 0 0 1-4.18-4.877l-2.596 1.503a20.549 20.549 0 0 0 4.893 5.71l1.883-2.336Zm-4.183-4.883A17.097 17.097 0 0 1 7.054 7.66l-2.966.454a20.097 20.097 0 0 0 2.518 7.108l2.59-1.515Zm1.953-2.068 1.608-1.475-2.029-2.21L9.12 9.428l2.028 2.21Zm1.608-1.475a4.5 4.5 0 0 0 1.335-2.269l-2.918-.698a1.5 1.5 0 0 1-.445.756l2.028 2.211Zm1.335-2.269a4.5 4.5 0 0 0-.163-2.627l-2.81 1.053a1.5 1.5 0 0 1 .055.876l2.918.698Zm-.163-2.626-.65-1.74-2.81 1.051.65 1.74 2.81-1.051Zm-.652-1.743a4.485 4.485 0 0 0-2.215-2.444L9.735 3.773c.338.167.6.457.734.81l2.807-1.057Zm-2.215-2.444A4.485 4.485 0 0 0 7.773.815l.873 2.87c.361-.11.75-.078 1.089.088l1.326-2.69ZM7.77.816c-3.008.92-5.74 3.746-5.167 7.522l2.966-.45c-.285-1.878 1.037-3.58 3.078-4.204L7.77.816ZM2.603 8.339a21.654 21.654 0 0 0 2.704 7.636L7.9 14.466a18.654 18.654 0 0 1-2.33-6.578l-2.967.45Zm2.702 7.633a22.05 22.05 0 0 0 5.25 6.124l1.882-2.336a19.05 19.05 0 0 1-4.535-5.291l-2.597 1.503Zm5.252 6.126c2.979 2.392 6.8 1.456 9.108-.695l-2.045-2.195c-1.561 1.455-3.7 1.743-5.184.55l-1.879 2.34Zm9.108-.695a4.47 4.47 0 0 0 1.414-2.976l-2.994-.198a1.47 1.47 0 0 1-.465.979l2.045 2.195Zm1.414-2.976a4.47 4.47 0 0 0-1.01-3.137l-2.316 1.907c.238.29.357.658.332 1.032l2.994.198Zm-1.01-3.137-1.188-1.443-2.316 1.907 1.188 1.443 2.316-1.907Zm-1.188-1.443a4.5 4.5 0 0 0-2.194-1.453l-.853 2.876a1.5 1.5 0 0 1 .731.484l2.316-1.907Zm-2.194-1.453a4.5 4.5 0 0 0-2.63.022l.9 2.861a1.5 1.5 0 0 1 .877-.007l.853-2.876Zm-2.63.022-2.084.655.9 2.862 2.084-.656-.9-2.861Zm-.557 1.042A8.4 8.4 0 0 1 12.31 11.9L9.73 13.434c.455.765.997 1.474 1.617 2.112l2.153-2.088Zm-1.176-1.53a7.952 7.952 0 0 1-.744-1.794l-2.89.804c.239.862.583 1.691 1.025 2.47l2.61-1.48Z" mask="url(#ca)"/></svg><svg fill="none" viewBox="0 0 24 24" id="close"><path d="m16.875 7.125-9.75 9.75m0-9.75 9.75 9.75" stroke="currentColor" stroke-width="2.25" stroke-linecap="round" stroke-linejoin="round"/></svg><svg fill="none" viewBox="0 0 24 24" id="download"><path d="M13 11.443V5a.96.96 0 0 0-.287-.712A.965.965 0 0 0 12 4a.972.972 0 0 0-.712.288A.965.965 0 0 0 11 5l2 6.443Zm0 0-.354.354.354.353h.5v-.5m-.5-.207.5.207m0 0 1.375-1.375c.2-.2.438-.296.713-.288.275.008.513.112.712.313.183.2.28.433.288.7a.913.913 0 0 1-.288.7l-3.6 3.6c-.1.1-.208.171-.325.213a1.082 1.082 0 0 1-.375.062l1.5-3.925ZM18 17.5v.5H6v-2a.96.96 0 0 0-.287-.712A.965.965 0 0 0 5 15a.973.973 0 0 0-.712.288A.965.965 0 0 0 4 16v2m14-.5L4 18m14-.5V16c0-.283.096-.52.288-.712A.973.973 0 0 1 19 15c.283 0 .52.095.713.288A.96.96 0 0 1 20 16v2c0 .55-.196 1.021-.587 1.413A1.92 1.92 0 0 1 18 20v-2.5ZM4 18h.5H4Zm8.002-2.925H12a.616.616 0 0 1-.208-.033.37.37 0 0 1-.137-.094l-.001-.002-3.6-3.6a.42.42 0 0 1-.142-.331.55.55 0 0 1 .149-.369.517.517 0 0 1 .367-.158.433.433 0 0 1 .343.14l1.875 1.876.854.853V5c0-.157.048-.265.14-.358a.474.474 0 0 1 .361-.142c.155 0 .264.047.358.142a.462.462 0 0 1 .141.356v8.359l.854-.853 1.875-1.875a.434.434 0 0 1 .345-.142c.14.004.255.05.364.158.1.112.146.23.15.371a.416.416 0 0 1-.141.33l-3.6 3.6a.387.387 0 0 1-.141.097.583.583 0 0 1-.204.032Z" fill="currentColor" stroke="currentColor"/></svg><svg fill="none" viewBox="0 0 24 24" id="edit"><path d="M7 7H6a2 2 0 0 0-2 2v9a2 2 0 0 0 2 2h9a2 2 0 0 0 2-2v-1" stroke="currentColor" stroke-width="2" stroke-linecap="round" stroke-linejoin="round"/><path d="m16 5 3 3m1.385-1.415a2.1 2.1 0 0 0-2.97-2.97L9 12v3h3l8.385-8.415Z" stroke="currentColor" stroke-width="2" stroke-linecap="round" stroke-linejoin="round"/></svg><svg fill="none" viewBox="0 0 24 24" id="message"><path d="M20.29 8.517a8.954 8.954 0 0 1 .698 3.523 8.967 8.967 0 0 1-.72 3.501 8.903 8.903 0 0 1-1.936 2.85 8.916 8.916 0 0 1-2.865 1.91 8.995 8.995 0 0 1-3.465.687h-.042a9.016 9.016 0 0 1-4.01-.963v-.001H4.888a.912.912 0 0 1-.912-.912v-3.054h.002l-.003-.005a9.017 9.017 0 0 1-.963-4.01 8.992 8.992 0 0 1 .688-3.51 8.907 8.907 0 0 1 1.91-2.865 8.967 8.967 0 0 1 6.35-2.656H12c1.208 0 2.38.234 3.483.698a8.991 8.991 0 0 1 4.807 4.807Zm0 0 .01-.005m-.01.005.01-.005m0 0a8.966 8.966 0 0 1 .7 3.528 8.98 8.98 0 0 1-.721 3.506L15.488 3.699A9.002 9.002 0 0 1 20.3 8.512Zm-8.334 10.973H12a7.445 7.445 0 0 0 5.274-2.165 7.456 7.456 0 0 0 2.215-5.286 7.456 7.456 0 0 0-2.191-5.328 7.449 7.449 0 0 0-5.296-2.191h-.034A7.429 7.429 0 0 0 6.68 6.726a7.439 7.439 0 0 0-2.165 5.308 7.511 7.511 0 0 0 .875 3.483l.09.166v2.838h2.837l.166.089a7.51 7.51 0 0 0 3.483.875Zm-.64-6.811a.953.953 0 1 1 1.348-1.348.953.953 0 0 1-1.348 1.348Zm4.018 0a.953.953 0 1 1 1.347-1.348.953.953 0 0 1-1.347 1.348Zm-8.035 0a.953.953 0 1 1 1.347-1.348.953.953 0 0 1-1.347 1.348Z" fill="currentColor" stroke="currentColor" stroke-width=".023"/></svg><svg fill="none" viewBox="0 0 24 24" id="more-arrow"><path d="m7 9 5 5 5-5" stroke="currentColor" stroke-width="2" stroke-linecap="round" stroke-linejoin="round"/></svg><svg fill="none" viewBox="0 0 24 24" id="pay"><mask id="ia" fill="#fff"><path fill-rule="evenodd" clip-rule="evenodd" d="m12.594 23.258-.012.002-.07.035-.02.004-.015-.004-.07-.036c-.011-.003-.02 0-.025.006l-.004.01-.017.428.005.02.01.013.104.074.015.004.012-.004.104-.074.012-.016.004-.017-.017-.427c-.002-.01-.008-.017-.016-.018Zm.264-.113-.014.002-.184.093-.01.01-.003.01.018.43.005.013.008.008.201.092c.013.003.023 0 .03-.008l.003-.014-.034-.614c-.003-.013-.01-.02-.02-.022Zm-.715.002a.02.02 0 0 0-.027.006l-.006.014-.034.614c0 .012.006.02.017.024l.015-.002.201-.093.01-.008.003-.011.018-.43-.003-.012-.01-.01-.184-.092Z"/></mask><path d="m12.594 23.258.165-.986-.165-.028-.164.028.164.986Zm-.012.002-.164-.986-.146.024-.132.065.442.897Zm-.07.035.195.98.129-.025.117-.058-.442-.897Zm-.02.004-.276.962.234.066.237-.048-.196-.98Zm-.015-.004-.452.892.085.043.093.026.274-.961Zm-.07-.036.451-.892-.1-.05-.11-.028-.242.97Zm-.025.006-.78-.625-.093.116-.055.138.928.37Zm-.004.01-.928-.371-.064.16-.007.171 1 .04Zm-.017.428-.999-.04-.006.143.035.14.97-.243Zm.005.02-.97.242.05.203.127.165.793-.61Zm.01.013-.792.61.09.118.122.087.58-.815Zm.104.074-.58.815.148.105.175.046.257-.966Zm.015.004-.257.966.29.077.283-.094-.316-.95Zm.012-.004.316.949.142-.048.122-.086-.58-.815Zm.104-.074.58.815.127-.09.093-.125-.8-.6Zm.012-.016.8.6.126-.167.048-.204-.974-.23Zm.004-.017.974.229.03-.133-.005-.136-.999.04Zm-.017-.427 1-.04-.005-.103-.025-.1-.97.243Zm.248-.131.196-.98-.168-.034-.17.024.142.99Zm-.014.002-.141-.99-.163.023-.147.075.451.892Zm-.184.093-.45-.892-.144.072-.113.113.707.707Zm-.01.01-.707-.707-.188.188-.07.256.965.263Zm-.003.01-.965-.262-.04.15.006.155 1-.042Zm.018.43-.999.043.008.178.068.165.923-.385Zm.005.013-.923.385.076.182.14.14.707-.707Zm.008.008-.707.707.127.127.164.075.416-.91Zm.201.092-.416.91.078.035.084.022.254-.967Zm.03-.008.792.61.116-.152.053-.183-.962-.275Zm.003-.014.962.275.046-.162-.01-.168-.998.055Zm-.034-.614.999-.055-.006-.101-.026-.099-.967.255Zm-.735-.02-.518.855.035.021.036.018.447-.894Zm-.027.006-.832-.555-.05.076-.037.085.92.394Zm-.006.014-.919-.394-.07.162-.01.177 1 .055Zm-.034.614-.998-.055-.003.055.003.055.998-.055Zm.017.024-.351.936.235.088.248-.033-.132-.991Zm.015-.002.132.991.15-.02.138-.064-.42-.907Zm.201-.093.42.907.11-.05.095-.076-.625-.781Zm.01-.008.625.78.254-.203.086-.314-.965-.263Zm.003-.011.965.263.03-.109.004-.112-.999-.042Zm.018-.43 1 .042.005-.145-.035-.14-.97.243Zm-.003-.012.97-.243-.067-.268-.196-.196-.707.707Zm-.01-.01.707-.707-.115-.115-.145-.073-.447.895Zm.103-.967-.012.002.329 1.972.012-.002-.33-1.972Zm-.29.091-.071.035.884 1.794.071-.035-.884-1.794Zm.175-.049-.02.004.392 1.961.02-.003-.392-1.962Zm.45.023-.013-.004-.55 1.924.014.003.55-1.923Zm.164.066-.07-.036-.905 1.784.07.036.905-1.784Zm-.28-.114a1.028 1.028 0 0 0-1.048.351l1.562 1.25a.982.982 0 0 1-1 .34l.486-1.941Zm-1.195.605-.004.01 1.857.742.004-.01-1.857-.742Zm-.075.341-.017.428 1.998.08.017-.428-1.998-.08Zm.012.71.005.02 1.94-.485-.005-.02-1.94.485Zm.182.388.01.013 1.586-1.22-.01-.013-1.586 1.22Zm.223.218.104.074 1.16-1.63-.104-.074-1.16 1.63Zm.427.225.014.004.516-1.932-.015-.004-.515 1.932Zm.588-.013.012-.004-.632-1.898-.012.004.632 1.898Zm.276-.138.104-.074-1.16-1.63-.104.074 1.16 1.63Zm.324-.29.012-.015-1.6-1.2-.012.016 1.6 1.2Zm.186-.386.004-.017-1.947-.458-.004.017 1.947.458Zm.03-.286-.018-.427-1.998.08.017.427 1.998-.08Zm-.047-.63c-.058-.233-.277-.67-.821-.762l-.33 1.973a.983.983 0 0 1-.789-.726l1.94-.485Zm-.863-.878-.014.002.283 1.98.013-.002-.282-1.98Zm-.324.1-.184.093.902 1.784.184-.093-.902-1.785Zm-.44.278-.01.01 1.414 1.414.01-.01-1.414-1.414Zm-.268.454-.003.01 1.93.527.003-.011-1.93-.526Zm-.037.316.018.43 1.998-.084-.018-.43-1.998.084Zm.094.773.005.012 1.846-.77-.005-.012-1.846.77Zm.221.334.008.008 1.414-1.414-.008-.008-1.414 1.414Zm.299.21.201.092.832-1.818-.2-.092-.833 1.818Zm.363.15a1.03 1.03 0 0 0 1.076-.365l-1.585-1.22a.978.978 0 0 1 1.018-.35l-.51 1.935Zm1.245-.7.004-.014-1.923-.55-.004.014 1.923.55Zm.04-.344-.033-.614-1.997.11.034.614 1.997-.11Zm-.065-.814a1.026 1.026 0 0 0-.79-.748l-.393 1.961a.977.977 0 0 1-.75-.704l1.933-.509Zm-1.184-.62a1.021 1.021 0 0 0-.75-.124l.434 1.953a.98.98 0 0 1-.72-.119l1.037-1.71Zm-.75-.124a1.02 1.02 0 0 0-.627.43l1.664 1.11a.98.98 0 0 1-.603.413l-.434-1.953Zm-.714.591-.006.014 1.838.788.006-.014-1.838-.788Zm-.085.353-.034.614 1.997.11.034-.614-1.997-.11Zm-.034.724a1.028 1.028 0 0 0 .664.905l.702-1.872a.975.975 0 0 1 .63.857l-1.996.11Zm1.147.96.015-.002-.264-1.982-.015.002.264 1.982Zm.303-.085.201-.093-.84-1.816-.2.093.84 1.816Zm.406-.22.01-.008-1.25-1.562-.01.008 1.25 1.562Zm.35-.526.003-.011-1.93-.526-.003.01 1.93.527Zm.037-.232.018-.43-1.998-.084-.018.43 1.998.084Zm-.01-.715-.004-.012-1.94.485.003.012 1.94-.485Zm-.267-.476-.01-.01-1.414 1.414.01.01 1.414-1.414Zm-.27-.198-.184-.091-.894 1.788.184.092.894-1.788Z" fill="currentColor" mask="url(#ia)"/><path d="M2.5 7a2.5 2.5 0 0 1 2.346-2.495l.161-.005H19a2.5 2.5 0 0 1 2.495 2.346l.005.161V17a2.5 2.5 0 0 1-2.346 2.495l-.161.005H5a2.5 2.5 0 0 1-2.495-2.346l-.005-.161V7Zm18 3v-.5h-17V17a1.5 1.5 0 0 0 1.324 1.49l.015.001.014.001.117.007.015.001H19a1.5 1.5 0 0 0 1.49-1.325l.001-.014.001-.014.007-.117.001-.015V10Zm-4.319 3.646a.5.5 0 0 1 0 .707l-1.828 1.828-.006.007a.5.5 0 1 1-.707-.707l.008-.008.12-.12.845-.853H9a.5.5 0 0 1 0-1H14.621l-.853-.854-.121-.12a.5.5 0 0 1 .707-.708l1.827 1.829ZM3.5 8v.5h17V7A1.5 1.5 0 0 0 19 5.5H5A1.5 1.5 0 0 0 3.5 7v1Z" fill="currentColor" stroke="currentColor"/></svg><svg fill="none" viewBox="0 0 24 24" id="review"><path d="m12.01 6.837 1.09 2.112.09.172.19.027 2.275.331L14 10.971l-.168.151.055.219.539 2.155-2.241-1.26-.184-.104-.184.104-2.241 1.26.539-2.155.054-.219-.167-.15-1.653-1.49 2.354-.333.198-.028.087-.18 1.023-2.104Z" fill="#FFD585" stroke="#FFD585" stroke-width=".75"/><path d="M10.875 16.875H4.5V16.5A1.497 1.497 0 0 1 3 15l7.875 1.875Zm0 0v.75H4.5A2.625 2.625 0 0 1 1.875 15V6A2.625 2.625 0 0 1 4.5 3.375h15A2.625 2.625 0 0 1 22.125 6v9a2.625 2.625 0 0 1-2.625 2.625h-3.844l-.108.189-2.385 4.173-.652-.375 2.707-4.737h4.281-8.624ZM2.625 6v9L4.5 4.5A1.498 1.498 0 0 0 3 6h-.375ZM19.5 4.125h-15L21 6a1.497 1.497 0 0 0-1.5-1.5v-.375Zm1.875 10.874V6.001L19.5 16.5A1.497 1.497 0 0 0 21 15h.375Z" fill="#FFD585" stroke="#FFD585" stroke-width=".75"/></svg><svg fill="none" viewBox="0 0 24 24" id="trash"><path d="M14 11v6m-4-6v6M6 7v12a2 2 0 0 0 2 2h8a2 2 0 0 0 2-2V7M4 7h16M7 7l2-4h6l2 4" stroke="currentColor" stroke-width="1.5" stroke-linecap="round" stroke-linejoin="round"/></svg></svg>