<svg width="24" height="24" viewBox="0 0 24 24" fill="none" xmlns="http://www.w3.org/2000/svg">
<path d="M12 21.325C11.7667 21.325 11.5293 21.2834 11.288 21.2C11.0467 21.1167 10.834 20.9834 10.65 20.8L8.925 19.225C7.15833 17.6084 5.56233 16.0044 4.137 14.413C2.71167 12.8217 1.99933 11.0674 2 9.15002C2 7.58336 2.525 6.27502 3.575 5.22502C4.625 4.17502 5.93333 3.65002 7.5 3.65002C8.38333 3.65002 9.21667 3.83736 10 4.21202C10.7833 4.58669 11.45 5.09936 12 5.75002C12.55 5.10002 13.2167 4.58769 14 4.21302C14.7833 3.83836 15.6167 3.65069 16.5 3.65002C18.0667 3.65002 19.375 4.17502 20.425 5.22502C21.475 6.27502 22 7.58336 22 9.15002C22 11.0667 21.2917 12.825 19.875 14.425C18.4583 16.025 16.85 17.6334 15.05 19.25L13.35 20.8C13.1667 20.9834 12.9543 21.1167 12.713 21.2C12.4717 21.2834 12.234 21.325 12 21.325ZM11.05 7.75002C10.5667 7.06669 10.05 6.54569 9.5 6.18702C8.95 5.82836 8.28333 5.64936 7.5 5.65002C6.5 5.65002 5.66667 5.98336 5 6.65002C4.33333 7.31669 4 8.15002 4 9.15002C4 10.0167 4.30833 10.9377 4.925 11.913C5.54167 12.8884 6.27933 13.834 7.138 14.75C7.99667 15.666 8.88 16.5244 9.788 17.325C10.696 18.1257 11.4333 18.784 12 19.3C12.5667 18.7834 13.3043 18.125 14.213 17.325C15.1217 16.525 16.005 15.6667 16.863 14.75C17.721 13.8334 18.4583 12.8877 19.075 11.913C19.6917 10.9384 20 10.0174 20 9.15002C20 8.15002 19.6667 7.31669 19 6.65002C18.3333 5.98336 17.5 5.65002 16.5 5.65002C15.7167 5.65002 15.05 5.82936 14.5 6.18802C13.95 6.54669 13.4333 7.06736 12.95 7.75002C12.8333 7.91669 12.6917 8.04169 12.525 8.12502C12.3583 8.20836 12.1833 8.25002 12 8.25002C11.8167 8.25002 11.6417 8.20836 11.475 8.12502C11.3083 8.04169 11.1667 7.91669 11.05 7.75002Z" fill="#FFD585"/>
</svg>
