<svg width="19" height="22" viewBox="0 0 19 22" fill="none" xmlns="http://www.w3.org/2000/svg">
<g id="Group">
<path id="Vector" d="M9 0.335938C9.25488 0.33622 9.50003 0.433817 9.68537 0.608786C9.8707 0.783755 9.98223 1.02289 9.99717 1.27733C10.0121 1.53177 9.92933 1.78232 9.76574 1.97777C9.60215 2.17322 9.3701 2.29883 9.117 2.32894L9 2.33594H8V3.33594H10.764C11.012 3.33593 11.2579 3.38204 11.489 3.47194L11.659 3.54694L14.894 5.16494C15.2019 5.31871 15.465 5.54935 15.6577 5.83455C15.8504 6.11975 15.9662 6.44986 15.994 6.79294L16 6.95394V9.33594H17V8.33594C17.0003 8.08106 17.0979 7.83591 17.2728 7.65057C17.4478 7.46523 17.687 7.3537 17.9414 7.33877C18.1958 7.32383 18.4464 7.40661 18.6418 7.5702C18.8373 7.73379 18.9629 7.96584 18.993 8.21894L19 8.33594V12.3359C18.9997 12.5908 18.9021 12.836 18.7272 13.0213C18.5522 13.2066 18.313 13.3182 18.0586 13.3331C17.8042 13.348 17.5536 13.2653 17.3582 13.1017C17.1627 12.9381 17.0371 12.706 17.007 12.4529L17 12.3359V11.3359H16V12.8359C16 13.1176 15.9405 13.3962 15.8254 13.6533C15.7103 13.9104 15.5421 14.1403 15.332 14.3279L15.2 14.4359L11.867 16.9359C11.571 17.1577 11.2193 17.2931 10.851 17.3269L10.667 17.3359H2C1.49542 17.3361 1.00943 17.1455 0.639452 16.8024C0.269471 16.4594 0.0428434 15.9891 0.00500021 15.4859L1.00268e-07 15.3359V5.33594C-0.000159579 4.83136 0.190406 4.34537 0.533497 3.97539C0.876588 3.60541 1.34684 3.37878 1.85 3.34094L2 3.33594H6V2.33594H5C4.74512 2.33565 4.49997 2.23806 4.31463 2.06309C4.1293 1.88812 4.01777 1.64898 4.00283 1.39454C3.98789 1.1401 4.07067 0.889558 4.23426 0.694105C4.39786 0.498652 4.6299 0.373041 4.883 0.342937L5 0.335938H9ZM10.764 5.33594H2V15.3359H10.667L14 12.8359V6.95394L10.764 5.33594ZM6.643 7.32194C6.77458 7.10396 6.98435 6.94439 7.22954 6.87575C7.47472 6.80711 7.73685 6.83459 7.96248 6.95256C8.18811 7.07054 8.36024 7.27014 8.44377 7.51066C8.5273 7.75118 8.51593 8.01451 8.412 8.24694L8.357 8.35094L7.767 9.33594H8.982C9.728 9.33594 10.203 10.1089 9.902 10.7629L9.848 10.8659L8.358 13.3509C8.22798 13.5723 8.0178 13.7352 7.77099 13.8058C7.52419 13.8765 7.25965 13.8495 7.03218 13.7305C6.8047 13.6115 6.63171 13.4096 6.54903 13.1666C6.46634 12.9235 6.48029 12.658 6.588 12.4249L6.643 12.3209L7.233 11.3359H6.019C5.85008 11.336 5.68386 11.2936 5.53554 11.2128C5.38723 11.1319 5.26155 11.0152 5.17002 10.8732C5.07849 10.7312 5.02403 10.5686 5.01163 10.4001C4.99922 10.2317 5.02926 10.0628 5.099 9.90894L5.153 9.80594L6.643 7.32194Z" fill="#7C7C7C"/>
</g>
</svg>
