<svg width="24" height="25" viewBox="0 0 24 25" fill="none" xmlns="http://www.w3.org/2000/svg">
<g id="speed_icon">
<path id="Vector" d="M20.38 8.90606L19.15 10.7561C19.7432 11.9391 20.0336 13.2509 19.9952 14.5738C19.9568 15.8967 19.5908 17.1894 18.93 18.3361H5.07C4.21117 16.8462 3.8553 15.1192 4.05514 13.4111C4.25499 11.7031 4.99991 10.1049 6.17948 8.85349C7.35905 7.60209 8.91047 6.7641 10.6037 6.46375C12.297 6.16341 14.042 6.41669 15.58 7.18606L17.43 5.95606C15.5465 4.74827 13.3123 4.20706 11.0849 4.419C8.85746 4.63093 6.76545 5.58376 5.1435 7.12507C3.52155 8.66639 2.46337 10.7071 2.13822 12.9209C1.81308 15.1346 2.23975 17.3935 3.35 19.3361C3.52452 19.6383 3.77509 19.8897 4.07684 20.0651C4.37858 20.2405 4.72098 20.334 5.07 20.3361H18.92C19.2724 20.3375 19.619 20.2457 19.9245 20.0701C20.2301 19.8945 20.4838 19.6413 20.66 19.3361C21.5814 17.74 22.0438 15.9203 21.9961 14.078C21.9485 12.2357 21.3926 10.4424 20.39 8.89606L20.38 8.90606ZM10.59 15.7461C10.7758 15.932 10.9963 16.0795 11.2391 16.1802C11.4819 16.2808 11.7422 16.3326 12.005 16.3326C12.2678 16.3326 12.5281 16.2808 12.7709 16.1802C13.0137 16.0795 13.2343 15.932 13.42 15.7461L19.08 7.25606L10.59 12.9161C10.4041 13.1018 10.2565 13.3224 10.1559 13.5652C10.0552 13.808 10.0034 14.0682 10.0034 14.3311C10.0034 14.5939 10.0552 14.8541 10.1559 15.0969C10.2565 15.3397 10.4041 15.5603 10.59 15.7461Z" fill="#7C7C7C"/>
</g>
</svg>
