<svg width="156" height="119" viewBox="0 0 156 119" fill="none" xmlns="http://www.w3.org/2000/svg">
<g id="Group">
<g id="Clip path group">
<mask id="mask0_5_49" style="mask-type:luminance" maskUnits="userSpaceOnUse" x="0" y="0" width="156" height="119">
<g id="SVGID_2_">
<path id="Vector" d="M155.068 0H0.36792V118.4H155.068V0Z" fill="white"/>
</g>
</mask>
<g mask="url(#mask0_5_49)">
<g id="Group_2">
<path id="Vector_2" d="M25.0679 91.1L20.7679 102.3H20.6679L16.3679 91.1H13.9679V104.7H15.3679V96C15.3679 94.8 15.3679 93.8 15.2679 92.9C15.2679 92.8 15.2679 92.7 15.2679 92.6H15.3679L19.9679 104.6H21.2679L25.8679 92.6H25.9679C25.9679 92.7 25.9679 92.8 25.9679 92.9C25.8679 94 25.8679 94.9 25.8679 95.8V104.6H27.3679V91.1H25.0679Z" fill="#FFD585"/>
<path id="Vector_3" d="M31.1679 91.1V104.7H32.7679V91.1H31.1679Z" fill="#FFD585"/>
<path id="Vector_4" d="M37.9679 103.2V91.1H36.3679V104.7H43.9679V103.3H37.9679V103.2Z" fill="#FFD585"/>
<path id="Vector_5" d="M47.8679 103.2V91.1H46.2679V104.7H53.8679V103.3H47.8679V103.2Z" fill="#FFD585"/>
<path id="Vector_6" d="M56.1679 91.1V104.7H57.7679V91.1H56.1679Z" fill="#FFD585"/>
<path id="Vector_7" d="M70.9679 92.7C69.8679 91.5 68.3679 90.8 66.3679 90.8C64.3679 90.8 62.7679 91.4 61.7679 92.6C60.6679 93.8 60.1679 95.5 60.1679 97.7C60.1679 97.8 60.1679 97.8 60.1679 97.9C60.1679 100 60.7679 101.7 61.7679 102.9C62.8679 104.1 64.3679 104.7 66.3679 104.7C68.3679 104.7 69.8679 104.1 70.9679 102.8C72.0679 101.6 72.5679 99.9 72.5679 97.8C72.5679 97.7 72.5679 97.7 72.5679 97.6C72.5679 95.6 72.0679 93.9 70.9679 92.7ZM70.9679 98C70.9679 99.8 70.5679 101.1 69.7679 102C68.9679 102.9 67.8679 103.4 66.3679 103.4C64.8679 103.4 63.7679 102.9 62.9679 102C62.1679 101.1 61.8679 99.7 61.7679 98V97.8C61.7679 96 62.1679 94.6 62.9679 93.7C63.7679 92.7 64.8679 92.3 66.3679 92.3C67.8679 92.3 68.9679 92.8 69.7679 93.7C70.5679 94.6 70.9679 96 70.9679 97.9V98Z" fill="#FFD585"/>
<path id="Vector_8" d="M84.0679 91.1V98.9C84.0679 99 84.0679 99.1 84.0679 99.3V99.4C84.0679 99.8 84.0679 100.3 84.0679 100.9C84.0679 101.8 84.1679 102.3 84.1679 102.5H84.0679L76.6679 91.2H74.8679V104.8H76.3679V97.1C76.3679 96.1 76.3679 95 76.2679 93.7C76.2679 93.6 76.2679 93.5 76.2679 93.4H76.3679L83.7679 104.8H85.5679V91.1H84.0679Z" fill="#FFD585"/>
<path id="Vector_9" d="M99.0679 91H97.7679L92.3679 104.6H93.9679L95.6679 100.3H101.068L102.768 104.6H104.368L99.0679 91ZM96.2679 98.9L97.8679 94.7C98.1679 94 98.2679 93.3 98.4679 92.7C98.6679 93.5 98.8679 94.1 99.0679 94.7L100.668 98.9H96.2679Z" fill="#FFD585"/>
<path id="Vector_10" d="M114.268 91.1V99.9C114.268 101 113.968 101.9 113.368 102.5C112.768 103.1 111.868 103.4 110.768 103.4C109.568 103.4 108.668 103.1 108.068 102.5C107.468 101.9 107.168 101 107.168 99.9V91H105.568V99.7C105.568 101.3 105.968 102.5 106.868 103.4C107.768 104.3 109.068 104.7 110.668 104.7C112.268 104.7 113.568 104.3 114.568 103.4C115.468 102.5 115.968 101.3 115.968 99.7V90.9H114.268V91.1Z" fill="#FFD585"/>
<path id="Vector_11" d="M117.768 91.1V92.5H122.068V104.7H123.668V92.5H127.968V91.1H117.768Z" fill="#FFD585"/>
<path id="Vector_12" d="M139.868 92.7C138.768 91.5 137.268 90.8 135.268 90.8C133.268 90.8 131.668 91.4 130.668 92.6C129.568 93.8 129.068 95.5 129.068 97.7C129.068 97.8 129.068 97.8 129.068 97.9C129.068 100 129.668 101.7 130.668 102.9C131.768 104.1 133.268 104.7 135.268 104.7C137.268 104.7 138.768 104.1 139.868 102.8C140.968 101.6 141.468 99.9 141.468 97.8C141.468 97.7 141.468 97.7 141.468 97.6C141.468 95.6 140.968 93.9 139.868 92.7ZM139.768 98C139.768 99.8 139.368 101.1 138.568 102C137.768 102.9 136.668 103.4 135.168 103.4C133.668 103.4 132.568 102.9 131.768 102C130.968 101.1 130.668 99.7 130.568 98V97.8C130.568 96 130.968 94.6 131.768 93.7C132.568 92.7 133.668 92.3 135.168 92.3C136.668 92.3 137.768 92.8 138.568 93.7C139.368 94.6 139.768 96 139.768 97.9V98Z" fill="#FFD585"/>
<path id="Vector_13" d="M128.068 62.2C122.968 51.7 116.168 42.1 107.868 33.9C99.7679 25.8 90.4679 19.2 80.1679 14.2C78.5679 13.4 76.5679 13.4 74.9679 14.3C64.7679 19.7 55.3679 26.6 47.1679 34.9C39.2679 42.9 32.5679 52.1 27.3679 62.1C26.8679 63.1 26.6679 64.3 26.7679 65.4C26.7679 65.8 26.8679 66.2 27.0679 66.6C27.5679 68.1 28.6679 69.3 30.0679 70C31.8679 70.9 33.7679 71.7 35.6679 72.4C36.1679 72.6 36.7679 72.8 37.2679 73C39.4679 73.8 41.7679 74.6 44.0679 75.3C54.8679 78.6 66.2679 80.4 77.5679 80.4C88.8679 80.4 100.268 78.7 111.168 75.3C111.668 75.1 112.168 75 112.668 74.8C114.368 74.3 115.968 73.7 117.668 73.1C118.068 73 118.468 72.8 118.768 72.7C119.368 72.5 119.868 72.3 120.468 72C122.068 71.3 123.668 70.6 125.368 69.9C126.768 69.3 127.868 68.1 128.368 66.6C128.568 66.2 128.668 65.7 128.668 65.3C128.768 64.3 128.568 63.2 128.068 62.2ZM124.768 65.4C124.568 65.9 124.268 66.3 123.768 66.5C119.468 68.5 113.868 70.7 107.468 72.5V38.9C114.468 46.3 120.168 54.7 124.668 63.9C124.868 64.3 124.868 64.9 124.768 65.4ZM88.3679 61.9L77.8679 76.5L77.6679 76.7L77.4679 76.5L67.0679 61.9L66.6679 61.3L66.8679 60.6H88.6679L88.8679 61.3L88.3679 61.9ZM50.2679 38.6L49.7679 37.9C49.8679 37.8 49.9679 37.7 49.9679 37.6C56.9679 30.5 64.7679 24.5 73.3679 19.6L72.8679 21.2L62.4679 55.6L53.0679 42.6L50.2679 38.6ZM68.2679 55.5L77.6679 22.4L87.1679 55.5H68.2679ZM47.9679 72.4C41.4679 70.6 35.9679 68.4 31.6679 66.4C31.1679 66.2 30.8679 65.8 30.6679 65.3C30.4679 64.8 30.5679 64.3 30.7679 63.8C35.3679 55 41.1679 46.8 47.9679 39.6V72.4ZM60.3679 62.7L56.7679 74.6C55.5679 74.4 54.2679 74.1 53.0679 73.8V51.3L60.5679 61.7L60.3679 62.7ZM70.1679 76.3C67.6679 76.1 65.1679 75.9 62.8679 75.6C62.7679 75.6 62.6679 75.6 62.4679 75.6L64.7679 67.7L71.0679 76.5C70.8679 76.3 70.5679 76.3 70.1679 76.3ZM92.4679 75.5C90.1679 75.8 87.7679 76.1 85.2679 76.2C84.9679 76.2 84.5679 76.3 84.2679 76.3L90.5679 67.5L92.7679 75.4C92.6679 75.5 92.5679 75.5 92.4679 75.5ZM102.368 73.7C101.268 73.9 100.168 74.2 99.0679 74.4L95.3679 62.2L95.0679 61.3L102.268 51.3V73.7H102.368ZM105.468 38.2L102.268 42.6L93.2679 55.2L83.1679 21.3L82.6679 19.8C90.9679 24.3 98.5679 30 105.168 36.6C105.468 36.9 105.668 37.1 105.968 37.4L105.468 38.2Z" fill="#FFD585"/>
</g>
</g>
</g>
</g>
</svg>
